<mxfile host="65bd71144e" scale="1" border="10">
    <diagram id="qqcqNcvKcQGcfP2Q8Bpq" name="Page-1">
        <mxGraphModel dx="1919" dy="499" grid="1" gridSize="10" guides="1" tooltips="1" connect="1" arrows="1" fold="1" page="1" pageScale="1" pageWidth="827" pageHeight="1169" background="#FFFFFF" math="0" shadow="0">
            <root>
                <mxCell id="0"/>
                <mxCell id="1" parent="0"/>
                <mxCell id="y_bkC_GhIzTOKFM2gDOU-18" value="iris/misc/" style="shape=card;whiteSpace=wrap;html=1;verticalAlign=top;fillColor=#fad7ac;strokeColor=#b46504;" parent="1" vertex="1">
                    <mxGeometry x="-250" y="250" width="170" height="300" as="geometry"/>
                </mxCell>
                <mxCell id="y_bkC_GhIzTOKFM2gDOU-1" value="&lt;div&gt;IRIS&lt;/div&gt;&lt;div&gt;&lt;br&gt;&lt;/div&gt;" style="whiteSpace=wrap;html=1;verticalAlign=top;fillColor=#b1ddf0;strokeColor=#10739e;" parent="1" vertex="1">
                    <mxGeometry x="10" y="210" width="400" height="480" as="geometry"/>
                </mxCell>
                <mxCell id="y_bkC_GhIzTOKFM2gDOU-3" value="&lt;div&gt;nginx&lt;/div&gt;&lt;div&gt;&lt;br&gt;&lt;/div&gt;" style="whiteSpace=wrap;html=1;verticalAlign=top;fillColor=#b1ddf0;strokeColor=#10739e;" parent="1" vertex="1">
                    <mxGeometry x="470" y="280" width="240" height="340" as="geometry"/>
                </mxCell>
                <mxCell id="y_bkC_GhIzTOKFM2gDOU-25" style="edgeStyle=orthogonalEdgeStyle;rounded=0;orthogonalLoop=1;jettySize=auto;html=1;exitX=0;exitY=0.5;exitDx=0;exitDy=0;entryX=0.5;entryY=0;entryDx=0;entryDy=0;entryPerimeter=0;" parent="1" source="y_bkC_GhIzTOKFM2gDOU-4" target="y_bkC_GhIzTOKFM2gDOU-10" edge="1">
                    <mxGeometry relative="1" as="geometry"/>
                </mxCell>
                <mxCell id="y_bkC_GhIzTOKFM2gDOU-26" style="edgeStyle=orthogonalEdgeStyle;rounded=0;orthogonalLoop=1;jettySize=auto;html=1;exitX=0;exitY=0.5;exitDx=0;exitDy=0;entryX=0.5;entryY=1;entryDx=0;entryDy=0;entryPerimeter=0;startArrow=classic;startFill=1;" parent="1" source="y_bkC_GhIzTOKFM2gDOU-4" target="y_bkC_GhIzTOKFM2gDOU-11" edge="1">
                    <mxGeometry relative="1" as="geometry"/>
                </mxCell>
                <mxCell id="y_bkC_GhIzTOKFM2gDOU-4" value="REST APIs&lt;br&gt;(COS &amp;amp; Flask)" style="rounded=0;whiteSpace=wrap;html=1;verticalAlign=top;fillColor=#fad9d5;strokeColor=#ae4132;" parent="1" vertex="1">
                    <mxGeometry x="240" y="270" width="170" height="270" as="geometry"/>
                </mxCell>
                <mxCell id="y_bkC_GhIzTOKFM2gDOU-5" value="" style="endArrow=classic;startArrow=classic;html=1;exitX=1;exitY=0.5;exitDx=0;exitDy=0;entryX=0;entryY=0.5;entryDx=0;entryDy=0;" parent="1" source="y_bkC_GhIzTOKFM2gDOU-1" target="y_bkC_GhIzTOKFM2gDOU-3" edge="1">
                    <mxGeometry width="50" height="50" relative="1" as="geometry">
                        <mxPoint x="400" y="350" as="sourcePoint"/>
                        <mxPoint x="490" y="380" as="targetPoint"/>
                    </mxGeometry>
                </mxCell>
                <mxCell id="y_bkC_GhIzTOKFM2gDOU-10" value="Noshow_Table.Appointment" style="shape=cylinder3;whiteSpace=wrap;html=1;boundedLbl=1;backgroundOutline=1;size=15;verticalAlign=top;fillColor=#cce5ff;strokeColor=#36393d;" parent="1" vertex="1">
                    <mxGeometry x="20" y="440" width="170" height="80" as="geometry"/>
                </mxCell>
                <mxCell id="y_bkC_GhIzTOKFM2gDOU-11" value="&lt;div&gt;Titanic_Table.Passenger&lt;/div&gt;" style="shape=cylinder3;whiteSpace=wrap;html=1;boundedLbl=1;backgroundOutline=1;size=15;verticalAlign=top;fillColor=#cce5ff;strokeColor=#36393d;" parent="1" vertex="1">
                    <mxGeometry x="20" y="290" width="170" height="80" as="geometry"/>
                </mxCell>
                <mxCell id="y_bkC_GhIzTOKFM2gDOU-15" style="edgeStyle=orthogonalEdgeStyle;rounded=0;orthogonalLoop=1;jettySize=auto;html=1;exitX=1;exitY=0.5;exitDx=0;exitDy=0;exitPerimeter=0;entryX=0;entryY=0.5;entryDx=0;entryDy=0;entryPerimeter=0;" parent="1" source="y_bkC_GhIzTOKFM2gDOU-12" target="y_bkC_GhIzTOKFM2gDOU-10" edge="1">
                    <mxGeometry relative="1" as="geometry"/>
                </mxCell>
                <mxCell id="y_bkC_GhIzTOKFM2gDOU-17" value="Util.Loader" style="edgeLabel;html=1;align=center;verticalAlign=middle;resizable=0;points=[];" parent="y_bkC_GhIzTOKFM2gDOU-15" vertex="1" connectable="0">
                    <mxGeometry x="-0.0714" relative="1" as="geometry">
                        <mxPoint x="18" as="offset"/>
                    </mxGeometry>
                </mxCell>
                <mxCell id="y_bkC_GhIzTOKFM2gDOU-12" value="appointment-noshows.csv" style="shape=card;whiteSpace=wrap;html=1;verticalAlign=middle;strokeColor=#b46504;fillColor=#FAF1E1;" parent="1" vertex="1">
                    <mxGeometry x="-205" y="430" width="80" height="100" as="geometry"/>
                </mxCell>
                <mxCell id="y_bkC_GhIzTOKFM2gDOU-14" style="edgeStyle=orthogonalEdgeStyle;rounded=0;orthogonalLoop=1;jettySize=auto;html=1;exitX=1;exitY=0.5;exitDx=0;exitDy=0;exitPerimeter=0;entryX=0;entryY=0.5;entryDx=0;entryDy=0;entryPerimeter=0;" parent="1" source="y_bkC_GhIzTOKFM2gDOU-13" target="y_bkC_GhIzTOKFM2gDOU-11" edge="1">
                    <mxGeometry relative="1" as="geometry"/>
                </mxCell>
                <mxCell id="y_bkC_GhIzTOKFM2gDOU-16" value="csvgen" style="edgeLabel;html=1;align=center;verticalAlign=middle;resizable=0;points=[];" parent="y_bkC_GhIzTOKFM2gDOU-14" vertex="1" connectable="0">
                    <mxGeometry x="-0.0429" y="2" relative="1" as="geometry">
                        <mxPoint x="16" y="2" as="offset"/>
                    </mxGeometry>
                </mxCell>
                <mxCell id="y_bkC_GhIzTOKFM2gDOU-13" value="titanic.csv" style="shape=card;whiteSpace=wrap;html=1;verticalAlign=middle;strokeColor=#b46504;fillColor=#FAF1E1;" parent="1" vertex="1">
                    <mxGeometry x="-205" y="280" width="80" height="100" as="geometry"/>
                </mxCell>
                <mxCell id="y_bkC_GhIzTOKFM2gDOU-20" value="usr/share/nginx/html/" style="shape=card;whiteSpace=wrap;html=1;verticalAlign=top;fillColor=#fad7ac;strokeColor=#b46504;" parent="1" vertex="1">
                    <mxGeometry x="485" y="335" width="210" height="270" as="geometry"/>
                </mxCell>
                <mxCell id="y_bkC_GhIzTOKFM2gDOU-9" value="" style="shape=image;verticalLabelPosition=bottom;labelBackgroundColor=#ffffff;verticalAlign=top;aspect=fixed;imageAspect=0;image=data:image/png,iVBORw0KGgoAAAANSUhEUgAAAWgAAAFVCAYAAADCAXWmAAAgAElEQVR4nOy9+08UWf7///lXzi/zU+1v/UvPLz3TmXRCNqghhI0kDsHlzWDgKxmi0rh4W3AUiAMogiiwCiiOjIMLy0VRcFgEFcELjALiCApylXvfL8/vD+w5dHU30A0oJfV6JK9Eq06dPlVNP/r0q06d8/9AECpncHAQP3xdT0GhuPh/W/3hIIithgRNodQgQROqhwRNodQgQROqhwRNodQgQROqhwRNodQgQROqhwRNodQgQROqhwRNodQgQROqhwRNodQgQROqhwRNodQgQROqhwRNodQgQROqhwRNodQgQROqhwRNodQgQROqhwRNodQgQROqhwRNodQgQROqhwRNodQgQROqhwRNodQgQROqhwRNodQgQROqhwRNodQgQROqhwRNodQgQROqhwRNodQgQROqhwRNodQgQROqhwRNodQgQROqhwRNodQgQROqhwRNodQIStCtra0oKytDWVkZqqur1/yj52XLysqwuLi4oQ8RQXwqNkvQpT91Y3HOjtkp64bquZb1B05GP9hyOQQT/wj/Hb/l9216vRcOd2Fxzo7JEdOq5XISH2Nxzi4i78CTFcuW/PO5KDc6uCi215e+weKcHe/65tbd3qf3x2Tt4DH1wYyh3jk8bBjB8cj/BlxfUIJOSkoCY0zE6OjoimVTU1NlZYeGhjb8QSKIT8FmCbqqoE/Umfhd47rqeP1sGgBQVbD5svtUcf5gJ+w2Fywmx6bXfTWzBwDgcrpXLXfp6DPZe/ro9siKZXvaJ0U5q8Uptj/4zzAAYGHWtu72/tkzs+bfm8vlRkPZm4Dq25CgL1y44LecyWSSlSNBE0pGSYJemLUB+LIEfSP3FQAoStCmebvfconfNcJhd4lyn0rQM5NWXM3swdXMHlz/+SWqL73Gy8dT4nXdbiD3x45PK2idTge32+1Trrq6mgRNfDF8bkGf+nsbjLua1y3ok9EPcPRvLWu2J/G7Rpz6e1vA7T/19za/7eb1nIx+4Hd/III27mpesX7v+Ef47yINsF5BA0B+cqdPuWtZf8jKfCpBv34+7Xd/3eUB8dozkyunwvh7vCFBM8bQ2dnpU27Pnu/XFHRPTw9Onz4NvV4PSZIQGRmJmpoaWZmcnByEhYUhOTkZ7e3tiIqKgiRJ0Gg0SElJwezsrCiblZWFsLAwxMXFyero7OxEWFgYwsLC0NPTE8zpEirhUwr65vleOOwu/PFoEn88moTTsdyhmZuyoiClCz98XY/jkf+V9ewAwGF3CVEd/VsLBl7MwOVcPt5qduLO1T992lGQ0oU/e5bLupxudLdP4OO4BQ67S4jr1oU+OOwu/Nkzg8VZOwDA6XDj/m9D+OHrejRWvBVfGBy3y40XrRM48Nd7+OHrejy5J09zOuwudDWPya6Jad6+fLwbGH497/eL498XX2PivUmUNS84MNQ7J84hWEH7S3P0dX2Ulfncgv7h63q0VL0Tr5+T+Fhs9/cer0vQer0eWq0WjDGkpqbKygwPDwspR0dH+xV0d3e3j8B5ZGdni3L79+9fsRxjTCbjffv2gTEGjUYja09TU5Mo397eHszpEirhUwras8fkD5fLLXqMbpf816jb5cY/v2/F0b+1wGZxiu1Oh1tW9sWDCVnPy7Osy+X7C7fkn8/xw9f1uF3+p982NVUOoqPxw6rtftYyjh++XropJmuze3lfe92wbLvnF5DT4cbp/2sX7eY9Zc9z9yQYQXe3TwAATAvyNMeBv94T8nv9fCnXvxWC/uf3raKtN3JfCTn7e4/XJWidToe8vDwhPrPZLMrk5+eDMQZJklBeXu4j6ImJCUiSJGRaXl6Ompoa7Nyxy6esp6DDw8Nx9+5dVFZWii8HxhgmJ5cS/iRoYr18LkGPDS2i5J/PceCv99D863KHxTOd4S/F4Zm75B/oxO8ahYgA4PzBpV7x+LulHqjV7BS983NJT2S9WH+Cnnhvwq/nXuH+zSFk/F+76OkPv54X6ZTcHzvwcXTps27zEJu/FEdm3EPw7Oe7vjn8I/x3/PB1PS6mPoXVvCSity9nhTi5vCfem8Tr/adk+doFI+jL6S/Evz3THJVnl9o5P21Dfembpeu0BYL+4et68UXx33+/W/U9XpegNRqNrKfMh9y53W7odDowxnD8+HFcvXrVR7qe+emGhgZRt2ev+uLFiwDkgp6fn1++6P/7EmCMoaurCwAJmlg/n0vQmXEPZeXt1iVRNVa8XVHQid81iuP/7JmRHZ/4XaP4oD+sH8GBv94TZWuKXsvKVpxZzr36E/SZ+EeyHt4fjyYx8mZBtv2Hr+vx3+r3AJZ6xKsJ+nePn/HeN8M8f+If+Os9XEx9Kv7v+ZP/h6/r0f+/lEQwgv5H+O+YnbICAB7f+eAjz5Zb71D7r6X3ZasEzXvLLx5MrPoerzsHDQBRUVFgjGHPnu8BAE+ePBH7u7u7UVxc7CPotLQ0sS03NxcFBQUi+PYjR44AWBb0atJta2sDQIIm1s/nELTD7vIpz/Otzb8OrSjo0/8n/5t91zcnC87AixmcP7h8P8j7JqKnBLwF7XL5l98/wn/Hr+de4UHNe/R3fcTcR3k+ejVBe/YIvdvsmYfPSXwsrpFl0fcm4/WfXy61MQhBG3c1iy8InuYw7moWaZOsfQ+3VNCe78WDmvervsfrFrTb7UZtba34/8jICA4fPgzGGAwGAwDI0iBc0BEREavmlRljiI2NBbCyoJubm0nQxKbxOQTt7479yJ8LAFYXtGfvcjUm3puEKAGIm3iewfPR3oL217bbV//0m7/2ZDVB83Nbi8vpL/CwYQSAPG3Cg59/sILO2vdQ/D8/uRO3Liy9Nx/HLfjh6/otFbSnkKsvvV71PV63oJ1OJywWi8gnZ2Zmin2lpaUAlkZheAs6NjZWbCssLERJSYlP3L17FwAJmvg8fBZBT1jWJegz8Y9EnXevv0XegSd+I2vfQ9kH3ftJRM/0h7egpz6YZWXzDjwRZa1mJ561jKOqoA/nkp7gzrW3Yt9qguapCdOCfcU25x14ggN/vbcsS7OvoEt/6gYQvKB/+LoeH8ctAJbSHPzXxt3rb7dc0PwLCQAupj5d9T3ekKAB4MSJEz494I8fl94cf4LOysrym4MGAIfDgamp5Z9GwQjas20m0/JQnYaGBhI0sSpKFHT1pdc+Ym2vG5Ydn/hdIwZezODjuAXtdcM4+rcWUfb3qneysjXFr8W+tQR99/pbUdZb9H88Wn4Kz1vQnj3gBzVLuWqH3SVuEPKoPPsKE+9N+PB2AZlxD2WpGX6zkwcfJbIeQXveiPU+n60SdE7iY5Fq4b9cVnuPNyxo7yFzCQkJorw/Qff09IhtOp0ONTU1MJvN6O/vR2RkJDQaDd6+HQQQnKCzs7PFtvz8fMzOzuLZs2eyER8kaMIfShI0v7nV3T4hxDb4amm8v9vlxs28XvGh7mxaHoNcceYP/PC1x001lxt1lweQte8hfsvvkw1xC0bQZad7/G4HltMonjcg8w48QeJ3jTLpeo7iOJf0RNwcnfzf6yZ+1yi2fRw1i7HfFWf+EDJbj6C9c7tjQ8vzbqwmaJfTjYKULr9x5v97vGo7uKCnPpjFMSX/fI5bF/rQ1TwmGz7467lX4riV3uMNCxoAQkJCxPb79++L7f4EDch70d4hSZIYmRGMoHt7e9fMbZOgCX8oSdDDA8ujlVwuNy4dfYZTf2+TPbzgsLvg+QDvgEdv7dTf22RD6vyxlqDPJT2RlTcvOGSvzzmXtDQhkXcOdfj1PH74uh4vWpeHAXqPg/Z+1LnkxHNxTm43hLDFtViHoH/4uh5TH5aHANddHghI0Ktht/qmYfwJei28f+Gs9B5viqBLS0uFSD23ewr63bt3srpqamrEkDweUVFRGBhYHpaUmJjoV9D379/3ETQAVFVViZw4P86zDY8ePQJBeLNZguY9Sc8RG1zanr03Hm9fLvWabpcvPw1YkNIFq9kpRjr8++JSquNk9AO865uD98wKLx9P+aQQjv6tBS9aJzAzaYXL5cbo4KLs5z4fG1x9aSntMfLngk/bbl3okz04ASzdiLyY+lSIlqdhfvh6edSG0+GWSa++9A2sXvUszNrEWF/P+CX7JcaGlme9dNhdol7zwurzfPAeu8vplt0g9ez1e45s4e/L/PRyOsNfSsSbxTn/c3zw6H0y5fc4q8WJifcmvGidEOPTvcPfe7zl80EvLCzg3bt3MrFvBKfTiffv32NiYmLtwgQBZc4Hnfhdo9+RGInfNeL0/7WvOK9Fa817PKwf8XmUuuSfz8X5eo/HXi3++X0rsvY9DGgOjQN/vbdiuX+E/44z8Y98vkxWKuv5lKHawvM93nJBE8RWo0RBrzcsJgeApbwvz+WeiX+E+emlm49r/USnUFaQoAnVs50EvdocGm738s1Eii8jSNCE6tlOgv7h63q01Q7Lbsi5nG4Mv57H1cyeLW8bRXBBgiZUz3YTNI+jf2sJaj5oCuUFCZpQPdtV0BRffpCgCdVDgqZQapCgCdVDgqZQapCgCdVDgqZQapCgCdVDgqZQapCgCdVDgqZQapCgCdVDgqZQapCgCdVDgqZQapCgCdVDgqZQapCgCdVDgqZQapCgCdVDgqZQapCgCdVDgqZQapCgCdVDgqZQapCgCdVDgqZQapCgCdVDgqZQapCgCdVDgqZQapCgCdVDgqZQapCgCdVDgqZQapCgCdVDgqZQapCgCdVDgqZQapCgCdUzODgIu91OQaG4IEETqocETaHUIEETqocETaHUIEETqocETaHUIEETqocETaHUIEETqocETaHUIEETqocETaHUIEETqocETaHUIEETqocETaHUIEETqocETaHUIEETqocETaHUIEETqocETaHUIEETqocETaHUIEETqocETaHUIEETqocETaHUIEETqocETaHUIEETqocETaHUIEETqocETaHUIEETqmc7C3phYQFv3rzBq1e9WFhY2NK2jI2NYXZ2dsuvyZcUJGhC9WxHQVutVty9exdGo1EWhYWFGB8b35I2paWlobm5ecuvzZcUJGhC9WxHQd+8eRNHjx7Fo0ePMDc3h8XFRbx61Yvs7GykpaVheHj4s7fpxYsXGBkZ2fJr8yUFCZpQPdtN0AMDAzAajejq6vLZNz8/j59++gk3btzA4uIicnNzfcoVFxfj999/h91ux+DgIC5duoSjR48iNzcXHR0dolxdXR1qa2uRl5eHrKws/Prrr7hw4QJsNpso093djdzcXCwsLKC4uBiPHz+G3W6HxWLB7du3kZWVhbS0NFy7dg3T09Ow2WzIz8/Hw4cPRR03b97Ev/71L/H/np4enDt3DlardcuvNQmaID4x203Qv//+O4xGI0wmk9/9FRUVyMrKgt1uR0lJCS5duiT2DQ0NwWg0YmBgAJOTkzAajcjLy8OjR49QWloKo9GIZ8+eiXqMRiPy8/NRVlaGFy9eiGN5fVeuXEFRURHsdnmK49atWzAajfjPf/6D33//HWlpaThz5gysVitKS0tRUlIiRM7TMzMzM7Db7bhx4waKi4u3/DqToAniM7DdBF1VVYWjR4+uuP/evXswGo1YXFxEZ2enTH51dXX46aefYLPZ8J///AdGo1F2Y6+kpATnzp0Tgj569Kj4IrDZbMjIyMC///1v2O12zM3NwWg0il43FzTf/p///EfU+/btIIxGI16+fImHDx/CaDTCYrHgzZs3QtAvXryAzWZDWloaHjxo2/LrTIImiM/AdhN0Y2MjjEajLNXgGbW1tTh69ChsNhsWFxdhNBrR3t4Om82Gn376CXfu3BEyNhqNKCsrE5GRkQGj0SgEnZ+fL6v77t27SEtLg9VqRUdHB4xGoxg9wgX9559/wmg04ty5c6LeK1euwGg04r///S+mpqZET7ypqQmXLl1CYWEhampq8O7dOxiNxi270aloQRsMBjDGZKHRaBATE4POzs6gPxhutxu1tbXo6ekJ+tiN0t3djbq6uhX3NzQ0+JwrYwySJOHgwYMYGBj4jK3dGBaLBfn5+bBarUEd53mN7HY7GGM4c+bMp2jilrLdBP3y5UsYjcYVb8gVFhbKcrq//PILLl26JMT54cMH2O12FBQUIC0tDfX19T5htVpRUVGBy5cvy+oeGxsTci0pKUFFRYXYxwXd19cHo9GIa9eu+dT76lUv7HY7srOzcffuXRQVFeHevXtobGxEbm4u7t+/jzNnzmz5NVakoPV6PSRJQk5ODnJycpCeno64uDghrzt37gT1wXj06BEYY2hpaQnquI0SiGzq6+vBGEN8fLw434yMDMTGxoovpunp6c/Y6vVz7tw5MMZgMpkCPsb7GjmdToSFhaG8vPxTNXPL2G6Cnpubw9GjR1FaWurTi+Zy5DcB7XY7Xr3qhdFoxI0bN5Cbmyu237hxwyeX/fz5c/z3v/+F3W73K2i73Y78/Hxx7B9//OEj6PGxcRiNRty7d0/sm5+fx507d/Du3TvY7XY0NDQgLy9PyP7169cwGo3Izs5GfX39ll/jzxVBC9pgMPhs7+rqgiRJkCQJU1NTAdfX3t6ueEH7+9I5c+YMGGOorq7+lM3cNHJzczcs6O3MdhO03W5Hf38/jEYj/vWvf6G3txfv3r0TNw/Ly8tlIyCsVivS0tJEisG7jl9//RUfPnwQIr99+/aqgm5ra4PRaMTRo0dhsVh8BG2323HhwgWkpaXh2bNnmJiYEPlsngvnI1GMRiPMZjPMZrP4v+dNyO0emyJoALj5229gjKGiokJsa2xsRGRkJCRJAmMMoaGhaGpqArAkdb1eD8YYdDodTp8+DQCYnp7G8ePHRTpFkiSkpqZidnZW1FtaWiqO1ev1yMzMhM1mE/tNJhNOnDgBnU4HSZKwZ8/36O7uBgCYzWbs3LFL9IIjIiL8ns9qgm5tbQVjDDk5OQCA5ORk5OTkICEhAZIk4dSpUwCAoaEhxMXFQZIkaDQaJCUlYXJyUtRjsVhw7NgxaDQaMMawc8cuVFZWyl5rrToqKiqwd+9eNDU1ISwsTNTT1tYGACgrKxP1h4aGoqamBgDQ29uL+Ph4aLVaMMag1Wpx8eJFOJ1Ov9fI6XRi545dKCsrE689MTGBlJQUaDQacZ2fPn0acNuUwnYUtN1uxx9//IF//etfQmxZWVmorq6G2Wz2KctvCE5PT/vI9ujRo0K4v/zyi+hRryTo2dlZGI1GcbOQx08//SQEPTk5iUuXLom2nTt3Dj09PaKs1WrF0aNHZSNM+HA/NQyv47Fpgp6amgJjDOnp6QCAtrY2MMYQEhKC3NxcpKSkCFGPjo5icHAQSUlJYIwhMTFR9EYjIiLAGENycjLy8vLEB/vYsWMAgKamJjDGsGfP9ygsLBQployMDAAQImGMITo6GgUFBdDpdGCMifzWzz//DMYYwsPDkZ+f7/d8VhN0WloaGGNCpryN/HzT0tIwOjoqzjclJQXZ2dlChGazGQBw+vRpca4FBQWi3fxLLJA6cnJyxGvv2fO9aBtjDNPT02htbRXXNDMzE11dXZibmxPyPXnyJDIyMsQ1qqur83uN7Ha7qANY+qLjX5JpaWnIz88Xsuf3I9Zqm1LYroLmYTabfcQbTNhsNkxNTX0SMS4uLtLj36vEpgna5XIJKQLAkSNHhIw55eXlMgF5pzjevXsnPvAcp9MJSZIQGhoKYFlq/APudruRkJAgjqmpqQFjDLm5uaKO6elpMMYQGxsLILgUx5EjR1BZWYnKykqUlpYiOTlZ9OxnZmYALAv6+fPnok2pqalgjKG9vV3Uyb9cSkpKAAChoaEICQkR+ycnJxERESHEH0gdXIJXrlwRZa5fvw7GGO7duwfAN8VRXV3t8+XT29sLxpj4JeN9jfj/uaBLS0vBGMPNmzdFHcPDw0LqgbZNCWx3QVN8ubFpgjabzWCMYe/evWKbw+GAw+HA27eDaGpqwqFDh8AYQ21tLQD/OWiXywWn04np6Wl0dXXh2rVr0Gg00Ov1AICqqiqR2igoKEBvb6+sHSdOnABjDNevX0dra6sIfoMTCE7Q/mLnjl0iZQIsCZrX7Xmt+LnxNnC57t+/HwCE7Pfs+R7Xr1/H2NhY0HVwCQ4NDYnjnj59KsuR+8tBO51OuFwufPjwAW1tbSgoKJD9UvG+Rvz/XNAJCQlgjMHpdMraHBoaCsYYHA5HQG1TAiRoCqXGpgn6zZs3YIzh+PHjAIDZ2VmRwvAckreWoBsaGsTPbc/ggna5XMjKypLt0+l0ePToEQAgJiZmRbFySdntgQu6uLgYvb296O3txdu3gyK14ElYWBh27tgl27ZaG3jZ2dlZMSqER2RkJD58+BBwHVyCi4uL4rVfvVrqDd+6dQuAr6BdLhdyc3NF+oRfw2AEHR4eDp1O53MtMjIyxC+nQNqmBEjQFEqNTRN0cXExGFu+SRgfHy/SFffv38f42Dju37+/qqBfvnwpZHz9+nX09PTA4XBg545dPjIwm81obm4WaQDGGKxWKw4ePAjGlvLNExMTPuF2u2G3b2wUhzdhYWHiZz1Ho9FAq9X6bYN3/vXjx4+oqqoSso6Kigq4Di5Bz97xWoIuKysTv3Zqa2sxOjqKxcVFkdIB1hb0vn37fH41AMu/YJxOZ0BtUwIkaAqlxqYIenBwUAyzW1hYgNvtluUiOfwmF/95+/DhQzDG0NzcDAC4cuUKGGNobW0Vx/D8sVarBQCkp6fDYDDIRm3wm08DAwMoLCwEY0w2XtdutyMiIgIxMTFwu91wOBxgbPnGoj82Kujo6GgwxtDX1ye2DQ0NQa/XIy8vD06nExERETh48KDsOIPBIMS3Vh1AYII+e/YsGGOYn58HAHFj1fPXAB+ZcvjwYQDwuUZ2u1zQ/L3s6uoSdTgcDmi1WoSFhQXcNiVAgqZQamzqgyqeHzq+va6uDq9e9eLChQui3LVr1wAAL168AGNLD4Pcv38fPT09YIxh37596O7uRktLixjZwKXFe+EHDx7EgwdtqK6uhlarhUajgcvlwuzsrPiyyM3NRWtrq0i1eOY9GWMwGAyorKyE2+32OdeNCvrx48fi10BFRQXu3r0rzoXnZDMzM8EYQ0FBATo6OsSNt8TExIDrCESC/NfNmTNn8PLlS/FFmJubi97eXlRXV4t0B89te18jm80mE/TExIT44mxsbMSTJ0/Ee15VVRVw25QACZpCqRG0oL1zoVqtFrGxsXjwQD62taenB5GRkbIcJ398mkvAarWKIWA8hZGZmSly1YwtDS/jec3+/n6/ZUJCQsQ+YClVwm9WccGdO3dO1j5eJ2PM5+YcsPyod2Nj45rXJSwszO946rq6Olk7IyIiUF9fL/bPzs4iMTFRdj3j4uLE6JBA6uDpC8/eMB+Rwb+QBgcHRR1HjhzB3NycuMnHv/yKiooQFRUFSZLgcrl8rtH79+/BGENWVpZ4nWfPnske/9fpdLJx3IG0TQmQoCmUGp98sqTp6ek1ny6cnp6WzRPhcrkwNDQEu92+4jEulwtv3w6Kn+3+mJ+flw3z82ZhYQELCwurtm0zGB8bl0nXGz5rl2faJtg61sLpdOLjx4+yURcWiwXDw8NCyP4I5BrNzMz4/ZL7UiBBUyg1aDY7QvWQoCmUGiRoQvWQoCmUGiRoQvWQoCmUGiRoQvWQoCmUGiRoQvWQoCmUGiRoQvWQoCmUGiRoQvWQoCmUGiRoQvWQoCmUGiRoQvUMDg7ih6/rKSi2LEjQBLECJGiKrQ4SNEGswODgIAYGBigoFBckaEL1UA6aQqlBgiZUDwmaQqlBgiZUDwmaQqlBgiZUDwmaQqlBgiZUDwmaQqlBgiZUDwmaQqlBgiZUDwmaQqlBgiZUDwmaQqlBgiZUDwmaQqlBgiZUDwmaQqlBgiZUDwmaQqlBgiZUDwmaQqlBgiZUDwmaQqlBgiZUDwmaQqlBgiZUDwmaQqlBgiZUDwmaQqlBgiZUDwmaQqlBgiZUz6cStM1mo6DYUJCgCdWz2YLmHy6r1Qqr1QqLxUJBsa4gQROqZzMF7Slnk8mExcVFzM/PY35+HnNzcxQUQQUJmlA9myVoLmeLxYKFhQWYTCY4nc6tPj3iC4YETaiezRS01WrFwsIC5ufnt/q0iG0ACZpQPZslaJ7WmJmZgcPh2OrTIrYBJGhC9WyGoHnveXFxEeNj41t9SsQ2IShBa7VaMMYQGxvrd//r16/BGANjDK9e9W6oYRcvXgRjDLOzswGVX1hYAGMM58+fX7HM52w/8eWwWYK2WCyYn5/Hhw8ftvqUiG1CUILWaDRCYAsLCz77z58/L/a/fPlyQw27cOECGGOYmZkJqPz8/DwYYzh37tyKZT5n+4kvh80W9Pv377f6lIhtwroFXVtb67PfYDB8MYL+1O0nvhw2U9Bzc3MYGhra6lMitglBCzoqKgoajQYJCQmyfTw9sG/fPh/B1dXVYeeOXWCMQa/XIysrC1arVXb8jRs3EB4eDkmSEBcXhxMnTvgIurW1FREREaKe7Oxs2O12AIELOtj2OxwOXLp0SbSfMYbo6GgMDAyIY1NTU5Gbm4vCwkLo9XpIkoSYmBhZTyqQeqxWK7Kzs2EwGCBJEg4fPoyCggJER0eLMi6XC1euXEFISAgYYwgNDUV1dbXY//TpU+zcsQs3b96ERqNBaGgoenp6VrwmBAmaUC5BCzo6Ohrp6elgjMFsNot958+fh0ajQVlZmUxwlZWVQiQXL17Ejz/+KOTEqaurA2MMkZGRKCwsRGhoqJAYF/S9e/fAGINGo0FWVhZSUlLAGMP+/fsBBC7oYNufm5sr2ltQUIDY2FjxBeF2uwEA4eHhor1JSUlISkoS58wJpJ5jx46BMYadO3bh3Llzosev0WhEPadPnwZjDAaDAfn5+diz53swxnDt2jUAQEtLi2gL/7KYnJwM5m1WHSRoQqmsS9AdHR1gjOHOnTtin8FgQFpaGq5du1G6irIAACAASURBVCYE53Q6IUkS9Hq9rMd8+PBhMMbQ2toKAJAkCSEhIWJQv9lsFjf0ZmZm4Ha7odPpwBiTjS/NyMgAYwzd3d1BCTrQ9rvdbuj1elnbACA+Pl52A5ML2rOnmpiYKMoEUk9fXx8YYzhw4IDY39vbKxP08PAwGGPYvXu3KON0OrFzxy5IkgSr1SoEHRMTAwBC/sTKkKAJpbIuQTudTmg0GiGTgYEBMMbQ0dEhExyXTlFRkayepqYmMeJifGwcjDEUFxfLymRnZwtBT05OgjGG8PBwtLa2iigoKBC9x2AEHWj7OQ6HAyaTCa9e9aK6ulqkWcbGxgAsCdqzlwssj0LxvKO/Wj1VVVVgjKGhoUFWj1arFXU3NDSAMYYjR47IrgP/Mujv7xeCvn79ekDvKUGCJpTLugQNAMePH4ckSbDZbCI94HQ6ZYJ78KANjDHU1NTI6uFD4lJTU0Vv1jOPCgDXr18Xgn7x4oX42e4vsrKyghJ0oO0HgFeveoVIeUiS5CPonTt2yV6Lp0qGh4cDqufnn38GYwyjo6Oyeg4dOiQEXVxcvOp1aGlpEYJuaWkJ5q1VNSRoQqmsW9Dt7e1gjOH+/fsiPQBAJrhXr3pl+VEO7xFfunQJQ0NDYIyhvLxcVobLaGZmBoODg+Ln/8TEhE/wCWmCEXQg7bfZbNBoNJAkCYWFhXjy5AkWFxeRmZnpI+iwsDDZa3kKOpB6rly5AsYYXr9+LasnPj5eCJrn869ever3OthsNiHotra2YN5aVUOCJpTKugXN88u7d+8GYwxPnjwBIBfc4uIiGGOIioqS1cNF09LSArfbDUmSZDcNASAqKkoI2uFwiB6nZw63rq4Oer0ezc3NQQs6kPb39PSAMYbs7GxRh9PpFD3hkZERAGsLOpB6urq6wBhDbm6uKDM9PS3LQfMy3iNQ0tPTERISgtHRURL0OiBBE0pl3YIGloaXcYFwcXqnCPiNvLS0NHR1daGyslLcFFxcXAQAkUvOyMhAV1eX6Fl6juLIy8sDYwx79nyP27dv4+Zvv0GSJBgMBtjt9qAFHUj7rVaruMnZ3t6Orq4uHDx4ULStv78fwNqCDrQe/qV06tQpXL16VYzL9sxvR0ZGgjGG5ORktLa2Ij8/X6SLAJCg1wEJmlAqQQt679694v+tra1gjCE9PV1sq6ioAGPLj0pbrVYhaR4xMTH4+PGjOMbtdiMjI0PkZCVJEgLjIyUcDocYqsYjLi5OfBHwvHZeXt6mtr+6ulr2AMvu3bvFLwCeuomIiPARdHl5uayXHUg9JpMJR44cgVarFeOgIyMjodVqRb0fP35EQkKCqEej0eDw4cPiOvFzIkEHDgmaUCqfbbIkp9OJoaEh2Gy2Vcu8f/8eLpdrzTIWi+VTNHNFPnz4IHr8n6Ke0dFRVFZWysYsu1wuGAwGH/kDS198Q0NDq14rIjBI0IRSodnsFAK/WRobG4u3bwcxNjaGnJwcMMaQn5+/1c3b1pCgCaVCglYQ+fn5Is3DIyUlhVbl+MSQoAmlQoJWGE6nE8+fP8eDB20BT7VKbAwSNKFUSNCE6iFBE0qFBE2oHhI0oVRI0ITqIUETSoUETaie7SjooaEhlJaWblp4zpUzODgo2/clLZD7qa5LdXW12NbZ2blp7SVBE6pnOwq6urp61Ym1gg2dTifq5jMv8pient66Ew2ST3Vd+HTIjDGcOHFixdd/8+YNYmNjZQ/qrQYJmlA9JGgS9KcWtNlsxpkzZ0QZ/oTxWpCgCdWzHQXd1NQEjUazYniPt+fTBqwUnotEfMmC/lTXZS1B8xWhSNAEESTbUdBrMTo6KhMGn243EL5kQa/Feq/LzZs3UVRUhKKiIjx69MhnPwmaINYJCZoEzdnIdVkNEjRBrBMSNAmaQ4ImCIVBgt64oC0WCyorK5GamoqQkBCxCEdeXh4ePGgLeCje2NgYysvLkZqaKhZDDg0NRWpqKsrLyz/5l8F6r8vly5eRlZWFrKwsNDc3i+0tLS3IyspCTEyMrN7U1FRR3nMGS47ZbEZNTQ0JmiBI0BsT9NOnTxEaGrrqaIfw8HCxRNxK1NfX+71J533D7lOut7ne67LSTcL09PQ1R4J0d3fL6qqvr4dWqwVjjARNECTojQk60IiIiPA7M6Pb7UZKSkpQdeXk5Gzm5RBstaALCwtl+0jQhOohQW+OoCMiIlBSUoLu7m50dnbi2LFjPmX8rfRTX1/vUy43Nxe9vb1YXFxET0+PWBbPM549e7aZlwTA5gt6dHQUXV1dOH/+vKzeuro6dHV1oaurSyxiYjabfX5BkKAJ1UOC3rigExMT/a7u4y3WrKws2X6z2Sx+zvPgy9h509nZKRNYWFjYpq8otNmC5gRyk/CXX36Rlbn5228kaIIgQW9M0OHh4SsuZWexWGRS3b9/v2z/pUuXZHVVVFSs+tp8rU8ejY2NAbc7ELZS0J55fL1eD7fbTYImCBL0xgRdVVW1avmdO3aJslFRUbJ9cXFxYp8kSWuuHmSxWHxSIZvJVgp6ZmYG3d3dqK+vFxMukaAJ1UOC3pig+/r6Vi2/b98+WW/bE71eL/bpdDp0d3evGZ498sTExHWd/0pspaD9QYImVA8JemOCHh0dXbV8QkKCX0E7nU6/NxuDidDQ0HVfA38oRdD9/f0oKCggQRMECfrTPkm4kqCHh4c3LGhJktZ9Dfyx1YIeGBjA3r17RTkSNKF6SNBbI+iJiQlZPRqNBnFxcUHFdkpxDA8PQ6PRyMqRoAnVQ4LeGkG73W5ZPcnJyes+n81CKaM4GGPQarUkaIIgQW+NoAH5CI+QkJCAXn9oaAhDQ0MrDu3bCFsl6PGxcdn+kJAQTE1NkaAJggS9dYJOSkqS1fXkyZNV6xobG5OVj46ODrjdgfC5BD08PCzb7/005dWrVwHQKA6CIEFvoaBbW1tldRkMBtjt9hXrSk5OlpUvKysLuN2B8KkE7X2e/f39sv3eS3FVVlYCIEETBAl6CwUNyMdJM8awc8cuvHnzRlbGbDbj1KlTsnKMMSwsLATc7kD4VIJ+8uSJrN7U1FSMjo5iamoKTqcT/f39Pvnn8bFxEjRBkKC3VtArDbcLDw/HgQMHkJSU5DO6gTGGhoaGoM97LT6VoL3r9Yy7d+/C6XTCYDD47CNBE6qHBL21ggaAV69615xT2jNu3LgR1PkGyqcSNABERUX5PZcLFy4AgE8vmgRNEFCnoL1HDWRkZAR8rHe+dG5ubtXynjcCPVcH98bhcODcuXN+e8s8Dh48iLdvBwNua7Cs97p4PrJ+8uRJv2VMJpNs7hEeKSkposzQ0BDi4+NJ0ATBUaOglc7c3By6urpw69YtNDU1oa+vD4uLi1vdrE2Bz3Hd09ODyclJv1Omfvz4Ec+ePSNBEwQJmlAqJGhC9ZCgCaUSlKD5ygexsbF+979+/VrkTl696g243t27dyMsLCyYpqxJQ0OD3xyWJEk4ePAgBgYGNvX1OF1dXWCM4d69ewCAc+fOgTEGk8kU0PFjY2MoLi4W/w/2eCJ4SNCEUglK0J7Je3/jDz3X3Vpp2Rp/REREYOeOXcE0ZU34kznx8fHIyclBTk4OMjIyEBsbC8aWJmb5FEu4c0HfvXsXwNIyNmFhYTCbzQEd7/1lFezxRPCQoAmlsm5B19bW+uz3HMenFEHfuXPHZ9+ZM2fAGEN1dfWmvibgK+hgiYiI2PRfE8TqkKAJpRK0oKOioqDRaJCQkCDbx9Mb/KkgLmiHw4FLly7JJkWJjo6WpRi8BX379m3s3LELp06dEttaW1sREREBxpbW68rOzobdvvIjoasJmj92yZduT05ORk5ODhISEiBJknjdoaEhxMXFQZIkaDQaJCUlYXJyUlbX48ePxdCZ8PBwscaaZw96545dsh5wSUkJwsPDIUkSEhMTcf/+fQDAoUOHxDXiT1N5H2+1WnH+/HkxrCc0NBQ3b94Udb948QI7d+xCW1ubmFdWr9fjypUrcLvdolxpaamoQ6/XIzMz85NMPvMlQIImlErQgo6OjkZ6ejoYYzLpnD9/HhqNBmVlZTJB5+bmCikXFBSIFANfFBGQC5rLMywsTKRR+EQjGo0GWVlZSElJAWO+C1B6spqg09LSwNjy8+5hYWFCjCEhIUhLS8Po6KhYWiclJQXZ2dlgbOkRTH7eg4ODkCQJOp0OFy5ckD2yygXNz58PEeKrHOt0OmRnZ4tfHUNDQ7h+/To0Gg00Gg1yc3MxPjbuc/zBgwfBGENcXBwuXbqE8PBwMMZQWFgIAGhraxNtMBgMOHXqlBhE39zcDABoamoCYwx79nyPwsJC8QUTzFjY7QQJmlAq6xJ0R0eHj/wMBgPS0tJw7do1IWi32w29Xo+QkBDZYpB8IPbs7CyAZUF3dnaK3uP8/DyApTljuWD4NgDIyMgAYwzd3d1+28oFfeTIEVRWVqKyshKlpaVishVJkjAzMwNgWdDPnz8Xr5mamgrGGNrb20WdXGwlJSUAgMTERDAmX/KHPzXlT9DT09MiL86vB5+d69ChQ+JaeKY4PI9/+fKlrCywtGwQ7wnPzs4KQcfFxYkyAwMDYIyJXwanT58GY8tPgLndbiQkJAT1NNl2ggRNKJV1CdrpdEKj0eDAgQMAlgXQ0dEhEzTH4XDAZDLh1ateVFdXi1TF2NgYgCUpSZIkeqxTU1Pi2MnJSZE+aG1tFcF7oteuXfPbVu/p+zxj545dMrGHhYX5LJ3DpdfS0iJekwua99z1ej1iYmJkx/FfAP4E/fDhQzDGREqDwydM4ddiJUHzJef5FwmHf1l1dHQIQd/87Tex3+VygbGlCVqA5Ud19Xo9CgoK0Nsb+Iib7QgJmlAq6xI0ABw/fhySJMFms4n0htPp9BH0q1e9QsieQ928Be25/+LFi+I1X7x4saJoGWPIysry21Yu6OLiYvT29qK3txdv3w76HQ0RFhbmc5NytdfcuWOXWPDy8OHDsuP4l5U/QfNrs9oQxNUEzdMs3ot0Njc3gzGGmpoaIWjvLwFJksQjpS6XC1lZWbJz0ul0ePTo0Yrt2s6QoAmlsm5Bt7e3CxHw9AYAmaBtNhs0Gg0kSUJhYSGePHmCxcVFZGZm+ghao9FgbGxMTJgyOLj0vP3g4CAYYzhw4AAmJiZ8YqXHP1fLQXsTFhbmM4mLRqOBVqv1+5o8NeDvZin/QvEn6NraWjDG8PjxY9kx/f39YnrF1QRdWloKxnznkuVjvp89eyYE3dLSIivjKWiO2WxGc3OzSOcwxmC1Wte8XtsNEjShVNYtaKfTCUmSsHv3bjC2vBKCp6B7enrAGEN2draow+l0ih4zX/bF8yYhP2b37t1wuVxwOByi1+2Zx66rq4Nerxc3vrzZqKCjo6PBGENfX5/YNjQ0BL1ej7y8PABL89hKkiR7iOTChQsrCpqfGx89AgAWiwWSJGHv3r0AlsZBey4l73n8gwdL8uWzX3H4ZDQmkykgQaenp8NgMMhGbfAbp5/qAR4lQ4ImlMq6BQ1A9Lx4egOQC9pqtUKSJOj1erS3t6Orq0uMQvDsCXoPs+MTc1dUVAAA8vLyxKiD27dv4+Zvv0GSpFVXX9iooB8/fizytBUVFbh7964YKsg/gLxMdHQ0njx5gsrKSnFuK43iiPrflINXr15Fe3u7kOuLFy8AADExMWCMoby8HJOTk7LjXS6XaENZWRmePXsm0h58wc1ABH3//n0wtjQz2IMHbaiuroZWq4VGo/E7cct2hwRNKJWgBc17esDyDbH09HSxraKiQpZnra6ulj3Asnv3biEyfoNv9+7dMkGbTCZotVpIkoTJyUk4HA4hKh5xcXGrPgzDf/Y3NjaueV5hYWGIiIjw2V5XVyd7OCciIgL19fWyMtXV1bK5YI8fPw7Glh/1Pnv2rOjdAks3BL2nHDx//ryo7/bt22J7bW2tz/FjY2NiqCL/ZZGWlia+ILmgW1tbZe2UJEmWL8/MzJSdW0hIiE/qRC2QoAml8tkmS/rw4cOGpwt0Op14//49LBbLJrUqMMbHxsWQvJUYGRkJ6kEPs9mMwcFBv8dYrVbMzMzIHizxd/y7d+821ON1uVx4+3ZQNnxRjZCgCaVCs9kRqocETSgVEjShekjQhFIhQROqhwRNKBUSNKF6SNCEUiFBE6qHBE0oFRI0oXpI0IRSIUETqocETSgVEjShetQgaL54w0rBZ3M0GAw+c7Z86tdtbGwEYwzv3r0DAPT19Ym52jcD7/qDgU9+5t3m0NBQVFZWwuFwBFVfsOdGgiZUjxoE3dTUhKtXr+Lq1atiJsOkpCSxjUvDYDCIaQM+1+s+f/4c8fHxYrUivV4vpsbdDLzrDwa+UlRiYiKuXr2K0tJSZGZmikndPOfVCYRgz40ETageNQjak97eXjDGUFVV5bMvGEGv9qRrsK/ryWoSC+Q1g2nXWmW5oL17vQsLC2JenNevXwf8esGeGwmaUD0k6GUMBgNiYmKQlJQESZKg1Wpx5swZ2ZQCLS0tQk46nQ55eXmymSaDfd329naEhoZidHRUrFIkSZKYH2d6ehrHjx8Xi2hIkoT09HQxt/vFixdx+PBhnD17VszhEx8fj4mJCZ/6OSUlJeIcEhIS0NbW5rfNKwkaAJ49e+bTi25ra8Pu3bvFnPfh4eHo6OgAgHWdGwmaUD0k6GX4xGZ79+5FVVUV9u/fLyvLJ+Pas+d73Lp1Sywh5zlhWrCve+fOHTFLZFtbGzQaDSIjI8WEY3wZudLSUty+fRsHDhwQMzoCy1Pl8sWRz58/L1Ip3vUDy+uCJiYmora2FtHR0ZAkCR8/fvRp82qCttlsYuI2YCm/zBhDTEwMGhoacOXKFfGF4XA41nVuJGhC9ZCglzEYDNDpdOLml8lkAmMMJ0+eBLC8PJ3nhGV8emC+xmiwr+stUM80gNPpRHp6ukyQdrsdjDGcOHECwLKg+fzyABAXFwe9Xu9Tv8vlgiRJOHbsmCg7PT2NmJgYn1WIgNUFDQAhISEwGAwAgAcP2nDo0CHZdbh06RIYY37z64GcGwmaUD0k6GUMBoPPKkEhISFi/VG+dmh0dLQI3ut+9uzZul53NUEDSyJrbGxEVlYW4uPjodVqwdjyGptpaWk+a4qeOHECWq3Wp/6hoSEwxtDQ0BDIpVpT0BqNBnv2fC/+//79e1y+fBmpqamypfx4eiXYcyNBE6qHBL2Mv5uEXNB8Hc6QkBBcvHjRJ9Y67/X2oPfs+V7MJX/69Gk0NDRAkiSZoLmMOZ7bPOt/9ao34HnigdUFPT42DsaY6I3z9A9fUPvatWs4ffr0ioIO5NxI0ITqIUEvs5qg+X7PFZSApUWLT548iampqXW9rj9B88Ul+DJxJSUlovzMzAwYY2K8djCCXlhY8LmxZzKZoNFoUFhY6NPmlQTtdrtFvvjp06cAgNjYWEiSJFuY+uTJk2CMYXh4OOhzs9vtJGiCIEEvs5ag+WpIiYmJ6Orqwp07dyBJEmJiYtb9ut6CDg0NhcFgwL179zA9PQ3GGOLj4zE0NITnz5+L1EFiYiKA4AQNQNzYLCgoQHd3t/g/X8TaE3/joM+cOSNGgHivUsQYQ3NzM0ZGRnD16lWR4uBD8YI9NxI0oXrUJmg+2mAlQXs/SRgaGoqDBw8CWFqFh9/44sPC9u/fLxvCFuzrej/px1evZ4xhenoapaWlIjfLb6DFxcVBo9HA7XavKWjv+ufn58VaoIwx7NyxC7W1tX7bvNKThGFhYaioqJD9khgdHRWLTfNRJXyNVt4DD/bcSNCE6lGboDcDl8uFkZER2O3+F23eKHa7XbZEntvtxsjISNCPVq+GxWLx22veKHNzc36H7HGCOTcSNKF6SNCEUiFBE6qHBE0oFRI0oXpI0IRSIUETqocETSgVEjShekjQhFIhQROqhwRNKBUSNKF6SNCEUiFBE6qHBE0oFRI0oXpI0IRSIUETqocETSgVEjShekjQhFIhQROqhwRNKBUSNKF6SNCEUiFBE6qHBE0oFRI0oXpI0IRSIUETqocETSgVEjShekjQhFIhQROqhwRNKBUSNKF6SNCEUiFBE6qHBE0oFRI0oXpI0IRSIUETqkctgna73RRfWJCgCdWz3QXNP+wulwsulwtOp5PiC4mgBN3a2oqysjKUlZWhurp61bKDg4OibFlZGRYXFzf0R0YQn4rtLGhPOXu202KxwGw2Uyg8ghJ0UlISGGMiRkdHVyybmpoqK6ukP1qC8GS7CprL2el0wmq1wmazweVybXWziCDYkKAvXLjgt5zJZJKVI0ETSmY7C9rlcsFqtcJsNm91c4h1sCFB63Q6uN1un3LV1dUkaOKLYbsKmqc1FhcXqef8hbIhQTPG0NnZ6VNuz57v1xR0T08PTp8+Db1eD0mSEBkZiZqaGp+6hoaGcOjQIeh0OjDGoNfrcezYMZ/0yvz8PHJycmAwGMAYg1arRVxcHJ4/f+5T5/v375GamoqQkBBZneNj4z5l29vbER0dDUmSoNPpcOzYMdz87TeEhYUhIiJCVtZms+HatWuIjY0V9R4+fBhTU1Oyck6nE5WVlQgLC4MkSZAkCREREaitraUP0hawHQXNe882mw3T09Nb3RxinaxL0Hq9HlqtFowxpKamysoMDw8LKUdHR/sVdHd3t4/AeWRnZ4tys7Oz0Gg0fstpNBqZpD1fyztaWlpEuY6ODkiS5LecTqfD3NycKNvQ0LBinTw4LpcLiYmJK7b1w4cPomxhYWFA5098HraroJ1OJywWCyYmJra6OcQ6WZegdTod8vLyhFQ881v5+flgjEGSJJSXl/sIemJiQghSo9GgvLwcNTU12Lljl0/ZtLQ0sa22thbDw8M4d+6c2JaRkQEAuH37ttiWmZmJkZER2bbQ0FDRvqioKLH9zp076O/vx5EjR8S20tJSAEu9Yf4lxBhDcXExHj58iIyMDL+Czs3NFdsSExPR3NyMn3/+WWxLSUkBAIyOjsq+wN68eYPOzk7o9XqxfXZ2dj3vJbFOtrugV7uZTyibdQlao9HIesp8yJ3b7RapiOPHj+Pq1as+0vXMTzc0NIi6PXvVFy9eBADs3btXyN5kMgFYSg+cOnUKx48fx7Vr1wAAly5dEsc+efJE1FleXo7jx4/j5MmTYtuVK1dQVFSEO3fuiG2zs7Pi+MOHDwMA7t+/L7bl5eXJrkNCQoKPoPl5GwwGWdmYmBhR1uVy4dmzZ+L/+fn5otyDB204fvw4jh8/LuttE5+e7Sxos9lMf09fMOvOQQPLvdE9e74HADx58kTs7+7uRnFx8aq94tzcXBQUFIjg248cOQJgSaZ8m1arxalTp9DU1ASLxSJrV09Pj6xXe+jQIdy6dcsn98sxmUyorKxERkYGkpKSsH//fnFsUlISAMh6/wMDA7LjPYcQAsDHjx/F/8PCwmTn5Jl6GRsbg91ul6VYYmJiUFZWhjdv3gTzVhCbCAmaUCrrFrTb7UZtba34/8jICA4fPizrRXqmQfgfbURExJp53djYWABLed3Tp0/77JckCUVFRbK21dTU+K3r0KFDshRMX1/fijloT0F7piy8b7J4C7qtrW3Nc2KMoaenR7TBM33CIzw8HO/fvw/mLSE2ARI0oVTWLWie3+Kyy8zM9Mnj5uTk+Aiaj3BgjKGwsBAlJSU+cffuXdnrTk1NobKy0udGYFlZmayc2WxGY2MjDh48KCsXHx8PAHA4HAgNDRWSr6qqwuDgoOw8uKBLS0v9pk0AX0F7pmd2797t95xKSkpkPXqn04nOzk6cPn1adiNUo9HAZrMF87YQG4QETSiVDQkaAE6cOOHTE/z48SMA/4LOysrym4MGlgTKJWY2m5GZmYnMzEzZKAzP3DdPrVy+fBmZmZkoLy8X5SwWi5AxYwxWqxWvXvWK//MbjMBST91b0Pfu3VsxB52cnCwT9OLiovi/wWDwGRvueZOmqakJmZmZOHPmjBCxy+WSpX68vxCITwsJmlAqGxa095C5hIQEUd6foD3zxTqdDjU1NTCbzejv70dkZCQ0Gg3evh0EADGyQavVYmRkBIB/QXuOwmhvb4fb7YbJZEJYWJhM0O/fv5elE0ZHRzE2NiYTblxcHABgYWFBNtqks7MTi4uLPg/hcOLi4sS2EydOYGBgAHNzc6isrBS/MADI0kIXLlyA3W6H0+lEenq62O5vbDnx6SBBE0plw4IGIB74YIzh/v37Yrs/QQPyXrS//HJXVxcACLl5/vz3/H93dzcA4OXLl7K8sneOmadc3G43wsPDV80T63Q60c6SkpI188qc0dHRVXPbiYmJcDqdWFxcFA/T+Av+BUF8PkjQhFLZFEHzfK1Go5Ft9xT0u3fvZHXV1NSIoWk8oqKifEZMNDc3y1IVjC09KOM5TA5Y+pBFeYxx5qIuKCiQPZ03PjYuy4MztvSwze7du8X/PXPAZWVlMvGGhYXJ2uPJ5OSkz8Mqer0e58+fl7XBZDIhOTnZR+ipqan01NcWQIImlMqWzwe9sLCAd+/eycTuD4vFgjdv3qz5EIfT6cTg4CAmJib8zhPCWVxcxJs3b9a8ITc2Nga3242hoSHMzs7CZrMJser1+hXb8OHDB8zMzKxaN7DU8x4eHl7z/IlPBwmaUCpbLmglw38Z3Lp1C7OzsxgYGJDdzDt27NhWN5HYBEjQhFIhQa+Cd8rEOx/OR6sQXzYkaEKpkKBXwel0oqCgwOem3sGDBzE2NrbVzSM2CRI0oVRI0AGysLCA8bHxVfPaxJcJCZpQKiRoQvWQoAmlQoImVA8Jmthq7HY7ioqKxDBbPl0yCZpQPSRoYqupr68HY8sLcfPFQkjQhOohQW9P1rpfFMj9JH9lVjtuvfeoSNAEsQIk6C8fp9OJ0NBQhIaGorW1VUzpEBISgtbWVlFudnYW6enpYnoKjUaDY8eOwWq1AgCys7MRGhqKq1evYt++fWBsaQK0e/fuoampSRy3vLyYKgAAFh1JREFUd+9e2VJivb29Yi1WjUaD1NRU2fJ5VVVVCA0NxeDgoE/bOzo6xPTDer0eNTU1JGiC4JCglYXb7cbZs2fx7bff4ttvv8XZs2fX7Jk6HA7ZUFiDwSCbSoGvyMQnRpMkSbbM3s8//wxAPp2FRqPxmY7Cc2k6Pm/OyMiI7Bj+ujt37BLtvnXrFkJDQ/3+bYyPjePkyZNgjOHatWsYGhoiQRMEhwStLM6ePYtvvvkGX331Fb766it88803OHv27KrHeAqaL3HX398vtvX19cHpdIpl8PhzDHxudz5nvOfC2BaLBVNTU7K5cgDgxo0bYGxplk1gecrlsLAwOBwOzM/PC0l79t5Xg1IcBLECJGhlsW/fPvzlL38RYvzLX/6Cffv2rXqMp6D5fOpOp1Nse/r0KYCleeYrKyvx448/ylY1iomJAbAs6OTkZFE3L1NfXw9gaf1Q3gsHlleJ0uv1SEpKQlJSkhB0SUlJQOdMgiaIFSBBK4uN9qD50nIAZIJ2Op0ircFzz3xmS56u4IL2XNCD1/Hw4UMAy0vccUHzmTC1Wi2io6NlcePGjYDOmQRNECtAglYWG81Bv3z5Umz3FPSLFy/E/8fHxgEspzi8e9D+BP3o0SMAvoK+dOkSGFteQMTpdCInJwdlZWUB/y1wQfOFSUjQBPE/SNBfPoEIenZ2Vvw/Pj5etnZpeHg4gPUJ2jPXHR4ejqj/TbKm0WjEEn5NTU1ISkqSLX/nSXNzMxhjyM/Px+DgIAmaIDgk6C8fT0G/etUrtvNtz549AwCUl5eL3LMkSThz5owos7CwgAMHDqwo6MePHwMA2tvbZYIGltYw9VzxKTw8HB0dHWJ/cXExGGPo7+/32/6ZmRkxQiQtLY2eJCQIDglaXbhcLnz48EG2ytFmMTU1JRv/HAxutxvT09OyxTtI0ITqIUETSoUETageEjShVEjQhOohQRNKhQRNqB4SNKFUSNCE6iFBE0qFBE2oHhI0oVQ2LGi3271qEITSIUETSmXdguYCdrlccLlccDqdsuDbSdSE0iFBE0olaEF7itnpdMr+OD3DZrPBbrcLWZOoCaVCgiaUSlCC9hSzzWaDyWSC1Wpd8Y/WarXCZDLBZrPJRE0QSoIETSiVgAXN5Wy322GxWFYVsz9RWywW2O12kjShOEjQhFIJSNCecuY94vX8AZtMJpI0oThI0IRSWVPQmyFnHs+fP8eFCxdQVFSE4uJiFBcXo6SkZMW4fPkyqqqq0NHRgcXFxc9xPQgVQoImlEpAgnY6nbBYLDCbzRv+Q7579y4KCwuFpFcTtLes+/r6gj7Bzs5OnD59GgkJCcjJycH9+/fXdaGCZXFxEVeuXEFycjKSk5Nx7do1v3PB2u12PHz4EFlZWUhOTkZ1dTUmJydlZVwuF7KyslBTU/NZ2r4ZnDt3DqWlpZta5+zsLKqqqnDw4EHcuHED09PTm1IvCZrYLOx2O4qKisTfZlpamli7cD2sKmjee7bZbJidnd0UQc/MzCA/Px8XL14MqBftHcFI+vLly2J+Vs8VfFNTU2VT+m028/PzYm5YrVYr5nmVJAkvXrwQ5ZxOJ6I8Jvf2XDHY8zz52mpJSUmfrM2bjU6nQ1hY2KbVNzEx4XdlZc/ruV5I0MRm4b101ScXtNPphMlkwvT09Ib/iD170Z6pjmAEffny5YDSHWNjY2CMITQ0VCy5bjabxRI3DQ0N675oa3H69GkwxlBdXS22vXrVK+TCSUtLA2MMZWVlYtvAwAC0Wi20Wq34Fv4SBW21WuFwODatvoyMDDDG0NXVBQDo6uoCYwwpKSkbrpsEvb0I5P7Wp7oHtlFBe7drRUF75p7n5+cxNja2aYLu7++X9aKDEXRJSYlspYKVuHv3LhhjOH/+vGz70NAQNBqNbMWEiYkJFBcXIzo6GgcPHvSbBmlpaUFqaiqio6ORnZ2N+fn5FV87JCQEjDFYrVbZ9mPHjkGj0WBiYgImkwmMMcTGxvoc39jYCMYYKisrAaxf0D09PTh8+DD27Pke6enpaG5uRkpKivjAFhYWIicnR3ZMXV0dUlJSZG1f7foMDQ0hJSUFjY2NSE1NRWRkJJxOJ86cOYPi4mJZ3b29vfj555+xZ8/3OHbsGN68eSPbPzo6itLSUuzduxdZWVl49uyZ+IN9+fKlWHIIWPop6bmW3EYgQW8P7ty5Iz57/Fdza2ur2O90OpGXlwedTif2Nzc3A1hakSU6OhqhoaH48ccf4Xa78fHjR4SHhyM0NBSFhYUAloS7e/duv6/f0dEhVmvR6/WoqalBWloaNBoNcnNzodFoIEkS9u/fL5vUf2FhQbiBr23IV4VZU9A2mw0fP37E3Nzcpgl6ZmYGZ8+eXXeao6qqas03a2hoSKQYVvvAzM7Oip/MUVFRYrn0m7/9JspUVFSIujyXWPcWMCc5ORmMMeTm5q6YSnn69CkYY37zylzIx48fl/0/GEE/f/5cpFWSkpJkKR6+ZltERAQMBoPsON5T5b9S1ro+vCfLIzQ0FE6nEzqdTiyiCQDd3d2iTHR0tPg3XwLo48ePkCQJkiQhISFB/KEXFBT4Pb/a2tpV9wcDCVpZrGfR2JmZGfE3FRMTg/DwcPH379mb9Zcm4x2O1tZWse369euIi4sTn3veIUtLS0NkZKTfNoyPjePkyZNgjOHatWsYGhoSr6nX61FZWYmff/4ZjDEkJyeLc42IiIAkScjJyUFFRYVo2+jo6OqC5jcHx8fGNzR6w98fc05OzrpuFvI0RyCUlZWJC753717c/O03mM1mWRku0+7ubgBLP811Oh00Gg2cTqcQ/b59+4RsKysrwRjDL7/84vd1JyYmEBoaKnLLGRkZsnXSgGXpP3361G8dWq1WLGS5HkFzCfLXdbvdYpHMYAS91vXhgo6MjJR9YXkLWqvVQqPRYGFhAcCSFBlj+PHHHwEA58+fly3MabfbRarHm/7+fkiSBK1WK+rbCCRoZXH27Fl88803+Oqrr/DVV1/hm2++wdmzZ1c9pqqqSsi0ubkZi4uLKC8vR11dHSYnJzE+Ni5ccO/ePQBAXl6ebMFYYPnv3zNW+oz6w1+KgzEm+5vYvXs3QkJCACwvQFtSUiL2T09Pi3URAxL02NjYFyloABgZGcHhw4dFz0+SJFlumN/E6+/vF8GlNDo6ilu3boExhvLycrGfSyk1NXXF13W5XKiurhai5j3H2dlZAMtLtXuuQOyJwWAQ8gxW0G63G4wx6HQ62fYbN24ELei1rg+/Fp7XFJALenh4GIwxHDx4UFaPwWAQbayurgZjDAkJCXj+/LlsKgFPzGYzdDodJElCb6/8S2+9kKCVxbfffouvvvpKfG6++uorfPvtt6sew7/wPSMyMhLV1dVwu91ioVf+N5aUlITIyEixjWO322WfWe8U6Vr4E7Tn4rIAcPLkSWg0GgBAaWmpSLdER0eL4J3KgAQ9Ojq66SmO7OzsdQs6kBSHN1arFbdv3xY/H1paWmQ/i/zF8+fPxU8Wf7F3796AXntwcFDUw0c23LlzR/bzyhtJkhAfHw8geEHz5eX5zyhOsIIO5PoEImh+P2Cl4OeYk5Mjtmk0GmRlZfn84uFfmEVFRQFdi0AgQSuL9QgaWLoRn5ycLFtdm3/GHj16JP4fFRUlk2F0dDRsNhsAwGKxwGAwiLLB3vcJ5CbhqVOnhKALCwvBGMPp06dx8eJFWVRVVQXeg/7w4cOmCbqvr29Dgg7kJmFTUxOKiop8PuCevV+z2Sx+4nj27HhYLBYhjerqap/9IyMjPq87MzODoqIitLW1+ezj34yjo6MYGRkBY0t5am/ev38v+/YOVtC8fFRUlGy7P0F7jioB5IIO5PoEImj+My4tLc2njtevX8uOM5lMaGpqwo8//uj3S/DmzZsICwvD4OBgQNciEEjQymI9KY7W1lZkZmaiuLgYbrcb/f39Ig+dnJwMu90upNvZ2QkAePToEXJzc2Ujujzz1Dy8/7ZXgwuau2EtQfOOWnl5udhvtVqRnp6O6urqwG4STk1NYWRkZNMEXVtbi9zc3HXdJAx0mF1JSQkYW0rWe/LixQtZ7pP3qHnqAVj6Gc0FUFdXB8YYsrKyZPX09vb6vQHocDggSRI0Go3Pz/O9e/eCMYZ3794BgPipPj42Lit3+PBhMMbEF9F6ctC8F+D5BVVUVCQTNE9V8GGIAJCYmChLcax1fQIRNB/yuHPHLlmZkZERUe+JEydkPRlgKVfHGPO5jpsNCVpZrOcmYWdnp6zXe+zYMZHW5PLbv3+/SHMeOHBA7M/Ly/v/2zu/lzaWNo7/LXvjVS69yZXoRcCLVQkiWLCiDVJBjij+QBCqWFuD2Ea0UUIt2FZbkGJpG7S2jaHYU2pTa61w2qJmtalJ0xjT/DCJSfy+F747J9tEjdFDt+7zgQF3Mzs7ruGz6zMz+wAArFYra+PZs2dszEalUuHr168AAJPJdGhoc3Z2FhzHwWg0QhCEIwWdPKYzPj6O5eVldt7FxcXMptn5fD58+fKFvUvjpOGNq1ev4saNG1lNs8t0oYrT6WTTWtrb22E2mzE8PMyEI7YjCrigoABjY2Mwm80oLiqBWq1GOBxGPB5nU3daWlpgsVjQ39+fVv4i4udarRY3b97Eo0eP0NbWJglxANLBLjF0U1tbC47j0NfXx+qJgi4uKsHExERKSXejEJ+Wa2pqMDc3x2JdyYIWQw8NDQ2YmprCpUuXWB1R0Eddn0wEDYC1XVFxHlNTU7h37x5yc3Px119/Afj35tHQ0ACLxYKxsTFwHIeysjJJu69fv0Zzc7PkhnFSSNBng4mJCfbULJbe3l4kEgkA+9PZ6urqJGG0zs5OxONx+Hw+FhoRH4SS94kDiTqdLiWmnMz29jZzTFdXV1pB9/T0MEEDwOrqqqTfhYWFuH//PoAMF6oEg0E4HA44nc4Tf5GfPHmCvr4+DA0NHSu8kc1Sb4/Hg/r6enan5Lj9gbNfF6lMTk5K4lZarVYyR9flcrEpN+Idtb+//9C7+sOHDyVzMkXBezweST2bzSZpWywWi4XVEQV9UEl+AhZJJBKSmK5KpUJFxXmJoHd2dnD58mV2fdRqNSr/v7Ixuc3Drs9hgk4OsUQikZQR8rq6OnYjSCQS6O/vlwzmNjU1sf82RMTB1ZWVlQOv/XEhQZ8tgsEgNjc3D5ziGovF8O3bt/9sscre3h68Xu+xVysHAoGU/6YzXuq9tbWFf/75hO3t7ay/xG/fvsWVK1cwODiYUXjjNF+W5HK5jpyStbW1lRKzTiYajcLtdh/rvDs7O3A6nUf+sXZ3d+F0OvHhwwc2B3h4ePhY50pHLBaDy+VCIpFIiUGLiGGsozjq+mRCIpGAy+U69Hp8d30/9PPTDnmQoAm5kvHLkkTRLCwsZLXs2+v1YmFhAU6nEzs7O4jH4/TK0QPwer3Q6XR4+vTpqbZ7kKCVDgmakCvHet1oIBDAxsYGbDYbBEHIaG50NBqFIAiw2WzY2NhAIBDA7i69E/p3QIJODwmakCvHemF/NBqF3++Hw+HA0tISrFYr7HYBfr9fImuxnt0uwGq1YmlpCQ6Hg9UjOf8ePB4PFhYWThymOGuQoAm5cuyUV9FoFMFgEG63G2tra1hcXMSrV3/DYrFgZmYGMzMzsFgsePXqbywuLmJtbQ1utxvBYJDkTMgSEjQhV7JOGhuJROD3++HxeOBwOGC3C1hdXcXq6irsdgEOhwMejwd+vx+RSISSxhKyhQRNyJVjCRrY/8P/mt07HA4jFAohGAwiGAwiFAohHA6nZPMmORNyhARNyJVjC1okWdSirJOLuJ/ETMgdEjQhV7IWtIgo4IMKQcgdEjQhV04saIL40yFBE3KFBE0oHhI0IVdI0ITiIUETcoUETSgeEjQhV0jQhOIhQRNyhQRNKB4SNHGaeL1eGI1Gtq3RaNDW1pZVWyRoQvGQoInTpKOjQ5KwWaPRpOQHzRQSNKF4SNBEOrJdx0GCJohThAQtL7LJSQjsZ/VuaWlhCS+0Wq0kGWssFoPBYGCp8FpbW2E0GsHzvKTe9PQ0eJ5nqd5MJpMkgURxUQn0en3aPty6dYtlBeJ5Hna7AI1GA51Oh8bGRpbirq+vj6XiAva/g2I6LZVKhebmZni9XhI0QZCg5UU2Wb3D4TDLBVhQUMB+5jgOc3NzAIDe3l62T5S4WAwGA4B9OSenx0vObSii1WoPFPSnT59QWVkJlUqF6elp+P1+lsC5uroak5OTLHnt5OQkgP2YtUqlQkFBAe7evctSv/E8T4ImCBK0vMjPz0dOTg6TY05ODvLz8w89xuVywWQyQa/Xs/cBiYK9c+cOdnd3WXvXrl3D3t4eVlZWUgQtir2npwcAMD8/z+r8/Pkzo/6nC3Hk5eUhFosBAEKhEDiOQ3d3N4B/k0x//PiRHfPixQtwHEeCJggStLzIRtDAvqRv377NQgXi8SMjIxAEgW0vLy+zY4qLSpigI5EIq1NaWorGxkY0NDSkPe4w0gm6rq5OUqewsBBNTU0AgNraWnAch6qqKlbKyspI0AQBkKDlRjYhjvX1dSZljUaD69evs9DC6Ogovru+M9EuLCyw48Q6BoMBOzs7rA7P8xJhVlVVnUjQvw4SJgu6qqoKHMfBZDKlFBI0oXhI0PIim0HCkZERFn8GgHg8zsIVIyMjAPalyHEc2tvbEY1G8fLly5QQR3V1NTiOw9DQEADA6XRCr9djYmICgUAgo/53dnZCrVaz7aME3dXVBY7j8PnzZ/a5IAjo7OwkQRMECfrPZ25ujsm2q6sL586dS5Gv0WiUDAymGyQcHx9n+2pra9kTdmVlJZvJ0dzcjNHR0QP7otfrwXEczGYzfD7fkYIWY+FarRbPnz+HzWZDcVEJcnNzSdAEQYL+80kkEmhvb2dhjoKCArS1tbF4sljHYDBArVYjNzcXer0eFy9elDwxJxIJDAwMSGLYNTU1cLvd7Fwcx6XElJN5//49O35mZibtSkKe59Hc3My2rVarZGZJRcV5zM/Pk6AJggR9dgiHw/ju+p72s+7ubgwNDeHNmzdsnzhIKE55E9nb28Pm5iZ2d3ez6kcsFoPP5zv2YpcfP37A7/ezbRI0oXhI0MqgvLycPaHW19ejtLSUbdvtwu/uXlpI0ITiIUErA0EQ2CCgWHJzc/HgwYPf3bUDIUETiocErSxCoRAcDgd8Pt/v7sqRkKAJxUOCJuQKCZpQPCRoQq6QoAnFQ4Im5AoJmlA8JGhCrpCgCcVDgibkCgmaUDwkaEKukKAJxUOCJuQKCZpQPCRoQq6QoAnFQ4Im5AoJmlA8JGhCrpCgCcVDgiZOyrt379j7PU4TEjSheEjQxEmx2WwkaIL4LyBBny2O+w7m02grEolgfX0dGxsbp3oeEjSheEjQZ4OZmRmWd5DjOBQXlWBubo593tTUBJ7nMT09zfa1traC53mYzWYAgMlkAs/zGBgYAM/zUKlUuHDhAnieR0dHBzsuHo+jvLwcPM9jdnYWy8vL4HkeWq0WLpcLPM+D53lJnsHHjx+D53nodDrWxuDgIPLy8lh/Z2dnJb/T/wCbxFRzkapclAAAAABJRU5ErkJggg==;imageBorder=#000000;perimeterSpacing=0;labelBorderColor=none;" parent="1" vertex="1">
                    <mxGeometry x="492.12" y="389.42" width="195.76" height="185.58" as="geometry"/>
                </mxCell>
                <mxCell id="y_bkC_GhIzTOKFM2gDOU-22" value="" style="shape=image;verticalLabelPosition=bottom;labelBackgroundColor=#ffffff;verticalAlign=top;aspect=fixed;imageAspect=0;image=data:image/png,iVBORw0KGgoAAAANSUhEUgAAAZAAAAIYCAYAAABDtLrkAAABgGlDQ1BJQ0MgUHJvZmlsZQAAKJFjYGCqSCwoyGFhYGDIzSspCnJ3UoiIjFJgv8PAzcDDIMRgxSCemFxc4BgQ4MOAE3y7xsAIoi/rgsxqOqd2d+pGwehjat+yq+1cc3DrAwPulNTiZAYGRg4gOyWlODkXyAbp0UsuKCoBsucA2brlJQUg9hkgW6QI6EAg+wGInQ5hfwGxk8BsJg6wmpAgZyBbBsgWSIKwdUDsdAjbBsROzkhMAbJB/tKBuAEMuIJdFAzNDXx1HQk4nFSQm1MKswMUWjypeaHBQFoIiGUYghlcGBQYDBnMGQwYfBl0GYCWl6RWlIAUO+cXVBZlpmeUKDgCQzdVwTk/t6C0JLVIR8EzL1lPR8HIwNAApA4UbxDjPweBbWAUO48Qy5rMwGDxhoGBuQohlrKcgWGLPQODeDBCTH020EnvGRh2hBckFiXCHc/4jYUQvzjN2AjC5nFiYGC99///ZzUGBvZJDAx/J/7//3vR//9/FwPtv8PAcCAHALbUa30s2MP4AAAAVmVYSWZNTQAqAAAACAABh2kABAAAAAEAAAAaAAAAAAADkoYABwAAABIAAABEoAIABAAAAAEAAAGQoAMABAAAAAEAAAIYAAAAAEFTQ0lJAAAAU2NyZWVuc2hvdGm6I8YAAAHWaVRYdFhNTDpjb20uYWRvYmUueG1wAAAAAAA8eDp4bXBtZXRhIHhtbG5zOng9ImFkb2JlOm5zOm1ldGEvIiB4OnhtcHRrPSJYTVAgQ29yZSA2LjAuMCI+CiAgIDxyZGY6UkRGIHhtbG5zOnJkZj0iaHR0cDovL3d3dy53My5vcmcvMTk5OS8wMi8yMi1yZGYtc3ludGF4LW5zIyI+CiAgICAgIDxyZGY6RGVzY3JpcHRpb24gcmRmOmFib3V0PSIiCiAgICAgICAgICAgIHhtbG5zOmV4aWY9Imh0dHA6Ly9ucy5hZG9iZS5jb20vZXhpZi8xLjAvIj4KICAgICAgICAgPGV4aWY6UGl4ZWxZRGltZW5zaW9uPjUzNjwvZXhpZjpQaXhlbFlEaW1lbnNpb24+CiAgICAgICAgIDxleGlmOlBpeGVsWERpbWVuc2lvbj40MDA8L2V4aWY6UGl4ZWxYRGltZW5zaW9uPgogICAgICAgICA8ZXhpZjpVc2VyQ29tbWVudD5TY3JlZW5zaG90PC9leGlmOlVzZXJDb21tZW50PgogICAgICA8L3JkZjpEZXNjcmlwdGlvbj4KICAgPC9yZGY6UkRGPgo8L3g6eG1wbWV0YT4KIbVEwwAAQABJREFUeAHsXQVg1EgX/uqGF9fi7u4Oh9vB4e7u7u5wwB2HHc6Pu7u7H+6lQotLCxQq/3uzTZrdbrfbUmCBebDNZDLzZvJlMs8miVVQUFBIYGAgAgIC8OHDByReXwFovhfhaFmlcFlfJcPFFWhxSLAOuH8IAY9OICTwEz4+Pg/bV+5wdbEBrIDgRptgHT89gp/dgPW6hrqu2DkB7c6IdODVFbA9PlntYnC+VrAu0ku3v7gk8OGNeuybJIxhGknDnt7PULtlP9hYW+PYln9g72Cv1rhy7S7a9B4n9osWyIXZ43sjJDgYhau0QXBICNK7pcSa+WPxKeAT5i3fiv3HzuLNWz98/hxIv8+ijLWVFc7uWSx4DB7/D/YePi3S8eLGRrkSBdC4XiW4pUymtunn/wFl6nQS+1w3V/ZM+K18UfxetTRdE7ooTNR2gcqtRDKWizMqlSks0tdvP8Tte49E+q8J/VA4f3YUqNRS7OfNmQULpg3Euq2HMGnOUpE3e1wfFC2YEzWb9YO37zPY2dji1K6F4ljnAVNw9tJ1kV46ezhevHyL3iNmiv10aVIiT46MIn3w+Hm8fvMO2vN88fINKjfsIY7ny5UF86cOFGntn/1HzmHguL9EloO9PYoVzIW6dI7cH2Nk6jrdfeCBfqPmwPOJr6jKfVm7YBzcUic3xkrkFa3WTlyjPDkyY+H0QWq5PiNm48ipC2J/y9IpSJEsEeG1gnDbL/IGdG2B+jXLquU5MWPeaqzcsFvk2dnZoXC+7Jg5pqdemch2GnYYjnd+ftixcrpe0epN+yCWiwtWzxuN0rU7oWSRvBg7sL0o8+z5K1Rp3AvDerfB+JmLUbFMEfWY15NnqNWiH/gaF8ybDV0GTsWl/26JMenk6IgPHz9iZL92qF6xOCr/0QNZMqbFn2N7omTNjuKYXidop3aVMhjaq6VedicaI+4eT7BzVVifuX7+3FkwdUQ3k23+9e8GLFu7A0F0P/H1r0b9GNyjBZ6/fI0W3UbD99lL0VbypIkwbWR3nLpwHbMWrNZrX9k5v3cJqjXpjTR0H/09qZ/IXrRqG+Yu2YDFM4ehVc8xAgdlbC2ge3XBik3ivjR1vuVL5Ee3IdOwddlUJE+aUGlObJet2y36U7NyKQzv01o9xv1ITf3ImiENlq3bidM7F8HWluZTonZ9JuLp85fYsjRszhw97V9s3XNU9DNntvTh+Myl87FVcy0wYeV1Go7X1oi5Ka4NTVCxdCfLXQ30vQ57EiDWrjRZpCkCuNPkl6+5ehYhJFh+dOKbn6laxRJ6wsPwvLJnTieyrEjQxIrlgrfv/ISw4Myhkxfg4LFzhlXEPgsahdo3q4XT5/7DW39/Melu3HEI/CtVOC+mj9FNuLFcnFCnahls2nlY3OyXr90G/2YvWIMpw7ujUL6s8PJ5rrCEn/97wUPNCE088nwiBIiSnyZlUpGMHzeWkiX4885bP3+RlyBBHPVYxnSpVAHCmQ8ee6vHHrh7gn9a4vN8/cYP8TT8+Xj6NCm0xdR0hVIFkG5FSsEn4NMnHDpxXvxSpUiKRTShJ4gfVy3LCVPXyYcmG0V4cFmeDJMmJiUpGvTilU7pYSHEwoMpPwlfRYAYY1mySB6s3rRXTIasOJy/fNNYMZN5mTOkxq79pMjRhMpjTCEWEvlzZVV21THHGSdpLDGlI0Fpa2uLx14+Yp//XL1xT00vWbMTF67eRL8uTVG3Wmm8fu0nBI9aQJNwdnJA/HixseHf8WruwWMXoYx/NTM08f7DRzXrHY0jFkyJE8aHqTa9afzmyp4BZ3YtwoX/7mD5ul1iDNege/A13Vfzpw6Ci7MTdh44ib8Xb8Bwur+a168i2pkxpheK5M8m0o8e+9B1f6a2b2MTNncpmQld44nkzfuPVeXEI1TR4AOmztcjFE8rRXFTmNL2j5rlwMe37DqCUkXzokyxvJqjgJOzo9h39/QhRVN3D7CwdSJ8FVq6didd85Po0KIucmbVzS/KMe02bDRocy0kbUu9s7ezgp0tCQ/6ryUrj1O6XWs7mmHnA52v0t3UReSFBAbA2kunqWnr/EjpNzThHTt9UWjP3ds2MNn1+5oJ058mbSZnJyfSGt+rwoM1+HlTBuHktvk0IDKE4+eWKhkObpyDYb1agy0a1ryYjp65pFoOvD+kZ0tsXjIF9WuUB0+oTP7vP+DPUA0scSLdTcH5bMk0rvtbuF9+0vzNpTgkEJmev3itVrlx55Ga5kTSRAnU/WwkTA3bbFLvNzg76s5HLUgJJ8ewG0abzxrL2gVj8ffEAahctijixtEJNr4pV23UaftK+ciuU8nCuQmvSULwcp0bdx6QNXheqR6lbZzYzqI8C0Rul+neI31hKTI1f1i4sSbN1seIPm2xd+2fmqPmJUvTJMRtdh40DZ7evmCrijVW5ltaMzmdvXgN128/wCOajFjL5jazZnJDjizpcfvuI2Fhcv15yzarDStCsWThPPj48ROGTqR7mSgoKFhseeJ9/uIVPgd+RpECOeHt8ww7950SZSfOXoEhE+aSBRo2NkSl0D+swKzetI/uA38Mn7RQ5FYtVxSm2nxG46zXsBnYuvc48pElW6cKWddEn8hyn71wHboNng4WTGzpuSaIKyz6YtQv9hKw5fL02Wuypu4QPhPwz9KNom5Ef5IlcaUx6IhVZCFepjpHTl7CnoOh8xpViur5Ku04kKeC79PkSRPjgBHlsWKpgqLoqKmL6Ho+Exi9fK3vkdl14DSKF8qNdk1qhnkXlAY0W8uzQIIDqXusGVshJOiTpqv6Setb2/HWLgFiF+sMK3vdJMMlgt754M3Wvkjw7ome0AmhASgohAYmucQsneYsXi9u2pJkARhqzoZ9P33+Gu499CT3xiVxU/PxlMkTCTeIUjYVafn5c2cWg/+WwQTMZdhtkyF9StSqUkr8WBOr2byvqL7vyHlkzuBGFsUH8MD6vXppDOjWTBzjiYTdDw8eeYl9O1s7oaGxUPH3+0Cun1Kqu+b2PXcspIklQ9qUoqw5fzJnTCNcWDxZ9Rw2E9mzpMMVsnq0lCtbmEBkodnyjyqqlXCAJusr1++ZtOC0vDj93437Aid2s7FVxVSiRgd8JDfvqfNX0bVNPZHHf8y5TimTJ8Ggbs2FRsgT8cWrt4V7RmViZsItVXLS7ElRIuJ2OzSvjW17j5qs/Zi0TCZ219WoXMJk2YgOliN3SZtGtbB49VZyqQ4QxdgK4jw+ppAjCWR28TCxAjJ+cCfhIhk3uAMadxyhuidTpwhzi7ZrUgM7ybpRxlpWstDixI6FMdMXoWqFIjSJ5RIWb5ueE7CQ3Jy37j7CmBn/ih+3w4pM7lCXJe9riQXY9H9WYerclUIR+6N2ReTJmYncOEkibPPUzgXkAs2M0dMWYez0fwU7Vqj43unRrgH6jpqt9pVdtJOHdUNcsmyH9WmDMVSHXXNMfA7TR+ksd97XGgpsxTF+TH9P7IeJs5ehbZ/xIi9pkoR49uyVODake/MIz/dUqIVnbW2gWYuauj9x4rjg1et3mhzdlMjKYodmdcm1vVG4yLkvbBVbabR0dlm6uobdV3pMaEdp1fIECMUmPMfpzMDEsW1hw9aHEbIhl5bDlWXwObmY3FipYBM7IT773odNwFskYleXAbCBF5bjyREqS7ySxyerxYKJ4xbb9xwXPezTqWGkPWXTvGGHoXrlWjesLiZRxafMbp06rQbC+8lTVchoK6wiN8fVG3eFth0/bhz4PH2hHi5BNzHTS3KhcIxiOt2QiRLFRzBN6kq51Kl01giX69q6gSj3OSgQv7cdLCaTYNIoeV+5cbicOdSrfUMcOXFBCNPjZy6Df4bEPmCOU/DkylZCJfKb83lzXI8n7JTJkqB3x8hxVPievXxD+KiZB7sZ/ElwsvBgKpAnzGUTletkbWMNZ3J9sFb8ka6vITVoNxSPHuuEMPeZid2DhSq3EunGZEU1+70yWUC7xT67EfkXGfE1YsoQ6qqIrHxExzu1qoNOLWvjv5sPRBHh1tDOipRbvmRBwrkRHrp7Q+szT5ggHvaumSnqspvEUIE4snmusFxSkMbMyhK7yty9fMnzYCc06fZNa8GF3KccA+S4HrtAvUhzZteVKeUqEbXL1h+7zLJnTSv4cefZBWmqTY47seB95OGDIvmyqcoHC7MTW+fh+NmrwoWouH+YJ8drWLO/cv0+jT17vfM3jB21blgN/GN64O6F0QPag60RZydHjJiyEBeu6NyMps6XYyYcXzFF7Bo+df4/tYi2H+2a1SQrqhzuPHBHLvJIsPBXKDAwSFj8EVnoWj48n1ocpaQJnn/2EQgPpcMO5N5KFs8WiT97I/6Lq0hm/x6J49iSnza80OGyzNPShQef27+rd4rJNkeWDGRJJFFON8Ita0jaiZldOKxpMXHAkCdQJsVvqrieRGbon3QUD2AeHGh/5OGtTpgc81B48YDiSZUFAbsSFOERhwKpk4bp3IfMjs37bm3/EIFv3uc4Atdh4iCeIYXNQ2HXTTkfFg6LZgwFa62ODg7CbVamaJjWa09aJtPU4V2Fu0nhzUKVJ2Lmo9VQw9pirdD48E9OWiC7/JgHY6aY9xnSpkYPjTsxqtfJOlRv48C+IX38qBN2ivBQjvM+/1joJCL/fd9OTZRDYluWFjsoZMVxQgPiuEeMEYHHgkEIBy2QmgY4TqYVHuqh0LqGwkM5rhUGrKGzlqwQnzdPrgrxwg6ezE0JD6UsC24evyyMDMlUm6lp8i1VNI8qPJS6zI/ztcJDOcauI7ZYjZ6/Ushgu4GUgDa9xmHNlgPkIlsvYk3sztNSVM5XW69DszoinsmLL7TxIKUM41cob3Y94cELHJp2GUVrYULQlBSWyMjK4lZhRdbjH/W4uauw6MKVrNVJTF68SiOiwahdhTWoR0tUr1AM12ilU1Zy+WhvNgUuth6ekFWRLaObXiBUOc5b1vzuk/bIK5WYR/q0KSLk5eH1VExqKZIlNCnk2BXmQdokD1bWiLSajrZtU+ndB0+jUulC4JuXLZl6ZNUowlC7kkQ5h3vkTnv56i2SJE6ANCmSRHi+ptrkY3wzMWYcqHSjvrPPWyUzr5NanhLKijIOwk4f1ROZyGUYOzTGoy0XWZotH44DZaLgtrFrzdfxOV3DHQdOYc6itYIdC/QWDXTB3sj4R+d4h76TUIoC9k3MmHSiwz+qdWbOXwNewDBxSKeoVv2m5XmMTZqzXFhJfC056D0w1D0cEx3heNWK9XvQuVVdJNHECiPizasbN+48io4tauutwIyovBQgESET0/lmChBeKjiLgnWJXRPo+doNu2MoQOpVK2NY5KfZL/xba3EucePEJgvpneqC42WUW5dN+S7nae510nZuwqxl2LD9oJrFgoRdKTFN56/cQsd+E/XYsivHHGtWr5LckQhEgoDlxUAi6fDPfpj9xaP7t/vZTzNK52dNK3HYFaO4krgyr/DiNfjfi6JznQZ2bYq05Jq5eO2OzkIyQyOMzvkldI2LXNkywt7eTixb/aNWeSk8ogOkrBMpAtICiRSiGCpgpgVibmu8NHFbaKC9TPH84R4mMpfPj1COg3qXr98VcRc7eqYgXZrktCoszY/QddlHicBPjYC0QH7Qy8u+88b1Ig9y/aCnp9dtflq2AD1BDP5JkghIBCwGAePLUCyme7IjEgGJgERAImCpCEgBYqlXRvZLIiARkAhYOALmCxDbsAdNLPycLK97EjvLuyayRxIBicAXI2C+AElf+osb+2UZSOx+2UsvT1wi8DMjYH4QvbDuvUi4f4TeJaV7rcPPDEyMnBtbHiw8FOxihKlkIhGQCEgELAMBVYBYR/BaB71u8kQoJ0M9SOSOREAiIBH4VRHQc2EZe7f8rwqMPG+JgERAIiARMI2AECAsOPhnY80fPeEXsune4Gm6qjwqEZAISAQkAr8yAvSyUit6Yym9n55eVMc/JKc3Qd4y/SGUXxkwee4SAYmAREAioENAZ4HQ68+FBULvHPLP3go4u4CEyHoqIS0ROVAkAhIBiYBEwDgCVvTBGXr1ewh9QjJI/D7RtxtsfC/C5fpiwPsy1QoxXlPmSgQkAhIBicAvjYAVSw8i8QERRYjwm085zd9eCAoOEsd+aZTkyUsEJAISAYlAOATEMl52XzHxB+yZeJ8/hRkSrBMsnBfM3xKXJBGQCEgEJAISgVAEhAWioKFYIrzPwoOFBudJkghIBCQCEgGJgCECegKED2oFhjZtWFHuSwQkAhIBicCvjUA4AfJrwyHPXiIgEZAISATMRUDvSXRzK8lyEgGJgERAIiARkAJEjgGJgERAIiARiBYCUoBECzZZSSIgEZAISASkAJFjQCIgEZAISASihYAUINGCTVaSCEgEJAISASlA5BiQCEgEJAISgWghoH5QSqmtffZDm1aOy61EQCIgEZAISAQYAT0BwgJDERrySXQ5QCQCEgGJgETAFAKqAFGEh3iJIr0HS74LyxRs8phEQCIgEZAICAGiFR4sQOTbeOXAkAhIBCQCEoHIELA1FB7ieyCXriD20pX0Yakr/HKsyHjI4xIBiYBEQCLwCyKgflCKrQ4WHtYXL8OlS3+gC32ZsHZNfrf7LwiLPGWJgERAIiARiAwBIUD4w1GfAz/j48ePiNd7IFAwH1CnVmR15XGJgERAIiAR+IURsGYXFn/3g4UI/4Tbii0PSRIBiYBEQCIgETCBgHiQUI2D0OdrRcxDuq1MQCYPSQQkAhIBiQAjoPckOgsSSRIBiYBEQCIgETAHAfU5ELO+eT5zNnDgOPD+ozm8ZRljCDg7AuVLAD27GTsq8yQCEgGJwA+DgCpAIu0xC49t+yMtJgtEggALXwVHKUQiAUselghIBCwZAT0XlsmOsuUhKeYQkHjGHJaSk0RAIvBdEDBfgEi3VcxeIIlnzOIpuUkEJALfHAHzBcg375psUCIgEZAISAQsGQEpQCz56si+SQQkAhIBC0ZAChALvjiyaxIBiYBEwJIRkALEkq+O7JtEQCIgEbBgBMxfxmvBJyG7JhH42RE4f+0WHnh6Ia6LCyqXLPKzn648vx8EgW8jQFycgI4t9CEJpqfeX70G9h8BPH3CjvVsD9hEYBjdfwhs3gNULg3kyEr13wD//i+srjYVGR9+XUs6N20N/fTzl8DStfTAnxn90a8p9yQCUULAw+cpdh09hacvXtG3eAIxqENzODrY6/GYtWwtbty7T/kOZgmQSQuW4/2HABTOnR1VSxcVvCbMWwb+3k/ihAlQPG9OZM+YTq8NuSMRiCoC30aAJEkItG5pvG8d2wIjxwG7DwOucYF2rY2X49zzF0IFSAUSIhWBZ8+MCxBz+LAAyU9vHY6IPD2B7SSszOlPRDy+cr7Psxeo3qE3yVtrnFizELY2Nl+5Rck+OgiYuk5Xb99H60Gj9dh2a1Y/nADRK2DGzsY9BxFEXxZ9+eatKkA27T1IL04lxY1o/uqNmNivGyoULWAGt/BF5q/dAi8fuv9CyTV+XBJW2VA4V3Yly+TW0/cZFqzZgv5tm8DFmRRMSV8NgUNnLmLjnkMY0rkV5q3ehPqVyyKbEeVh68HjeEFKvTXNJ/xaqxZ1qtLXPGieNEHfRoBoOhDk5Y0gX1/YJk8O66RJgNixgSnjgWt1gQ8f1JLBL16KcmoGJ27dgR1tgujkeKrk77abPj0gIj7iOydOuoFrmyE9rOxJ4yO+n2/e4pYQ8tgDWh0wIj7cn+9F0xfrrK9KJYpK4fG9LoIZ7Zq6TtsOHlM5tKpXE0Xz5ECCuHRPGFC5IvkRh9xXCROQkhVNWjh+GC5ev4W5q9YL4bJl/9FoC5A1O/binZ8/Yjk7C6H0nu7dZZu2I1/2rPh7ZL9Ix6OHtw92HD6GTo3qmBQgPJGVbNwBI7q1Q8ViBaN55r9utUs376DfpD9RpVRxGj/O2HbwKDKmSWVUgBw8dR6PPL3RrUUDDJ02Fxv3HsLWf6aaBO+bC5CAGbPwafsBBNPMb9+uKWL17kGvdCSX1R+1gSVh7qiAufPwceVGvc47WVnDLhKJqFeBdiLiQy+uRwC9xp4p1qJZsCtWFEHuj+FXr7nIsyfRZJ8ovkjzn4j4RLU/KsMvTLx7/wGHz5wXXHq0+CNCbnwDRqZFxFQZ7oQ5vGKyXBB9gsAmIpenASrm9k2pZqq8qWNKfd5Gdp3YbcXEwqFLk3oibexPy7rVwL8voVyZ04N/O4+cxAMPT7x4TS7gL6AMbmmwatoowYHxGDd3CTbvP4y/V65H9+YRj8moNMl8PwYE4O07v6hUk2VDEdh99DSSJkqIMeyKJzr+vwWwtzM97ZcvUgDJJgxF8/4j8ZaUhDixXEK5hd+Y5hS+/BfnOJGwcA51tQT9bxPAAoQoJEtmPWvCqXxZOLm66re3ead+vET/qNE9U3ycrXQuH3qJvSC2ZuJbG3cDmeITWv2bbv5asV5ofkVy50JCch8w3XnkgY7DJ4p04xqVsX73QTx/9UpoiUM6t9bT4HqOm4mLN26Jj4ixW8POxhbF8uVGr9aNkDJJIsGD/8yla7T/5Fl4eD8R7bEPvmieXJgyoKta5jXd3DOXrMbpy9dEe9Yk5GPRhNi8dlW9Se85xaz6TpqF2w/cxQfMFF48uBWff/thE3HP3QNZ06dFYFAgLpHGzAKw3m8VhLtDaZTjBp1GTILPs+dwIOuxYfXK2EQaE1M7UkYaVSMXJ9GVW3cx7M958CV3H7t0eKJuXPM3tK2v/82bxn1GCF75SYN2sLfDIRLOAfSFzrixY2HL31PofJxx4+4DLFi3DZcIN7/374Xr0DV+PIzu0QEFcmQR7Rn+MXadtGUUl5I9W8BGqF63QRTqe6seSUjtrf1znLrPCca/4/BJeEBWsw1dx6a1qugdN9xxdqIXehIFUjwkpoiv0VBykew4fALryV2iCJA1u/ZjHo0hf8IrSUJXjOrRHnmzZgrXbETlqrbrLcpOX7yKPA/BaPBbeURU1pBpk74jkIq8HNfu3sfT5y/IeouPqQO6I1uGtKLoWBJ4B0+dE31LnjgRurdsiLKF8oljE+cvx95jp8R15gl4+uCeyJA6JdjlOGnBMtx96A47OztUL1tSxKy4Eo+1ITP+wTPynvB4aVWvBprSWGMq17wLlS0u8PHzJywSuWLh2CFI7BpfKBl9JvyJ/27fQ3yyPgvkyCb6vHGO7l6O6Hy5L93HTKWxXwkrtuwS2PLkr6Xb1M9UycjTE0o1O/ZFv3bNxFzA80X/SbPhS/1NSnEx4ZUJLZclXRqRuvXwMQrlpHhzBESq//cjG3qdR7CPr64D8cO0fZFRlFaadCKpqf1lyRD1zloan6ifQbgafONv4cUHRH3aNFKPv//wkTQGP/H7538bxGTOB3myGzR1DnjSVej4hUsUZP0ghAJP+J9psj5y7gLaDx2vFMGyzbuwaN1muJPbkYljLawNnr7yn1qGE/0nz8H2Q8dEe1yGiftx6nJYOe5brU59ce3OPSE8uAzzOnTmHBr2HMq7gh6Ta4PrnqE2Lly7KfrHE//anXupv/QiSiLWSpv0GS4mfN7niX7pxm3qufMNzHSBhE+bwWPhTf525sH01t8fjA1PHlrypHHI7XJ/dh87KXjy8Tc0OftRu4x5x5GTcez8RYGnna2d4PmU2rp576GWlZqO6DqpBSjxjvpjilhAKteUt95Pw+IOSr1WA8eQ0H0ssOIviy7esFU9X6WMsS1/gTSmKTNNPDyu2DLcd/IcplAwP0taN3JBtYczuYw70PhiRUJLpsr1bdtUFC1ftBCK5c1lNk+u5PHEl5SfMyhZIA+GdmlLylIAOpCCxddlM7nvNu87hKplimPKwJ6wJqV21KwFoi0eN+t370d7cq+x4vWe6g0mlw5T/8mz8YH2pw7qRW6hYtiw5wAu37wrzqndkHHge2lQx1ZCGZtJHpXtJFCZ+Nqt3r4Xv5MixMqQz9PnmBa6AKgzjasrN2+jTYNayJM1M1mIx+H5xEfUM4UNC2W+txev30qxpxzInFY36YuKoX/ekbCKGyuWmvXyzRsSprr7g+/1F7TfgixbXljhEdomF+Y4CJ/Lq0is1G9ugahnEpqwDj254LfvRFxDOR547z6CHjxQdsXWjvxzUZV4lsZH74SiubNk004xCWdO54a0KZMb5cIWRb/2zXHy4lXV1TV31UaM791RlC+aNzda0cDJlz2z2B/792LhfuAJkYO+SUlDWkvaI5OToyOOrZon0o88n2ATuSm0dPH6TbHL/u/5YwaK9NHzV+DlGyawWKPjiZ6pe/OGqFm+JKYuXCkma0+KifGNYujj7t2qidCOVm7dJeodPH1BaHFbDhwTkxRnpkudCp0b18PYv//F67dvRTnlz4jQCYGF2p/D+iAlaaPdx0zDY7KmttI5sOsvtpEAbtYM6dC5UV1h2azatldsj1+4qrbJ/W9euwqCSSj9b/s+pE+TQmlSbxvZdWJBePfRY1Enucbq0zJZ8+d4BNLKrL40cT2iZbyG9JDuCeXGZ+uqd+smWEgBbsY0IkqdLKkQ5CycPgZ8Uq2/iMpHJT83KXmsJPC1nrtqg7D4Zg/vI1gUy5cTFVp0wcZ9h5FTE8Q1Va7t7zVEXebLljFfPz5PYzzb0wRsSBnSpMYA0riZ2JrsM2GGmPDTpUqB/nR//F6prFCs+D5iRekTCeB7jz1FeVY8mpEVnS97Fjykcc/ESg8LIDtymw6mlaXFC+QW2vvCdVuFAJ8/ZhASkaVTo2wJnCGLnL0A1UlIMdWqUEbEfDh9/r8buE9uRFaKbt57gLYN6kA5V1+ylv67fZeLmYVh16YNqJ9VRHntHx67LIha1a2uzRbpe4+9hPCZ1L8bFKuFY01ackuZAn9RvCw9xUwypDY+xr+vAMmbjQIQOv9aiJf+zRG4ei0+ryQXl4bsQ7VbTVakSUvjE2mHzSiwbNMOUap3qzDrw7BagZzZULdiadSmibpI/dZicCs3BpetUKwAJi9cgWcvX4pJRHzOOJTJI5pgWYDkypRBaPkfSFOt0LIbyhbOjyY1K6NXS/12E5L1yK4yFiR1uw5ExeKFyY3yG0rRzaXQZdKwmFirYc1QuHZCrQLOP3f1hp4AYfdW4xqVhHtGESDsImA3AG8VGtm1jXBJePvWwPTFK5VsYaXwBMnEAvDAyfOhaQexZdfRdXJtFMmdQ+wrf7js8skjlF1VwObXuKjmLF9D1tolVC1VVPQxohiTqevUrN9I3CH3gmIZVSpRSG1Tm1Dcic7UL2PEbgyFmtepJvBJltgVHYZNULLDbauUKoLdR0+IMVGqcXukSp4MC8cNQfw4scKVjWqGu5evsDTYTfbs5SvS1j+icP1WemyEBqwRICbL6dWkhZemeBqU5V12OymUNdQtw4pN7iwZsWrLHkyev0wcZjeoQn9UqSDGy6pte8C/OKTkKnHG0T07Ysj0v9GNXEc8lrNlTI95YwaQgNHNX7wqUkuOjmF802kmYXZxvSRLjCdyptwUm1KoMC2kUASIyfMNxbC8kcUFy8l78Oey1ahRrpQYEwpvZbvz8HGRLF0wr5KFLKSQPguNyXHmmpljUYNcXk16D8WZ9YvVctrENxcgVqnogmbPCLAftGM7tS/BO/eoaU440Moox8J59PJokTxIfVDzrNh6KZhL3RcJCvqQjabmmcNHLWwiEVN8TDRh1qEtB44KTZh9tvlJM4qIsmdKJw6xKcrxCOEGCQ1E7jxyCmP+WhRRVXKrfBDH2lMs4TS5odjtw9r9JjL5+VeyQD7MGNxDrd+Vlp2OmbNQTIas3bPbawm5UTo1/l2NgfByUiaeuJmHIXn7hl0zPpYgXhxRJB5pjQqxxs70/CU9PxRKWdO7iVSOTGE3IGd4acYAm/nG2nQnd5mhAGHt0RixpVK7Ylnh9uBzYJcD//5ctgZTB/YI5yeO7Drd5GeaQoldO+Yuf1XqKFv2XyuUOyvdV0R5stC9ZYIyuKUifOMJoc/nwpq3P7mdvlSAsG//DI2XrKETm7Ojg/Dpr58dJswOnbqA7HSteBWWQqbKKWWUbVTKch12QSp08pLOpZqWNOuRsxfiCT0GsIAEZx4SJitJULDLiek6xbp6NG+ADG4pcfTcFfy1fB0m0jM0rEB9Istq77+zhGW8le7FZRSXnbd6C+LFjiMEyuEV/8DWzkbwuXTjDhw1gsnYYo/ECeKJsrcoLliUns1hYgVLIVPnq2DIgsyQ6lcpD3fiw5Z2qUJ51diOUs7J0UkkH3n5qNaFu9cTaBWVzqOm4D0t1plIVkpEZB3Rga+W360zsHY5MGoYQKY008ftO2F38qJek1YNG9CqrPn6v+UGkx5J8XBl5kyPOh+9GsZ3zOqP8aoxmsvruJm6NPndJN/77jrNhguxr5RJCZ5yQFIhNuMPLvsbHRrWU7LUrVvKZDiw7C8KjrYRgXNFS+M4wK37j9RybKIfWj4X7RvWRQ6yWnhAs2Y9738bhSXABV1CA7fsTmpCgUXDX73fyqr8IkskDL3puNxVCjwyXbqhs3DEDv1J7Kq7MXk/Xpw44drj9o0JYHsKjEZEQzu1xOa5U4UfO1Xo2GV/Py8gMKTIrtP+pX+JYCZjxTz+WrnBkIVZ+/E0VsNDD29R52FozCoiBmt3HhDCg493bFQPOxfM1Fs4EVE9w3w/UizYVXnk3GXS1PeiSrtepCAEYzjFDZiK0GILdgPtPHyK4g+fMGneCgoyz9VTACIrp1h3bDWwy9BcnqID9Ofs1WtCILDr9V+KFXDsKlsGN1KS3iM2KaBZSetmRWLJRp1VHxQYjL0nzqA9WXC37rsLqzhPtkzUdpBY7TeMguS82iwxKRqNaKEKj2e2sn4rXUQoR1MWrcSngM/YfvAEutEEzG5XU8SWPlu9LMB4ye3hs5dE8F6pE9XzVerxohQerymSJMbBUOtbOcZbxV08ihQ/fibnfzv20TND+rGpixSD7NmqcTjho+XzbSwQ8hmGo8AgfL5zB5+OHEPIrIVwZPcUDTK6UrplveEqUPCUpL+Qtcb4hZYPpjLW5vIJrWNFPmamELZwtBRFPtqqXyN9guIZHKNgkzqy11lwoJtdVjwgFTcJDyamwEDd+fLgr1+5nMjbRzeNIXFcImOalKhdoZT4eZNWX7Ojzp+9j9aMZ0nvJqrwKpFqpYqBfdD845txzgpyQVJg/iYJGl71ko5cCbxslPuSjVZYVSpRWKyu4kH7Ny3XThFBDMCwT7zP7iRez840bOY8NCX/7yKaHLRkTxMFa/Y8OfvTZFG7Qmk1XnSbVpYsXLtVz72hrWsszctxdx09KXzmA9s3E0XaDZ0gVmQ9DPWZK/XMuU5sWbGrZDVNvB4UwGd3VnQos1tqtdpqmgTK0YOBcw2Wv6sFQhNXQ/3r/AyH4Wo0w7IR7VvRknoO6Pcer1PYeCzxNe5FEw4rHkyDOzXHzQePKD61SPw4j4PIechSOhVqDfDKH1PluE468lqwpm9nZx9pWS6vJQdyhbYYMEpksQI0vk9n8YxK16b1MXDKbJRo1E4cK1O4AI6evYB63QZi1fQxtCjkuFiAwQLehlZmtvuDnleh8dSEVrjx8y680IKJV2h1JWWOH4asXaGMiCMqY5NjlN2bkSJshHgeI9aC/hrRHxPJlaYE4ZMmTohnz1+JY6aw0WKo4xT+LwvJV2/e6R1goczXiBU+fqC0Ni1u4fPkc1H6xBX4Xk2S0LhFrjD8NgLEnQJ9WfIrbapbBxIHLnRxYrHwYCLXiVfWguIZEV2G/l87Kp+UgsPvaXne6z5D9Q+G7jlRmYRUxhw+CoO3NCm+CwmCM90UrtplvGb2R+Hztbd/Ll0jmmgdGlg01R5rRQ17DtEr0vr36mI/E63W4HgFD5Df2vTABwqk8kRrSP+jVSNX6eFNDj6yFs/BPYVK5M+lJDGL+jWN4im8TJJvUu/Q4Dlre0qQfyBZOvXp5mSXCWuhw2lpLS+D5KAkU3l+IppcK+YQWzys9bNbjScxxY9tWJdda3yMBVn97oNE3zjWw/t8w0SFXpLwY14zFq1CIrqpgukhViXGkiqFbsJU+EXlOnFgnwXIp1AlRuHBW154sJFW+TAxbkyMV6F6LUU6I13HlVNHCYWCXZT8bAcHqSOjgE86RSkxLauNLu1fMjvSqg404a8lP/ojco14kZabjRYnKG4ydtec37hU5RFROS7Ay5b5eRnXeHGFFWCqrMowNFG+aEFaWNAYbJ3xMzAKlS2cDyfXLBLxtOyZ0oL7ykqCP/1YuB8gC5FXVwWR5aG1VLs2/V0soDhH2nleEoQJ4sZVWIplzJ2b1CWlyZ0WbCRGmuQ6DwsX0J4r7y8aH3ZvPvDwoqXg7ZGcrBH2EowghfpC6MKUqGDIfA2J+6BdDantByt79WlZ9J1H7iLe6UQuR4X43WtMTg7GY29KudCZW9n9ettUNnYw/CWmid7F4EZOQZOOYTlln4UHU2wSOEqe4ZaFB5M5fERB+hMvlJ+e8Ag9GBU+Cr+vsWWXEU8QPEE3pnXfkRE/q6GdJNllo6y/H9uzg+pqYquAhQevPFJImVrT0coU5sF+ZPaTK5M9xwIUXlwnGcVjeIJj64hXBLFg4lVgQzq1IvNcNyh5IM8a3lcII67DZRR+LKASuSbgbFo+qGudFhGKfb0/mrHCfvW82bII85+D+A2qhmHCmioTPzPAK6a4L0y8MoiFBxMHjrWkYKVpQnuYbiQH0RbXZ7eMIjx4RdDkvmGTdlSvE8eomN6TwDckxodxVYSHclzJU5Y1zxzSW7hmlOP56T1xbBEwKeelHOOtNi6gzf9aaTcSsMXz5VKFR0TtmCrHz0toYwimyhry5/iVVngox5kfr0LkSZqJy4nnIUILsKWkFR6h2eLBOl65pBUeyjHO43PVCg/lWETbjXsPoy0tN1+76wBmUbxlFy3jLZE/j17xqJyvtmIHWorMilafCbPoPg8/xligc/xNuU+5LlvQvFyZ7ytjuGn5W9HL1ULYpRFAg/UDTSSJy9YEDmzRltGly9cKnydzvgwBYzhHwFFxl/BDYj1bNDRaijWmtkPGimODaS161dLF6AV8D2l1RRo1/qGtyEsWr999KPzAyoN82uOcZr/zA1oq+pzekeNMgTdezqfEUrRleW08LynlyYkfrkuXKnmEr7PgB9/uuXvSE7F2SJ08idD4tLzMSbPvnQe3EmTn5zp4XT/TuF6dwrn42P32mIRbfLKkUtODVdobxpz2lDLscnvs/ZS8rQHCv5yKNE0tmXOdtOVHzVmkuuO43zz5Kw+GastFluYFBvw8CluBPNkao1dv/UTMqD+92oIFuHbZtbHyP3oeP/PBz4AoD/NZ6vlwDGISWZu88orvrZIF8qoPJ8ZEn/mBwRVbdqMzvelAKyAj4s0uaB7n7LYztsxdW08KEC0a3zodBQHC7gxeKTO4Q4sIJz9DAVK3UplvfUbfrL0G9PAhP3nN8SC2LJRnTFjz3rdkjtASv1lnNA2Zc500xemhzGvoSsFWLe2mV+tER4hoeRhLs+tLa83wQ3oNq1Y0VlTmSQTMQkBn25tVVBb6nggogdvv2QdLatsh9H0+7PtXiGMu7DYz9e4epezX2kb1OvEy4umDe9PKm9N4Rs/SfKbFJbx082tQQXpa+RMtFIkfJzbK0JJU5TXvX6MtyfPXQEBaIN/zOkfBAjGnm/zis230SmamsvT21uS0muNnJhFvoOWZPCmyjzhrhjSqP/tnPm95bhIBS0FAWiCWciVioB+sefOT4r8K8TJiZSnxr3LO8jwlApaEgJGlLpbUPdkXiYBEQCIgEbBUBKQAsdQrI/slEZAISAQsHAHzBYiz6QdKLPw8La97Ek/LuyayRxIBiUCUEDBfgJQvESXGsnAkCEg8IwFIHpYISAQsHQHzg+g9Q9/IeIBW+dCHoCRFEwG2PFh4KHhGk42sJhGQCEgEvjcC6jLez/R+HP/3/hE/if69eyrblwhIBCQCEgGLQkDPhaW8Otmieig7IxGQCEgEJAIWiYAQICw4+MevLRbv8w1986dF9lh2SiIgEZAISAQsAgF6WacVvbGT3n1Kb6bkHwrlBjbrf1vBInoqOyERkAhIBCQCFoWAzgKhV2gLC8TGBv4tmgB/LQY20Rt5pSViURdLdkYiIBGQCFgSAlb0um56E3QI6LXu4sff/LW5dAUuS1fS9yCvSCFiSVdL9kUiIBGQCFgQAlYsPYjEt6sVIfKZXk7Haf56G3+Ri49LkghIBCQCEgGJgBYB8RwIu6+YbMiFxcT7/CGhEPpspyI8gkPoW+WSJAISAYmAREAiEIqAsEAUNBRLhPdZeLDQUASIUkZuJQISAYmAREAiwAjoCRDO0AoMbZqPSZIISAQkAhIBiYCCQDgBohyQW4mAREAiIBGQCJhCQO9JdFMF5TGJgERAIiARkAhoEZACRIuGTEsEJAISAYmA2QhIAWI2VLKgREAiIBGQCGgRkAJEi4ZMSwQkAhIBiYDZCEgBYjZUsqBEQCIgEZAIaBGQAkSLhkxLBCQCEgGJgNkIhPsiofbZD23abI6yoERAIiARkAj8EgjoCRAWGIrQkE+i/xLXX56kREAiIBGINgKqAFGEh3iJIr0HS74LK9qYyooSAYmAROCXQEAIEK3wYAEi38b7S1x7eZISAYmAROCLELA1FB78PZBbL62w9V4sXH1qDfki9y/CV1aWCEgEJAI/LQLqB6XY6mDhcfMFMPakCxrntEKFDPSlwp/21OWJSQQkAhIBicCXICCW8Srf/WD31dZ7TkJ4VJTC40twlXUlAhIBicBPj4A1u7D4ux/89UH+sduKLQ9JEgGJgERAIiARMIWAzgJRPmnLn6+l0lJ8mIJMHpMISAQkAhIBRkDvSXS2RiRJBCQCEgGJgETAHATU50DM+eb5ksshOOUZgoDP5rCWZRzsgKIprdAyj7Tp5GiQCEgEfj4EVAES2amx8Dj8UFookeGkPc6CVsFMChEtMjItEZAI/AwI6LmwTJ0QWx6SooeAxC56uMlaEgGJgGUjYLYAkW6r6F9IiV30sZM1JQISActFwGwBYrmnIHsmEZAISAQkAt8DASlAvgfqsk2JgERAIvATICAFyE9wEeUpSAQkAhKB74GAFCDfA3XZpkRAIiAR+AkQMHsZ709wrvIUYhCBK5eu4PHjx4gVKzbKli8Tg5wlK4mAROBHQcBiBUjWREDJ1NZIE48el6fn8Hz8gQMPgnHNNwzagimA7IkjNqIOPwpGGbeIjzOnQ8TT/U0YT5kyD4FFC/7F7du34eDoKAWIeZDJUhKBnw4BixQgTXJbo0E2neBQEM9BiQpprbHxFrD4YrDILpzCCpUzKCXCb98EWKFe1vD52hyP11YkQCz/GZcd23Zi1sxZSJUqNRYuma89hRhNDxowlL5GGYQKFcqjYuUKMcr7S5jt2b0PBw8chI2NDcZPHPslrMyu6+7+GKtXrcH9u/cR3zU+8ubNi2o1qiJ27Fhm8/jaBadNmUF9qoYsWTJ97aaixf/k8VO4fes2WrVtGa7++LETUbdeHWTJmjncsW+R4fnYA//731p069EFjqQIxQSZOt+Y4P+lPPg+evXyJRo2/uNLWYn6ptXzGGkiakxyJwUaZtcJD3o5MA7c8cfeW37gNFPdLECOJLp0SHDYO1XuP/sEw9+TV0Fqns/bIF0l+vvCPyz/hX+gmm/JiWVLl4vutWzd/Kt28+L587h88RIu0c8UFS9ZAvkKFECp0iVNFYuxY9wf7teFc+djjKcpRgf2HUSHNh1w5OBhWFtb496du1i86F+0bNoSL1+8MlVVHONPJNSsVhtHDx+NtGxUCpw5dUbw/eD/QVTbu3sPbly7HhUW4coa8gxX4Asyjh07jq1btgoOhu0cOXQYd+/c+QLuX1b10SN37N+7D+/9yb3xBdSlQzfMmDpTcNCe7xew/GpVj9P12L1zT4zxtzgLhD9kpdDI3S9wwZdeKEX04OVbdCwWR6TZ8rjmG2Y1vPkQjC5b3olj2j+2jnFx7L4uP2tiW8yoGVccXnT2PQ7e/yTSto5xYGVxYlR7FsDJE6fw+tUrxI0bFyVKldA/qNnjScuK/X0myJwyJqqrh/5oVB/8M4fMbdPccpG1+aV8Pn78iBnTZiBOnDj4Z8E/SEDWB9OeXXsxfep0/EuCpG//Pia7EUwvJg0gPu/e+ZksF9WDfn7+gm8gWYlMW3duga2t7h6JKi+lvCFPJT8mtn369QZ/Z4jpa7YTnb4WL1Fc4Ofg4BCd6mqdFy+eCwuVM7Tnqxb4iRMWJ0DSU8yD6bJXAC6/igcbB92EuP1+IC57+gB0Y74JZkEQZnLGcrBGi6Kuop7y55lfCPbdD4Gds+7mt3UMEzjW9o6U76IUtfjtwvmLRB+bNGui9vXBvYfo37e/2K9DboDt23aQZvwCLi4u6Nm7B0qVKSWOeXp4YvKkaXh4/wF9cTJA5Dk6OuG3qr+hNbkV+Ob57+p1jBo+UhxT/hw5dARnz5wVu7Xq1ESzFs1Eum3L9nj9OkwDT5DAFfP//Ueppm6v/3cDkydMxrNnz8h6DKJgeyzU/b0umjRrrJb5vbZOAHFfz527gKc+PiKmwpOzYtkM6DeIXEj38OG9TuPmyko9G1tbrFn/P5Xf0n+X4djR4/D09KBhEiJ4FShYAMNHDlXLmJNgtxV/oXP4qOGq8OB6latUwqVLl/VYbNm0FcvJOnzv/x6uiROh/4B+yJkrO5o20uH1z9/zhEuwRq0aar03b96iXat2KFy0CE6dOCnqZsicCeMmjCb3WGyxP3zYKNy+eYvOIxip06TBiNHD8Y7qzZz+p+DTvHFz/DV3Dnr17IMuXTuJ6/3q5WuMGD4K98lasrWzQ9HiRdFvQF9y+1mjT69+cHV1xT3C0sf7CZycnTBw6CDEJ6XEkOfly1fItbMGz3x94ezsjC7duqB8xXJq/zmxbcs2LPl3KZavWgZnF2cMHTycrIm7WLVmpWiP9x3s7ZGG+n7m9Fn06tMjXDvM5/jxk4TfCrx9+xZJkyXD9JnT9DDnMtHFK0mSxFwds/+cQ5bGARK0NgKns9SfseQGfUt4jhs9DgsWL8DGdRuF1e1C+F+la2xjZyvcay1btxA82IW8etVqMZ7jxYuHKlWroAV5A4YNGYFXpNxdpPE7bvR4cjGnEuf717zZot6cWX+T4rFH3HusAPbq2wtFixWhti5j7KixqFa9GrZs3opAGm85cuck9+w4gZ+orPnD1+g4jW0eZ4mTJkH7Du1QrETRSPnwPDF65Bg8f/4MCRMlonhyxNryzu27IrzuEY3ziLlpOv+tkgmcAQc7ncB49Ia2Vrr06HLWmPybPbqXTYru5ZKhZg4qqCG6P9CI3F7aXw3LdAlrem1e8tbN2/Dy9BSTYU3NJPT+w3vSbt+J37Ily4TwYI7+ZI6PGzMe3p7eooGHDx7RRHRTDGCrUDw/fvyAzRs3kZatm4zevXur8lJ6FRgUqOb5+DxVsuFLk4rSLm99fEmoG9CVy1fRu2dvcYyFB5Ofnx+4n8pkxXkKnx0k/Fh4MLHW/vfsv0Wa/3h7eoly3B+FlHpslSm0dvV6rFq5Ch4ej0WWjbWN4HWBbuyo0h2egG1skSMnDSqiIPKfssuIfz16dEPX7l1EPrun/p7zN9JnzIA+JPRcnJzRr3df4eLq3KWTKFOSXHwFChYUaeUPfzr6zZs32LdnLwnUpmjZphXu3LqFEUNHiSITSfDeunGDJqgWpNH2IYHoSZbPDCRPkRwVKpUXZdrRBOKayFVYps+e0Xeoibp26opHDx+iWctmaNSkIQ4fPITxNBaYfJ/4gF1G6dKnQ+v2bWg8fMa0SVPD8bSxsxGxtqxZs2DYiGFIkSIlpk2ehsBA3XUUzOhPzly5xDVl65iJJ1C+HldJ+LAFyPssPJ7QdfX29grXDved6QpN1mXKlSXloh58njzB3L/DKyPRxYv5L1u8HNu3bhcLPXiy3rdnH02mz+H3zh/vSGjxdWD+T0nR4UUhz3yfonuv7ohL1uf/Vv4PAQEBJDSeC0ySJE2KUWNGIlee3GKs8T32R8MGQsimJMFR5/e66vly2yuXryRBuxXZcmTDiFEjxAQ+igS8t9cT+NP9wPfEtq3b0L5jO8GTXbSHyWVqSLvI5bRrxy4S4hWEIsFjc+rkqaJYZHz60nhkAdfgjwaifS8vT0P2Yp+VD46xGrvupsa5RVkgSpyDz8hW44rJQYqEnUbUvf7Ak0lYBtsWJx6Eaahc3+st/3XgPz80/TN3vuh/nTq1I3RP8YDqQpPaubPnyd11QpRfSlrxoCEDaJJJSJNORTRp2phu4mSkWQcJ3z4PpFOhN3/BQgWwkLQwprakGTMVLFwIHWhgM8WLH2oWUnr+onk0mXzGqBFj4EHLeI3RVJqYmHgSHzthDJIlT44hg4YKQbh75260ownMhSwShbj/Q8lKWLX8f7hz57YY8HxjcJnps6bj44cPNLHMU+MfSl916oWOC9+oTGxdbdmxSaQ9KEi6Y/tukY7Kn+dPn8PewV6tcnD/QfWGVTL3HNiNJYuXCctq3ISxIrsA4digbgPs3LGTJvBGIi979mx0/kmVanpbnjTr1Ksl8h4/Zn/8fpEuW7YMqlWrgjz58hLGHohLGi9bkKzp58iRAzu37wQLJq3rhZdV88TIwq1KtaqCz+1bd0gbPqO2yddh6PDBYv85CZ3NGzeG4/nu7TthvT19+gzJUybH5KkTcZp4sBuKNXiF3NKmERPnyZOnqFwKYWUy9kdJS+aYESsOlatWFlYK14mo75Wr/IbOXTsKtmwZPHzwUGki3DaqeDEDnqAzZ84srHLe534sXrSYk+GIFay/5s0hXO2RMmVKoQTduX2PhGhyYYHX/+N3spTe4enTp0IYX79+Qyw04euQOGliZMuWRVhmCuPNG7eIsT9pygSRlTdvHtSuWUcIg8yhix4GDx+CggXzi8UZVStWo/F/N5y1l8YtjbiuVUkAPvH2RqrUqYSixFayQsb4pM+QXiiUw0YMVV3ftarVUarobT/QPcZWu7HrbmqcW5QAefORNNWAYLBLKkeSsME6ds9LxHUIQe9yoW4qOlEtvaUYyLhDVFlDVjb2oP8/NLGmcvP6dTERN9a4fgxPKne+PKhavQq5WCqjWuVqYiA8Cr0R05PGmSB+fAweMIQG/xsSIIH0+yRYBAToMLMjdwcPSi3FiR07XB4fVyZDZycnbXE1zdon32BMjk6O4KAikxNNLkw8SHliy1cgn9jnP1myZxVm/XPSAlmAMN0gy4tvrEQkAJk4HqGQYV85PytN1NwuW1cN6v6B4iWLox659jp21glBpa45W54M3N0fCc2T2y9ZugTSp08vqi5btly4nXjnxfMXoj3GXEussZpDrO0p5JY2rcCGBaetrS0mkRXC1iRPaux2iBU7TOAqdbTbO3fuid05s/4C/4xREnJ9KBQnTmzRnrKvbFnJaNioIdatWYeObTvC3t5BWD3GnvXJnTsPrl+7jsSJk5DbyRWZM2XGpQuXiG+wcMUpLiSFt7Gtm5ubmu0cywVvX79R9w0T0cHLn2JG6TKkU1mxWy8iAeJEY5qFB1PceLrx9pHukdg09i6TVb1i2QqBGQtKc4jbLly0sFrUycUJfK89I0GfGZlEfvp0YX1jl6xyT6qVKBGHcNmwbpN6XfmaGJIxPvtCFZLCRYuqxTNkyoAXoRarmkkJU9fd1Di3KAHCJ3Te6xPKpHOEW3xrDCY3/pZbwXgdEBsVM4QJFO2Jc9rR1gp53OIaZsODxiILpR+V5s/VWQXlK1VQB7axc8lCGhYT+7o51sAunrf0Y+I4BK+8MEZf4wuUPj6+alM8AbK2bEgeHp56AoS1PSb2ESsUEqSvJCj5EW2bNW8iLFfwyVwAAEAASURBVBR2C7BbgtvlH8cZRo8dGVE1o/nZsmXDOYr/HDpwCA0a1hdLPNNlSCvKPnr4SK3jRAIyHvV54VLddeIDx4+eQOYsuuuhFowgoY0lXb1yVQgLe9JmJ0+cgngJ4mPWX38iZaqU6N9noHBNRcBGZCeg8kyjx45SsfVw98QTcgspxEugIyO+ftlIoO/Ysx3//fcf1q3dIHCsWLmS0LC19StUKodTp07iNFkheUi7LlAgP1krp3D+7GcUKKTvttPW06ZtbcM8Cdp8Y+no4GVHcZjHj8IsZc/HnsZYizzFxWtYYO3qNfjvyhWylDoLRe01CbmmDZsaFgu3b2tvp7qS+SC7idhqKF68mFrWRmPVqZkGiamTp+MpuY6nzphGFmg2bNiwCQv+0XkmlKLG+Dg7O4rD7AJni5GJY6KKMicyQv+Yuu6mxrn5V0/b2ldMzzv9Gf6fdJNHUZpXJlawxp/V7FCCHiqMiDhuMqG8dbhftcwR14mIl6Xkc+CQb0Ye1G3btjbZrUfu7upxDrIxsTbFK4AU4cFuosnTJtOqk63k58yqlo/pRMJEoVYiMWaBUKceu2n0f7ny5IrpZoW1tH7TOvTs0wv5KXCuaGlnTp2mJbg67dzcRllo8GKEpRQk5iWPb169IWFyGN279hIuBIUPt8MxoP205JdXbs358y9MHD8RL2mdvTVdNyZvClhzDMUYrVq5WvDm5a0Xz+tiBuyaDQoMhBu5LVKkSIFTJ0/j2tX/VGvBjiYlJhbCWmL3GbsMFy9aCnZPXbt6Dez/5rhTZKTlydrp8KEjsHfPPmQnd1kVWmzB9JniBIZUpFhRMT6fPPFGyZIlyE1SXPSTF05UrlzRsDi07YQ7aEZGdPBiYX6LFiPw8w8cUP5zxp9mtKRf5NWr1yKDrQm+zpMmTBH7yuoyFswvX7wUwkFbM2u2rKJtHkM8BhbMXyjwYisoKsSr19gCzZQ5g3ADr6UFDkxK+xHxKlVat5BmGgkg9mZs2rBFxKmMlTd13U2Oc2PMvmeeH5zRdZ0vbj/VH7C+74Kw8bJOqw4kNwlTZEqqdtB/1tzDgZr09zxXU22zmc0WQqFChRE3fphmbqwOB4ofkma8asVq4XvmMsloRUvg50C1eArS8nPTxB1MwVBeLRMRKVrYLXr4KyBA/xpEVEebzyY6r9xhYhO+SrXKwo3ErqQKFcuRm8kXadO60dGokQv5rhXiCdeQONDHmlYV8rvzg4YLFodpaEePHDMsbnKfff1Tp08lt0wCsZy3we9/CMHg5eGBHr16qHW79+xGE70bZtKSX14ZtnvXblSvWVME33k5dZo0bli/dh1WLF2h1tEmeMEA8+YJmy3HkWNGkovDBtVr1cBZijv8VrEKxlCsqUDhgmKV0oRxk5CX4iKMca9uPcWEyPxYVsWNG0es8HlMykTLZi0xsP8gEYtgngpZQSfUeN+a+qdcay1PVjxYcPByZXbNjR4xWghkHjuGxDilI9ce8+GYmYgFJE4sFiDkzZ/XsLjRvocrFNbFcIeig9egIQORj1yhM+h8OnXohDihVq49f286lGxC460KHpytXa3E8UMe0y2atBDXmWNyvFqOl3qzRVGQrs/9e/fQu3tfhaXYDhjYn+7deKJc1UpVcWDffrRs3UovlsTXQUvaPij5rdq0pKC/H2pWrYU2FKPk68Pl2rRoqxQR11PdoQQfZ1cvr55kt3Cr5q0wb+4/5G6kgLJ+k6Ja9pzZIrzuJsc5SbGQQNJ4eLUBB1La7E+IJXXCa+4tN327WZd9qJ/9XiGWzUekTWgPnzeBePreCrbO8fD57VPaxoWtU1wEBfhRuZda3PTSdrETURzESeQxz4CXOq3NPl4yWNuEDSC9Sl9pxximETXFE3fdGnXBK48WL/1XBDMNy1777zr60BLOiIjNXV5OykEzjgsw8YoaXumirIziPA4Ga6lRgybqii7O54FYrUYNelq3My2H/Bs7tm0TxbXuL2XQp0+fgYKQs0UgUeuHZ2sgmIKwfD5cdvf+XYJH5fI67fa3qlXEMk8WAryCjGnMuLEoVKSASPMftgBYu1eI+fBNvnPfDpHVs3sfES/iWEncuPFoVc1TsQqLDypYKHWjsuWgIgews5A2yZO0MeInmr29fSlYmzGcsOd4SHyKQfFkqxDnsQuE3U1p0roJ7d4wrsNuSA8PL2QlDZqFEddxdHQUT8FznIn96IkTJ1JYqlu+j29cvylW7XFQ11wy5MmuDuFqzJ/PpPvUXP5KOcN2lHxT2y/Bix+ytLa1RR4SgFY0XnhpOq+E2rFnh941MdW+coxXRCZLmlRcY7YovL281Dgh9zEWPRrAcQ4t8fnySkh2v/FqLL6G0SFeBXfj+nVyj2YR14NjZf60tN3YGDDkzxb0gwcPKE6YNdL2TV13Y+Pc1rAxS9jnC20f2xUBpIHffEuTDt18DnF1Qs3GNbXaRRuHWPSciOngolKYeTpq6ir5lrhdQ88h8GSbmVxNvBImMmITk10gyqTOLiMWHkwjRg3DrD/nCNcLr7xiNwcLkoiW8w0ZNhiTxk8SAWIWNMwzIEAngHirtKHtk5LHCggTP/Pw4UMAuYCWiPNQnj/hYylT6gfrOY9kgY7UBOXZKJm6QxzEPXf2nHjOg/lxm0EhYUtL06RJLZa+8vME/FOoSrUqKhZKXlS2fINGdpOmJE2Pf8ZIWQRg7BjnJdUEtrVlWMPVCgAtHxYoEfWJrYC8tKgiqmTIk2Mv/ItpMmwnqvyjitedO3doOe0q1K5bBxwn4qW5bI1rBbq5fdC+coXjjVqhr70+Wn58vrr4WVptdpTT3N9cucOsQF6hqF3JaIohezCMWYTG6pi67sbGuZUlWiDGTuxHzzPXAmGNpTZZH2w1zJg9U28S0WKgtUC69+wuVsrwO4cyZsgYTgviehzA42c4MmbKaPRBJS3vmExzcI6f5WDXQcpUKSLVgL6kbdYK+Q3Br8gf7Uguh7T0HIKhRvgl/GOqLlsXXen1F4NoSa2lvsMqps41Jvh8CV48JqZNmS4eEmSXdsZMmej5liFiOW9M9O1X52GRFsivfFFevXqJ4iWKIWHChBEKD2P4sOap1VAMy8RPEA/8+9bEGmNEWmNM94W1wrRp3aIVY4npvpjix9bF0lVLTBWRxzQIfAlePCb6D9SPTWhYy+QXIiAFyBcCGNPVeT19/0H9Ypqt5CcRkAhIBGIcASlAYhzSb8MwjVtqegVCB9FYflplIkkiIBGQCHxrBKQA+daIx1B7bNbXq18nhrhJNhIBiYBEIOoIhF+vG3UesoZEQCIgEZAI/IIISAHyC150ecoSAYmARCAmEDBbgGge3IyJdn8pHhK7X+pyy5OVCPwyCJgtQIqm1H+w65dBKAZOVGIXAyBKFhIBiYDFIWB2EL1lHp0AOeVJTyZ/trjzsMgOseXBwkPBziI7KTslEZAISASiiYAqQLQvD4uIF0+EcjKMCB2ZLxGQCEgEfi0E9FxYykvxfi0I5NlKBCQCEgGJQHQQEAKEBQf/+EV77KiK2qd8otOsrCMRkAhIBCQCPzoC9N0b3WuxremdMfzLlTgY++9JEfKjX1jZf4mAREAi8LUR0Fkg9MphYYHQl7VqZviAVf+FYB8JESlGvjb8kr9EQCIgEfhxEbAKDg6mTyvQtxXogz/8+0SvPL710gpb7znh6lNrKUR+3Gsrey4RkAhIBL4qAlYsPYh0H+gJFSL8mUYWJsH0Ln3lo0JftReSuURAIiARkAj8cAiIZbzsvmLij8Mz8T5ZJuCPG7FwYQqmT8JKkghIBCQCEgGJgIKAsECUHcUS4X0WHiw0FAGilJFbiYBEQCIgEZAIMAJ6AoQztAJDm+ZjkiQCEgGJgERAIqAgEE6AKAfkViIgEZAISAQkAqYQ0HsS3VRBeUwiIBGQCEgEJAJaBKQA0aIh0xIBiYBEQCJgNgJSgJgNlSwoEZAISAQkAloEpADRoiHTEgGJgERAImA2AlKAmA2VLCgRkAhIBCQCWgSkANGiIdMSAYmAREAiYDYC6gellBraZz+0aeW43EoEJAISAYmARIAR0BMgLDAUoSGfRJcDRCIgEZAISARMIaAKEEV4iJco0nuw5LuwTMEmj0kEJAISAYmAECBa4cECRL6NVw4MiYBEQCIgEYgMAVtD4cHfA7nq74Xlry7i7Dt3yHfwRgahPC4RkAhIBH5NBNQPSrHVwcLjip8nuj3ehE6pSqNmopz0jXTdq95/TXjkWUsEJAISAYlARAgIAcIfjvoc+BkfP37EAO8dyB/PDbUS5YqojsyXCEgEJAISAYkArNmFxd/9YCHCP3ZbseUhSSIgEZAISAQkAqYQEA8SqnGQYPqMLZWWbitTkMljEgGJgERAIsAI6D2JzoJEkkRAIiARkAhIBMxBQH0OxJxvns9+fBgHXt7C++DP5vD+5cs4W9uhfIIs6Ja6zC+PhQRAIiAR+PkQUAVIZKfGwmPb8/8iKyaPaxBgQatgJoWIBhiZlAhIBH4KBPRcWKbOiC0PSdFDQGIXPdxkLYmARMCyETBbgEi3VfQvpMQu+tjJmhIBiYDlImC2ALHcU5A9kwhIBCQCEoHvgYAUIN8DddmmREAiIBH4CRCQAuQnuIjyFCQCEgGJwPdAQAqQ74G6bFMiIBGQCPwECJi9jPcnOFd5CjGIwJUL1+Hx2Aux48RC6fLFYpCzZCURkAj8KAh8dwHSK3VZvff9BiIEl9564Njr++EwbJKsAArESoOUjvHgH/QJjz6+wBrfC7jp76tXtpprNlRIkBVJHeLiU0gg7r1/hmVPzsD940sUipMGJeKl0yuv3eFn8Wc8PqTNkmkjCCyZvxJ3bt2Fg6OjFCBG8JFZEoFfAYHvKkCS2MdGy2RFw+OcDHgX9BHD72/DwVd3xfEV2VsiZ6zkemXzxk6FmglzYfTDndj87Ko4NtCtIholKahXLk+slOLtwm1vrkChuGnQwlibmhqrfM7D99M7Tc73T+7csg9/TZ+PlKlTYt7yGV+tQ0P7jhNfoyxfqTTK/1bqq7UTVcb7dx7Cwf3HYWNjgzFTBke1erTKs5W1ffMeuD9wR6zYsVCwSD40bF4XVta/9icOZk6ci6o1KyFTtvTRwlVW+nkQsJgYiO/Ht7j48hHefPog0I1t44huqcqKdG+yUhTh8TLAH+sfn8Wxp7oHG22srNE3TQW42rrAxcYeDZMUEHVeBLzDOvczOPHstti3s7JBz1Tl4O33Erfeeovfm0/vxTH+88Dvqci7/toTfkEBar6lJFYuXiu60rxNw6/apUvnLuPKhau4RD9TVKxUIeQtmAclyhhRAExVjOaxSxeuiX5dPHspmhyiVm310g0Y3Hskzp++AGcXZ7g/fIwVi1ejY4veUWNkRumQ4BDUrdwMRw+eMqP0ty9y9uRF0b8P/rp7c9+ug7hxTXdfRbc3hjyjy0fW+74IfFcLRHvqyx+fwFKPUwgJDMbaop2RLU5ypHKML4rUTZxXbD+S26rJmbnwDPaDFd10/dJWRLO0JcDCplGy/Dj5+oH6JuGVj09hgddJUW51gQ6Cn5uDKzY+vYL17ucEv45pS6NLhgoi3frCIrwQAsUK1nEcRZ6l/Dl1/Bxev3qNuHHjoHiZwhF2iyeiyLRjc8pE2IDmQP0mtcE/c8jcNs0tF1mbX8rnifdTLP93tbD2Zs2fCAcnB9HkX9MXYueWPfTbh6q1KkbWDbOP80tMA+hbPH7v/Myu8y0L+vu9F/0LDtZ9n3Tj7hWws7f7oi4Y8vwiZrLyd0PAYgSItZ0trGPpJu6QUA+BNYmDNI4JhIBghM6+egRvh0/0CmF7AdjmV9eFAOGdtPYJsP7jRZHPf9qkK41MCVLi9JuHGHBjPR6+8oWVrTUJBydY2zmJclbUpkLWsZxhHWiZbyNePHeF6GajlvWV7uLBvccY3HOE2K9dvzp2bNmLly9ewsXFBV37dkCpcjrLwMvjCaaNm4OH9x+JL05yBUeKW1SuVgEt2jUUk+P1K7cwZsgklTcnjh04gfOnLoi86nWromlrXdsdmvXCGxJmCsV3TYC5S6cpu+r25n+3MWXsbDx/+hxB9JmAWLFcUKdBDTRsUU8t07B6K5EuWbY4LpBl4evzVMRUeg3sgpJli4hjg3uPwYM7D/Dh/cdw9WxsbbFy8wI1f8WiNTh2+DS8PLzAkzLHZ/IXyoMhY/qoZcxJMB+mERMGqsKD9zt2awUvzycI/ByIW9fuYnj/cahRryo2rd2GPoO6omjJgphB7p0TR08jiMqky5gWwycMQPwEcbk6Zk+ZjxNHTuE9afKJkyZG207NUKRUQbSo30kcXzBnCbkPQ8g9VMEkH1E49A/3Y/a0+fB45AF7RwfkyJUVIycN1BYR6Xev/dCheQ8UKlYAp4+fFX3IkDk9Rk8ajFhxXcT+6MGTcfvGHYFdqjSpMHxcP7x5+w6zpswVPFo06IxZCyajX9eh6NC9tRhjr16+wRiqd5+ukS3dT0VKFEKfwV1gbWON/t1GwDVhAnHMx9sXTs6O6D+8F+LGjxOOZ/KUScL1WWZYPgIW48L6I1lB/JO1Efbm64rssXWxjtMv7gkBosB4joSBlu59fgF2VTElsHOBz2c/7Pe9LvZdbBzwGwXTR6arhm1FumNtqW4oliqrOPYj/bl94x5NWt5iMqxeu7La9Y/vP+Adaaz8Y22ZhQeTv78/Jo2aDm9PX7H/8J47bt+8I4SHlZVOMvOXJ7ds2I5ZU+eLMm/fvVN5iQz6ExgUqOY9pYldIU4r7fKWJ31DunrpOvrSJOPr4yuEBx/38/MX/eRJVCGFz86te1Q+rInPm7VIKYInNGFzOe6PQko9tsoU2rBqK/63bD08H3uKLBtrG6E1Xzx7WSli9vbRg8dCEBtOajZ2Nhg/fRhq/l6FcH4vsF63YiPy5s+FdJnSYuq42Ti07wjKViyJbn3bkyDzRtfWfUW7u7cfxO7t+1CuUhkMHdcfNrY2mD7xL3GsAwkmphJliiF/4Twm+YiCmj8jB46HH03yvYd0Q5MWDXCOXG5b1+/SlNAlP33+hDdv3mL/7kNo3LIBKQ+NxSKIUaGKAwv7W9dvo3mbxuhFwpDH3IzJc5E8RVKUq1xaMGlDAs/VNZ6whl880423nu0G4BG595q0aoA/mtbFkQPHMGHkTFHe94kvueWOI20GN7Tq0IzG4GcSjHOM8gzXYZnxQyAQpoJ/5+6moJVV/FPI9+MbzH98FCF00yrk6hhbSapbFzud1cIxDqZet9aj5pNrKJM0O/LHT4sEDi4iP5tLUkzP9DsqXpwlVnCJzB/gz/w5S0Uva/1eNUL3lK2NLTr2bENa/GWcOnZGlF9BQqX/8B5ImMgV5SuXQaMW9ZEsRWLSjIOEH9/by1tooly4YOG8+GeZ7qbv2LynqF+gSH607dxMpOPHC7sufy+dQRr4Z4wbOpWW8eoma1FI82fGBN3EyJP4qMmDkZQmoRH9xolJac+O/WjdqSlcyOJTiPs/eExf/G/pety9fQ+vXr4Guzi4zNS/xuI9CUvGQYl/KH1VBCLz2b55t2DH1tWGPctF2sPdC7u3HRDpqPz58P497B3Mc9G0aN8Y9RrVFOyPHjyBfAXzojNdC4VmTPobHg+94OaWCp16thPWxRPSxlOlSSGEHVszHE9iypojE5IlT0yTbsR8UqVNobAW23qNaqFQ0fx0nROQQLgPxvLq5etCyOkVDN2pXb+meszd3RMH9xwWR8pUKIEqNSogd/6c8KT8ePHi4NG9RxT/cSKrJhvhuA+lyhbVs8h4kcHz5y/EeVWpUV7wuXP7Ps6dOh/aGuh8kmHQqF5in8tuWb/dJE+1okz8EAhYjADhoPjp5/fxmV6Bfu7ZA9z99BK25G4CxbNDCErWnYvFS48ZnodVYEvFywBH+uYG010/X6R3dEW11DlF3GPcvR144fcOmR0ToUe2yiiZOAtcrO2RP3ZqHH19T+VhyYknXhTYv34LPBE3bP57hF3NRTd9FXJ7VK5WDjXLNxQuCNaimdJmdEO8+PExtM8YvCNN9TNN/vxjCgggcInY9cATmpb4+Q7DPD7OExyTkzNdGyPE8Yenvs/EEUcnRxw/clpNc4JdS3du3qMAfC6Rz38yZ8+EwsXz49nTF0KAcN6t63dJG88NV5oYXWk/Tpww5cFYv7JkzyzaZeuqcc02KFqqMLnMqqNd1+bMLkrEAo8XErCriSdQLS2Ys4wEcVLCQedyKVFa5yp85vNCnNuFsxfFNdDW8SU8khJum9Zsw9yZC8Qhe3udG1ZbjtOR8TEUIO/evkf3tv2FhcbCg92FpihLtgzq4bRp04g+s7C2sbbG1LGkXJEFy4LZmhanxIqtU77UCgaJe3fuixw+J+W8DIogcbJEahaPKfnROhWOnyJhMQLk7Ft3LH9OPneSFNaONrBxdhaCg1HmlVE54qVERpckaJOiGBZRcJyFRdeUOtOay5x9+0hYMG2SFeNdJHKIg388j+Heh1e4T8+LlBS5tDw48ENoyvI3C//SWR/sQnAwoRFnyqKbFNjvzLEG4eJ5qwvITiXXxMmjxlf3fI2b2cdHJzwYXZ6MWHM1JE9y7WgFSMpUOpdlnLhhQiKqfWvc8ndhobCrjF013C7/ChUrSLGM/oZdMLmfjQQaC5CDe4+hep1Kaln3+x7YvG4beg3orOZZhy7pjUN+faZK1cqjS6+2Iv2OrsGl81eRI3dWWtE1Bs9IkEyeNQbZcmbG5rU7sXDuElFO+ycyPtqyz3yeY8PqTRR7KYwefTsidrxYqEeruUzR69dv1cNXr1wXwsLBwR7Txs+mWE08zJg3ASlSkdXQc7RYvqwWNpJIQPEvphETBpHlpVMIHrt7w+eJj1qal11L+nkRsBgBYkWTn5WDrjtscWhp1K2tWFW4I+xIK+qesoz4aY/zUt1dL27C2c4eTz68RjKneKiRMKf4BYUEg5f6Mp0hC+fSG09Qhra6RaY56Hnm5Dlxg7fu0NRkHx9TAFUh1pqZnEj793/nrwoP1k7HTBuKzNky0eQwioKlt5UqMbpNRBaDQrxqrCw9T2JIuXJnN8z64n22SlZvW4w99LzICbJ6rpEb59OnTzhLGN678xAZKEZhLjUia2/7pt1YMHsxPXdiTS6ifILHFNLQnUixqVC1LC6cuaLHjgV84iSJcOzQKRED4eDxhBHTKbjtidLlipNLzl9o9NwPDsSvW7VR1A8MDCLlQDfJ+tDqLzuKjZjio230CcUYmPIVzA0nF0es+Hcd2AJjKzAiWrN8A0rR0utbN++Cl2ynJteaFf0Lon5wmmMeZ05cwPUrN+Ac6mZkC5XJg4RDlhwZVdYFaIECW8dLF/wPqdxSwsfLl855GhImdkWxkjq3nFrYIBERT4NictfCEfiuQfRAWhaoDPXAkIhN77shr9Dl7GJ4vH+pByfX3exxAb2vryM/jDXe01PnnS8sw4WXD9VyivDgZ0zG3NmuJzw+BesCs6ztfgzRuXXUit85sWTBKmHuF6RYRJz4YZq5sW5xoJi149XLNqoujKTJk+IT+dcVSk5afq682REcGIj75KeOiJS4wp0bd8nFFXVMeGLgSZaJXSO/kUbObiT+latUUriZ0qRPFVHzEeZrXUn8DIEh8TMUPDH/Vr2ceNDwn6W6mA6X40k9KsTB8kl/jkY8Wj01Z9o8NP+9A0YPpuW8pKlP/HOkAaswZWQkaeLW5P4Z1HMk2jftjscPPdB3WA8wvxbtG9EyXX/U/a0pOjTrgWy0Woqx7tC0h4htpXZLTdbEZqxasg6m+Ggb5+uZLkM68YBprQqNsH3jTmTMnAGnT5zF4f0ntEXVdMDHADSq3RqjBk0QAm3Y+AGif1VpgQYH4KuXbUDxrSnITw9Nsstz8ug/ka9ATtjZ2aFPl8Fi9R8z476zxdODrDFeAda2URcM7TsabJExT4VYOCnE2CjjyxhPpZzc/jgIWAUFBYUE0qTC/vAPHz6g4sOFtBKqW7gzqHRx9v/Zuw74KIou/lKAQIDQey/Sm/QmKiAIn0hTEJTeBOlNpAhKEUUQUEA6KIio9N6L0nvvvYUeIEAgCd/7z2U2e5e7yyUkcIT3frns7OzMm9n/7s6bV2Y3Ql5MZIRcC1BsPFP4kkd8JwoRrw8JufeIMsZLQlkTp6L7Tx7z4j9/eujDobm+ljh9xSjkGYU8eEzJQ+NRNi4HW+6Z+9fpjudT8k7iQ89Mq4ifBQVT6J1AesY3tnfapDFxOg552MPUUWEM3B+/30TZtSfN4qgVOyGORw4cp54d+zlioUwlBYrkVSYNzEpBGTJmIETGmO3kSzey8DXRZ3XbGhFdyMYDX+PDatS+a0saN2qKWgeBfLOJSQ8KOXJlpzGTh/PsfZWVTRz2/tCQUHU+KLtkw1ywoJqVPlJbhBR36tVWLaRDBBlo0PC+VKJMUZXGv41rt/BgFr4CH3xwbRetn6PKdG/fX/mLkrCvxC+ZH/tTbqooLByE2QhYRIdgJrrAzvhsOTIrf0xkPHCeJ48j7PiRMl3pmTbqYZZ/lBfg5c6XW5kkIWAfPnhEqdPBy0OEyKZkyf1UhJYzPqqw6R9CtXE9MmWxmAIvXbhC6dOnVYJBFwNvCEKYm7KypoGoLFtf0oOAQIJ5MQ/7SbCeCHV8ODTYl30h0GpuXr9t9FXzxTboURAdPXxChYebNRRzGXtpZzztlZc890PAyYj9Yjrrlc4SIx9pa6xheLGQuRYSQleDr5IHm6E8kvOaDlsdivO9/BLSfb7hD4TcUh54Dz/2qXh6G9qObgsmM5fb15VewHbu7/PVYJsn3xt2hYdtF94sVUyZI/SgXvujD4wBs9/gnjxDnUxXr1wlRF7B5ABBgrQ96jOwG6/fGK0GDwgapZ3xrBX0mLe6DXNdnafXasBvEPToMc2c/Ic6D5iSNGXMnFEnja0WQHqLA+Y09vHCxp3b9tB/G7Yq0xTaDDFprVnZhAKzHGbN+Gmq/r+qBhY6Lyrb1OlS8aCZyuUq8ENhALZHCN0tWDS/cQhRZuZoNAQMaHLGR5fRW/gszKQFiTnPnE6bIdyxbc7HepC8fuEmKnN/IFC0oDPXQRoLLYuylhJVcsYzqryk/MtB4KVrIC/ntF98q65qIJiV1WftA1rDj78MtbI5m3tt1kA6dGtLldk8dJJNUzl58VpCm8gh1MOCr+vs4M6dJ4da5GXmFZtp/ys3WFhdJTjIM7IZzSdsVXdstIlZ+8Vzl+n27TvsA0pIWbNnsotFbLTt7jyhXXRq05u+/LqrvMPK3S/WK9S/l66BvEJYvZCuYg0EQlBTpU7pUHjY6whmgebZrW0ZrIbWK6Jtj8XmPma7jma8Md0uZu3wr0THxxLTfXE3ftAupv75s7t1S/rziiMgAsTNLmCKVMmpR98v3KxX0h1BQBAQBCIiIAIkIiavRE6WrJl4pXgz1dfiHMYpJAgIAoLAi0ZABMiLRjyG2oNJok6DmjHETdgIAoKAIBB1BGxjmKLOQWoIAoKAICAIvJYIiAB5LS+7nLQgIAgIAs+PgMsCJFHYSwufv8nXj4Ng9/pdczljQeB1QMBlAVI5RfRW8r4OIEZ2joJdZAjJcUFAEHgVEXDZid4xy9vq/NbePkYP+ZXrQpEjAM0DwkNjF3kNKSEICAKCwKuDgCFA8F6hyAgDoQyGkaEkxwUBQUAQeD0QsJIatu8fej0gkLMUBAQBQUAQiA4CSoBAcOCHF+0h41mE1w5Gh7XUEQQEAUFAEIjLCPAr+i2vxcZ7hPArlSQrLbpxMC6fs5ybICAICAKCQAwgYNFA+FXNSgPhz09+lvxNGn9xIy28cUA0kRgAWFgIAoKAIBBXEfAIDQ3lTyvwtxX4Oxv44dsNBwIv02939tCO++cpNK6euZyXICAICAKCwHMh4AHpwaQ+FKSFyNOnT5UwwfcV9EeFnqsVqSwICAKCgCAQ5xBQYbwwX4G82IQFwj5rJuozlhAuoNBnoosoIOSfICAICAKCgEJAaSAaC62JYB9fxoPQ0AJEl5GtICAICAKCgCAABKwECDLMAsOcxjEhQUAQEAQEAUFAIxBBgOgDshUEBAFBQBAQBJwhYLUS3VlBOSYICAKCgCAgCJgREAFiRkPSgoAgIAgIAi4jIALEZaikoCAgCAgCgoAZAREgZjQkLQgIAoKAIOAyAiJAXIZKCgoCgoAgIAiYERABYkZD0oKAICAICAIuI2B8UErXMK/9MKf1cdkKAoKAICAICAJAwEqAQGBooSEr0eUGEQQEAUFAEHCGgCFAtPDACxXxHix5F5Yz2OSYICAICAKCgBIgZuEBASJv45UbQxAQBAQBQSAyBLxthQe+B3LstgctOpWYDlz3lI/bRoagHBcEBAFB4DVFwPigFLQOCI+jt4gGb/GlRoU8qEou/lLhawqMnLYgIAgIAoKAcwRUGC8c5tBEYL5adCqhEh5VRXg4R06OCgKCgCDwmiPgCcGB737g64P4wWwFzUNIEBAEBAFBQBBwhoBFAwkL31Wfr+XSIj6cQSbHBAFBQBAQBICA1Up0aCNCgoAgIAgIAoKAKwgY60Bc+eb59H3PaOulZxT01BXWUiZBPKKymTyoWVHR6eRuEAQEgbiHgCFAIjs1CI8NZ0VDiQwn83EIWo2ZCBEzMpIWBASBuICAlQnL2QlB8xCKHgKCXfRwk1qCgCDg3gi4LEDEbBX9CynYRR87qSkICALui4DLAsR9T0F6JggIAoKAIPAyEBAB8jJQlzYFAUFAEIgDCIgAiQMXUU5BEBAEBIGXgYAIkJeBurQpCAgCgkAcQMDlMN44cK5yCjGIwP69++nChQuUOHESeqfy2zHI+dVj9fjxY1q9crXqePHixSlDpgyv3klIjwWBaCDgtgIkX2qiilk8KWsyXi7P6/CuBRKtPRNKh/zDz7JkRqICaRwrURvOhdLb2RwfB6f1zPN8QDhPSbmGwJRJU+n48eOUwMcnTguQEH4/3Pq16+nUqTN0//49KlasKFV5r7IVSNeu+tPPY35Rec1btqCGjT62Om67s3f3XlqzZp3K7tKtE8WLF4927txNG9ZtoCRJklDGjOnpverVKEGC+LZVZV8QcCsE3FKANC7iSR/ntwgOjVZBTlTJ7knzjhFN2xOqsktn9KBquXSJiNuAIA+qly9ivjnn4l0PFiDuv8Zl6eJlNOanMZQ5cxaaPH2i+RRiNN2ndz/+GmUIValSmapWqxKjvJ+H2coVq2nd2nXk5eVFQ78b/DysItTt99UA2rl9B31Ypza1/6Kd1fHOX3ShkydOGHk3b96MIECMgy4mduzYRWtWWTSWdu3bKAGybct2Iw9s/vxjLv0+5zcXOdovdv78BZoz+086ffI0JU+ZnIVfMar5QQ0WUontV3gJuXNmz6WUKVO81Hvt0sVLlCRpUvLzS2ogcP/+A5oxbSb5JkpEVXnC8Adfj46dO5APT5jMhM9gfD/sB2resjn9PvN3qvT2W1S6bGlzESN96cJFh3yMQmEJXbZQoYJUvUY128Nus+98ev4SulkkHVHDAhbhwZM/WnsikFYde0BIg+rmJSqY1pJ+FspLvcPo9I0nZPu7eifEyLt2L0QXpVuB4fm3AoONfHdOzJxhGUyatWgSq93cs2sX7duzl/byzxmVr1iB3ixRgt6qVNFZsRg7hv6gX7t37ooxnmB05/Zd2rVjJ3l4eNBnTT+NwPvUyZMqL13adNRvQD/q0rVzhDJ+fn4KC+CRJ0/uCMddyWj8aQMa+O1AypXLUv/GjRus8dx3pardMmtXr6O2LdvSRtZqPD096dSJkzRtylRq9mkzun3rjt06tpkd2nakUSN+ss1+rn18OqJWzdq0acMmxWfJosWsja2NUZ5RYTZowLfUoV1HatygMS2Yt9Co2r1zD9Y811H+Avno3LnzSrg/DGQziA09CQqiTRs30eUrV8gvWTIa0O9r+mH4jzalLLvO+NhW6NihM21cv0F9Wtz2mDvtu50Ggg9ZaRq44hbt9ucXSjGduX2P2pWzzBCgeRzyD9caAh6FUoeFER82bx8/2nzakp8vjTeNquWneE3Z8ZDWnX6i0t4+ScnD7cSo6prxb8t/W+nunTs8Q/KjCm9VMPJtE3g4PWDvc0KulHFS3TjU4JOPCD9XyNU2XS0XWZtR4TN50hT1LZyy5ctFmJljFqpfMFq/QT2qWMk+9slTJKNhwyPXipz1K0XKlFS2XEplwurepbs6xStXrrJAShLZ6UY4Dp/MqB9HUVKeVU+YNIFSsPYBWrl8FY0cMZKmsiDp0cvSRoTKpoxbt24qzcWU9dzJUH5haxD3D9iCpv02lf8/3wNoy1MxduFf4IMHtIsnJPMXz6PjR4/T4G+HUO26H/J3kULZv3eeBgwaoLQJXLdFyxaySTGBU65tP29N8by9adnSZXbLla9Q3iU+qPzo0SNq1LgR1fjf+3Z5uUum2wmQnOzzAO27HET77iQjrwSWAXHJ6WDad+ka8RNNAaEQBOGqZOIEntS0bEpVT/+78eAZrT79jOIlsjw83j7hAsczvg/n++qibr+dPHGK6mPjzxobfT1z6iz16tFL7depV4eWLF7KM8tb5OvrS126daa3WJUGQT3/nmdEZ0+f4S9OBqk8H5+ErBZXpxatmqmH4uCBwzRowEB1TP/buH4j7WCzDujDOrV4dv6ZSrdq1obu3g2fwaZIkZImTp2gjpn/HT54hFX77wkzaXwmIHHixFS3fl1q/Fkjo1j92hYBhL7CB3D92jXlU8HgpjWb3j37sAnmFD16+ChCPS9+WP/8+w8jf8bUmbR507906dJFNfDDP1OiZAkaMLCfUcacCOLZ4/owX0S79m3Nh8LS4fcMggVsafmylTRl4mSr7Nbt2lC16lWt8ub/s5CmT51Ojx8/Imgy+QqyfdYBJUka3g4GsugQzFYwrWAA1MIDfKq9/x7t3bvPiiWu03dDv6NbN/neSexLDRo1pPof1aX+fb+mOzxp2cPXZcg3Q6nvgK+s6kE7ycC+mmNHj6lrnCpVKuo/qD8LvDdUuZ9GjqZ/+Vo8DHxIadKlpTZtW1O5CmXp008s99GEcb8qU+m//25hn08G6tSloxq4f/xhJP27+V8KeRpMOXPlpEGDBxEE9LTJ05VW7JskCR3gc/CK5011+b5v1qJpBJ4ffPiB0de9e/bR4EGDqeb/atLCBYsomHEpWKQQm0GHUPwECdWEC8Jj79695JfUMsG8cvmyun9yv2HRBg8cOMgYDKFJ0yYpM9foUWPZX7VetYH7y0y5cuekByyY7JGZz7y/5jk8nxZNWqn2/5r7N3l5e6ln5ucx43gCsFI9w5hIdu3RlSccZew180Lznk/0x3BXUyQiShDPIjDOBfCWzQqgb971pO+rx6dO76SjTu+mp1oFuaCJvPgsPmGzl/n3geU+NpV6NZPH+Oa+fOmSGlhrmR6Mh48eKhMHzBwzp89UwgNnGMhq9pBvh9KVS1fUCZ89c45nV0fVjQczDQgD2YJ583mWOlrtwzkMPvhpCg4JNvKuXbuus8nf39/IR/lr/izUbWj/vgPUrUs3dQzCA4SHCv3EwKJJt7mUhR+EBwiz03Fjx+kifB6XVXvojyZdD1qZprlz/qbZs2bTxYsXVJaXp5fitZsHQEc0a+ZsJdwKFCxI6XiQs6WAO3eNLC/cZDZ0m2foui96e+d2eJ9QfM+uPTRh3HiFOfaBF0wjjsgz7BrheMDd8PYdlbeXf4LNVd5e3lSwED8UTBBEjwIfqV/nzh3pi04dVD5MWd27sibCJq6OXTtRyVIladKEiWyuWUsNGn5Midj+nylzZqrDgt+Wrly5rEw3pcuW4cGsm5ox9+rWmwVXCEGwLl+6nCpXrUJffzNA9WXE9yMUi/YdPlfbimz6LFGyJF3mCc7lsHv1++9+oHVszqpc5V3qxJOgS3zft2tjKX+dJyII2rjhf506cV/9WLv6Y9YfhEmALU9zX6Fl4N5bzKayNu1aU+GiRZQpFAEL8eJ5UecunZQA3bZ1O/X6sqeqejvsGiZLZhEo9+/do4CAAPXJ74XzF9GyJUvpjTx5qDb7zFDPTMmSJ1ODf1CQxcJhPmbm4+x8WrVtqaqVYQGBidSs32bR4oWLKD9PPL4e9DWlSp2aJ3yD6Mrlq2b2LyXtVhqIecLlbTLFFExDFM/0/N59hMEkPAPzxP/OhM9QgeTle/ifAP9eaZowfqLqfx2+WR2ZpzBYdOBBYSc7Z7f8958qP4N9Jn369qaUqVOx07cqNf60kZox4gGHbfzy5Uu0lU1joJKlStBknl2BWjVvrbYlS5eitvzAgfBQaJo45VcKDn5Kg77+li5yGK89GjHcMlhgEB887FtKnyED9e3TTwnCFctWUOs2LXm2G+7IRf/7sZYw+7c/6MSJ42rmiwcfZUaOGUmPWZ0fzzNW7f/QfbWIQ0sP8ICBoF0tXDpfpS+y03LpkhUqbfsPg+qCBQtVdlt2ZNujjWzb1pQjZw6dNLZ169blB/wtunD+In0z8Bsj35yYOT3cEV79/er88KfkAWG2GmTM5XQ6XfoMOqm0qejMMm9ev8mz6/gGn3WsZekBXGeuXLuCZv3+h+rHiJHfsyM7JTuLq9Du3Xto0aIlNObnUUo7TZMuDeXPn1dXs9pmz56DhVF7lZeUNaeB/QfSkUOHKGu2rEpI1eBZ/1X2DWTOklkJdmhF5SqUU+ULFMjP90U6K36w+RdnP1KHjhYBh4Mjf/iREAwAwgTol19/VtFpmTJlUpOUE8dPOeWpKvK/rwb0pZIli6sgghpVa/J9dpIF3LvGT5e7euUajf95AiVPnlwFN+h8vV27ei2l5gF8+IhhKss3SWIldPXxPHnzKIE57NvvqHvvbhHMoroctg7Pp3xZdQy8gB18M3iGhv9gaRORgLVr1VFCumWbFmaWLzztVgIk4DHPVINCCSapgmm9DDAGr7xNfgmeUbd3w8xUbMYy0z32gQxZz5VN5OEVn/jvlSbMMI4ePkwYiBuZTD+2J1XkzaLKVlrt/WpUs1pNNSicO3NWFcvJA18Kfhi+6t2X7t0L4BliMP8ss6OgIAtmCCPFjWqmpGwqsM3Dcf3QJ0qY0FzcSMNefP26RWPxSehDm9kcAUrIAzsIPoXjx06w0/lNtY9/edlRiYHyJs8yIUBAR1jzwgOfmgUgCPZ8Tfb6lY8HJLQL7erjug2ofMXyVI9NHO3aW4Sgrqu3C+cvVBoKotq02UUfwwwaJiet4SC0NlPmTPqwsU3om5Ay+2ZWM3wj0yZxmc0hIJjTuvbootIb1282NCWVYfqHWTEG5rNnz9Da1Wto+9Ztyi6vTYimog6TGPTPnz/HpqWbCj/4bnLmzKnKz5z5G08ctqj0+fPn1bZJoyZWvHziuzbxypYjm1EvV+5cKn316jUqyDPlf/6ab4Q2x3eB3/XrN9S9sWvnTnUPG4w54X/Vcj8l5HtOhzb7JbPcD4/D7mFzeXvpnDnCJwAwfep737Zsu9afKzPX5OnWpkld7hSbU996p5LepfLsO4PWpgl+kumzplPTRk2pR5ce9OuUCfpQhK2r5xP4INAqsgv3HZ7ZGxwR+LLJ82V3wLb9XZctg1u25J701VuevM6D6G5oEiqVy+LLsC2PfR9vDyqazc/qVyRzQvILd5PYq+b2eRPHW7SCyjwz1A+OvU7nZXUaBDMLfA2ge2HmKPgh5v45l65evaLMW/CDaMew3qoKMfTv2jV/gxPMacuWLFO/U6dOGvkXL14y0khgNgmCbVfTsxDrSYLOd7T9rElj49xhbkC7LVmbGtBvoN0qMH+AWoeZC8yFjhw+YggP5EODiy7BGQpKk4Zv5DDKmdsymOt92+27bMLRBPPL3j379a5L2/z586tyWL8CQuhpjlzZ1e/c2XMqD/9gosEseMGi+bRkxWL1++77YdSrTy+jjLPEPTbtaNoVZirMwtrHiO9H0nU2dY4Y9SOtWL2cmrZoqos53OprDy1N9+WPuX9Qz9492exUUNXTJliHTJwcgC/BFRr47dcc0puEevX80m5xCB+YVTXhXjGT1vCzZM3KWs9X5kMR0q6ej3f8eIZJGkwQOQhtDsLrZZNbaSAA49dtT6lkpgTkG9+Dv+aHL/pBxjmXc/CbDKtsNmhYYP3jMNHs/dFzRFo4vLz/AQH3aNu2reoBb9WqhdOOnAubSaIQnJYgzG4Q6QKHJAhmoqHfD6W8+fJS7+696Sj7RWKDYKLRhEHh3SpV9K6xLVy0sJGOqQS0kr/n/0UrVqxi089mOrj/oPL7YAZ/6sQpyvVGLqOpTRs3szZ2jx3MKa1mdroAghCq80K+cT+P5wWEJ2n+P/OoKQcRYOYXVcKMFA+71mZQX/unHPGawdoPKE069vmxcxkmi6jQxw0/or/n/kUzps5QmltZ9lPs2bOX5rPWBZOSpnfffYc2s5lu3LgJyj+A0Nqxo8dSnXp1qUCh/GrNze1bt1X/MeO1pX28IBI+Ol/fROx/+kPNinPnzs0+h0BKzKadN/LkUmbLuX/8qaqGhISo+xA7iDAzBwlgggQhi5BYCFCsDYHz/gKbryq987aq7+if9htpnvb8VY7q2uYXY22+e+8e1O/Lvmyq5f7aCJ48/PwcOXiIfRKLCW8d+I3Xfpjp9KlTaqI2avSP0bpfzLx0Ol/+fHSQ/YorWDOuWq0qTeLADQifsmzqetnkfGR+Cb17QInoi7/86fh1iyaiu+B/P4Tm7bM4eYPZTAKKbJL69Ek4j6cmORJsSmv+7radNmWa0hRKlSpNfsnDZ+b2+glH8VmeWc7+fY5yCqNM+vTpWRUPNopn5Fl+ER64Q/mhOHkiXBswCoQl9Kzo2LHjrOaH42dbztE+Bho4X0FQvd+vWU2ZkWBKqlL1XTYz+bOJJhsfjRphkNK03cZxiXwMfgg2eJ8XXWGh4aRpE3VxHpQ2G2kkpk6apvY/a/KpVb7ewQCEAbRZq2Y6iw4cOGCko5JImdJigoOT/b/NW9SAe+b0aYcsYMrRAQMwwcGMZzuIOawcdgDlR4wcwQIyhQrn/bh+A+UovnzxInU2rWNBVFT1Gu/TqhUrqX7t+mqhas6cuahla8uEpWTpkoQBsVunHnabTOCTgDp/0Vn5ze6y47lP3z7KMd28ZTN6wJOXWjU+VFogghRwX7Vs2kr58bJmzaYE3O8zwgbfsLnfN0O/UeV6de9FLZu1ovO8/qI3+/Fg1gPpexNpT1PsPXyDEXiikIk8TT5VZJt5mYqpZOpUlmsWyOdgJi/m8VXfXpSEFxzizQPNm7ZQa2zMZRDNBt7OJhvgAzL3wXw+mp8HWcr1/rIXjwHJ1LWs8V4NZdps1qJ5lO8LzTcmtx48K3gWHBysohmgbrdck4qm14koV5rNf3Gj7rNnofT0wR1K7PWYsqeKT9cCgun6Qw/yTpSMnt67zls/8k7oRyFBD7jcbYd4xEuSmv0g2vYeSkG3L6my8ZOlJ0+viDMqh4xi4IA9TB2xxcBd94O6aiCZNmOq3XcrHTp4mPR6AXt8YD4oVLgAfVizjhEBlDFjJrp2lWd+YZFRqAdnqpk++bixEdGFfNzkNT/4gFfhtufZ6ThaunixKm42f+kHAYPPL7+OVbMz/WoPFIYNPJRnnxgYUXbFmuWKR7XK1dUWg1jX7p2VEEAEGejbIYOpVJkSKo1/69duUIOgzgAfPHTLVi9VWV06dVf+IvhK/PyS0fUb15WPAwc1FkgjZLkHRx5ByM1b+I/DwASUxaCvQ4379v/KCI3GMRCcsaF8r4Ls4fH9j8M5jPoyjR4VHnmmCpv+/b3gL7X2Q2fB8a8DGUaN/cmhA1uXj2wLgYQQ7rw8izWvtDbXg0nkJGtpGTKmi+DrgR8lMYe82w6Idfj+rPBWRWrHax/OX7gUoZ+YvR9h/12evHmV+RVBEYEcip0mTWrVNPjCUW0rHKGVYIKDsQhRZPY0H3PfzWlHPM1lXElDi6/7YT0VXWYbko368PMd5QlWQvbxZc+ejXPCCc/Ico7S0vdl+JHnS6FNRFQihB7RWLYr4p+Pe/RrR5QU0ecVYzU9eGCInyQlBSXMQEfvJaO73mkpgV86jv32IZ+UWZTwQGNeCRKrfeTZ+2nhgbLgqcu8aOGB9qNCf3IcPwbbPPny2RUetryKlyxhNZupU6+eEh4o9zXH5iOCA4TIKxAEiSPCQAlTAhz3IAyMQUEWOz622DcPlroM8rS9H3H4LVu3MswV8LvoWXWmTNbOetRnWWAhI8F5XjrTcggvbKzMr1fRDlm0ZxaEWbNmURjANIVQXoQDg96v+b6BBfYnhkW11fuonlPhgbLcC8uG/9+ys3ob7TvDA4MhFoKVLVvO4ANci/IrRcIpvA3k3eQZbEwSBmy8WsOR8EBbWGcBYW0vUABBDLbCw9w/RMrZi9KCYChcpLDhu0M5LTxQH3xthQfyof3lzZeHYEqKivBwxhPHokKJWNstWLgwTfhlfATtFXyg8eCcs2fPxnvhhPU3K3gRYYVKFcMzYyiFNuHHQvCJuwgPnJpbaiAxhLlbsXFVA8FMozbP7hBN5GwGatZAOnEsO17wd5xnRblz5bb7wGOWiTUcWBz1PDbiqIIKpzqcjknZH5Ipc8ZYvfkxYOMNwXfYbu/DGkZ2dmSaBz+8XwiOdfiDFnCorysDlNaScubKRT2/7EHp0qS14ukqHgF3Augim9hgz7aHP7TOGxxFNv6XX3l19E7FdubsmZQ2bbjz3dW2XkS5HrzmowwLJiw6jIsEvxVCzuGL/LRJY5dOcTi/EwsRfZhA2bvGLjF5xQp5v2L9jfPdvXPnNpXnWHms7LU3s3MEAJy1mPE5Iswy8XvRhAV69hbpxUY/8NBmz54twsxQtwUTB7SYIuyUdkV4oB60NWhu8AW0a9WOir5ZzIjH13xd2cKP5cyXNXHCZFqyaJHBCm8UcFfhgU6OGDnc6GtcTOD+MK9od+Uce/exLER0pWxcKSMCxM2uJCKDer2GN+KLuAzFihcj/KJCo3/5iebym1jPs2Zz7959jrx5MyrVXS6LycJpdq4nSpSQMrDJscEnH7tcVwoKAi8LATFhvSDkXTVhudodOHhXrVijipevWO6FzfJd7Z+UEwQEgbiPgGggr+g1xuroeh/VeUV7L90WBASBuICAW0ZhxQVg5RwEAUFAEIjrCIgAietXWM5PEBAEBIFYQsBlAZLgxa67i6XTfTlsBbuXg7u0KggIArGLgMsCpGwm6wVPsdutuMVdsItb11PORhAQBCwIuOxEb1bUIkC2XuKVyU8FPlcQgOYB4aGxc6WOlBEEBAFB4FVBwBAg9l7mZXsSGAhlMLRFRfYFAUFAEHg9EbAyYemX4r2eUMhZCwKCgCAgCEQFASVAIDjww4veYKiyvCw9KmykrCAgCAgCgsDrhgB/i8XyWmxPfo8QfoXThNKaUyJCXrcbQc5XEBAEBIGoImDRQPhVwUoD8fKiWrke0eyDz2g1CxERI1GFU8oLAoKAIPD6IOARGhrKnzTgbyvwB3/we8Jf8Tt224MWnUpIB657ihB5fe4FOVNBQBAQBKKEgAekB5P6MI4WIngXPtKh/H0F/dGcKHGVwoKAICAICAJxHgEVxgvzFciLTVgg7LNmoj7dCOEC0p/uVDvyTxAQBAQBQeC1R0BpIBoFrYlgH1/Gg9DQAkSXka0gIAgIAoKAIAAErAQIMswCw5zGMSFBQBAQBAQBQUAjEEGA6AOyFQQEAUFAEBAEnCFgtRLdWUE5JggIAoKAICAImBEQAWJGQ9KCgCAgCAgCLiMgAsRlqKSgICAICAKCgBkBESBmNCQtCAgCgoAg4DICIkBchkoKCgKCgCAgCJgREAFiRkPSgoAgIAgIAi4jYHxQStcwr/0wp/Vx2QoCgoDDCxvRAABAAElEQVQgIAgIAkDASoBAYGihISvR5QYRBAQBQUAQcIaAIUC08FAvUeT3YMm7sJzBJscEAUFAEBAElAAxCw8IEHkbr9wYgoAgIAgIApEh4G0rPPA9EC//PZTk8DSiK/u4vnxWKjIQ5bggIAgIAq8jAsYHpaB1QHh4XttNvqs7E5VqTZS3LmMigVqv440h5ywICAKCQGQIKAGCD0c9DX5Kjx8/pmQbWHhkKsnCo35kdeW4ICAICAKCwGuMgCdMWPjuB4QIfspspTSP1xgVOXVBQBAQBASBSBFQ9inDDxIawhXg8xCzVaTISQFBQBAQBF5zBKwkBQSJkCAgCAgCgoAg4AoCxjoQl755vn0E0emNRMFBrvCWMt4JiHJWIirdQ7AQBAQBQSDOIWAIkEjPDMLj+KpIi0kBEwIQtBozESImYCQpCAgCcQEBKxOW0xOC5iEUPQQEu+jhJrUEAUHArRFwXYCI2Sr6F1Kwiz52UlMQEATcFgHXBYjbnoJ0TBAQBAQBQeBlICAC5GWgLm0KAoKAIBAHEBABEgcuopyCICAICAIvAwERIC8DdWlTEBAEBIE4gIDrYbxx4GTlFGIOgV37j9HZ81cpaZJEVO2d0jHH+BXk9PhxEC1etUX1vGyJ/JQpQ9pX8Cyky4JA1BFwTwFSroP1mfAHrujqbqLzO8Lz3/yUyMeP6MZxopNrwvNLtiCKl5DI/xDRo7tE2SqEH7OX2vKLvVzJiwSBMZPn0pHjZ8gnQYI4LUCe8b23bN02On7qAgXcf0CliuWnmlXKWaFz+dpNGv7zDJXXocVH1LxhTavjtjs79h6mpWu2qux+XZtSPO94tHXnQVqxYTsLZF/KkiEdfVitPMVPEN+2quwLAm6FgPsJEN+UREXb2gcpKIBo3ZdEZ/8jKsKCImEqonOrrQVIEX4NfXxfzltCFHDeMS/dwv45RIG39J7bbv9euoG+Gz2dsmXOQH9PGRpr/fyiz4/qa5Q1eJD8X9XysdZOVBkvXvkvLV+3lby8vGjs0G5Rre60fOd+P9F/O/ZRg9pVqWf7xlZlm3T8lo6ePGvk3bh5J4IAMQ66mPhvx0FauvpfVbrH559QvMTxaNO2fUYeDkz/czEtnTXSRY7Wxc5dvErT5iyldk3qUPq0/DyFkf+N2zRu+jwl4LJlTq+zXdoeOXGW5ixYQ9/04ufLzQnnnjplsli/f9f/t4fm8XPZr2szWrZ2q8M2ce/euBNABd/IQSvWb6XufM19E/Ek1w5Fpe/bdx9W16R987qUO0dmO9xiP8utfSAh96/R00s7KfQxaxKgBKxxlO6uklBKQMF4/6OJ9Nu8QkKfUXDARQr2P6x+oY/uGKVCbp5SeU+uHSB68tDId+fExBnzVffaN68Xq93ctvsgYYa8Y+8Rp+28W6EElSleiKpUKuW0XEwd3M79Qb+27uJrFoN0mx/srTv3k6eHhxpwbVkfP3VOZWVIl5qG9/+C+nZpZluEkvslVlgAjwJ5skU47kpGy8Yf0MhBXShPLkt9DPb3HwS6UjVCmVNnLilhdPnaDatjF69cV/k4HlU6evI8LVvDE7fIiN+nV+GDtrRm487ISsbccZs2/168lvtqMSlGt5HN2/er83j46LFdFvsOnqCeg8ZQMr72SRInImdtrv13Fy1cvpEypEvBE4W9VKVeR8JExB4542Muj/od+vxAB46eNGe/8LT7aSAmCJ7snkJPd82mYBYWSZv+Sd5pCxIly2Iq4TzpcWQpPdizWBVKULYl+VSwzFwf/tmEQh8GEI8ZFD+Rl3MmbnB045a9dPtuAN+sSejdCsUd9wgvw8RJOSNXyjirH3asWYMahJ9L5GqbrpaLrNEo8Bk9+S/+nMEzertscTUQmFnff/BQHUPeZ/VrUOWKJcyHjXSK5H7087Duxr7DhJN+pUqRjN4qW5T82ITVstsQxQIDfv43sjtk544H8ELWx0FBdDeawi8652Tb5oIZw8njOd8o/oCvPc4jBJ+4sEMwN6ZLk5K+7d1GHXWlTfjGVv85msrVbEObWEDVq/l2BM6u8EGlU2ctk4Bff/iScmXPFIHPi8pwawGSwNuTEoYN8Py1kjBMXB/wvbw8yM/XUj7UO3xgTQKeHq7zeVEXw1E7oyfNVYdaf/qhUeTkmYvUtudwtd+objU1A7p5+y4l9k1E/bo0Z82APwrGdOHSNRrw/WQ6eeYCBfEXJ0EJfXzow/ffoo4t6lMCtrNjNtVt4Bh1TP9bvX47/cs3OajBh1WobZPaKl2/5VcszO6pNP5h4Js7abCxrxP7D5+i/sN/Jf/rtyiE1cWkvr7UqH51asUzbU3v1vtCJauyFgMfwBX/G8qnMrBHa+6/ZbBu3/sHOnbqPD16GD4T1PW82Zy1au5ozY7GT59Pazfv5HO+qgZ++GfKlixEPwywtGMUDEsEBT2hFWstM9VubFaISFqf5QkMBwvY0sLlm2g0+4LM1LVNQ/qgmrXfbc781fTLtH/oEX+wDZpM4fy5zVWs0n5J2fwaRiGYOcUSBQQ8oHqt+tBbZYrRhi17KDDwIeVjE8vYoV1ZkPpS4MNHBNPeUTZdwdySLYu1yWvIT9MZ612qXvq0qalL24b0drli9H4jyyRt1PjZ9CzkGdX/XyUaOGKqui4hbC7InSsL/fRNZ4LQtaXG7QdS5oxp6dDRU3SdNbDUqZLTD193NISoq22u/2+X4tOnUxOCD8tR+627f6fMTsdYu7p81Z98EyakIV+1474locGjpqnu/e/T7jRr3MAIgRHH+Z7MnDGdcQqd+/5ktIlns8egsXSdtYS0qVKQh2f42OPh6Ul+rLWgjD0y83HUv/TpU9GXQ8ap6m26DaNR33YhX9+E1O3r0XTN/ybPIT2oXMki9F2/z9Xzba+dmMpzaxOWZ2G2R3/ATu4mK8kzbWF1zk/O/xtT5/5K8DnMjuoLl6+qgbVBrcpGnx/ygHqPnbr4TZjxD0F4gB7wQPDlkF/o0hV/tX+SZyqHjp1SwgNmGhAGsjnzV9G3o6ar/YD7gQYvlcH/noYEG3lX+KbUdJXTul1sr9iYSVBu9/7j1LLrYHUMwgN0LzBQ9RODgCbN558l65TwQD5mfT+M+00X4XO/ptpDfzTpetDKNM2Yu5ymzF5I5y5eUVle/KCC17Zdh3SRCNtJvy9Swq1owTw8sKeKcPyWSVCCny1dZ8x1X/T2JpvEzAQ79YjxsxTmyAdeK9Y5Ma+YNMg7AffNrGI0/YQ/YX2X+S9ZtZna8MSkPTv/jxw/TV0HWCYSvb8dRwePnKTqlctShdJFeJLBwSphBME5f9kGgp9sxKDO5O3tRQN/mKSO9uzwqdpWeasUD2IFqd/wSbR87X+q7FddmqkJTcO2AzQrqy3u2TUbt1NFFmr9u7XkSUMQte0xnIJZ8ESlzfM8gbhw2XL/O2v/yrXrtGrDNnojZ2bq1KoBBTEmA0dMVsKiZpj/rzNPCFKnTG7VT+xAO/VLmtjIN7fZuvswun3nHjX9uCalTZ2CLvI9bCZM8iDA7ZGZj6P+pWOhVKfG26p626Z1KHOmNNSs07d05+596ty6oToX+PT6DB5vr4kYzXNrDYSSZuGpH//CKOQ+zyx32IBi+2B7RHzQdf1Xcfvj+D9Utz+p855D81Q8L2/q2fEzNYvH7As0fsYCGtKnLaXhm79m1QrUuvGH/GCkVg/jR637qpt6I888QeVKFWTH/DCVrt+yj9qWL1WUurZtoNIpkydVW/ybO2kIf/44mHoM/JkH68tGvjnx9Q8T1S4G3TFDunO7aajjVyOVIIQtuHPrBqwpJTSqoP/DWUuYPGsRHTlxhm7xIPwg8JEqM+2nfhTIdmjgoP0fuq9spzDor0VrVBra1eZFE1QazuR5SzcaZcwJzEznLFitsrq1a2g+ZKRXm+z4GGRsqXHd96jqWyXp7IWryh5uexz7E2ZafFdIf/h+JXU9psxaaJjGkG+mTOnTGLuY4cOsFZvUqF51alinqmri7IUrtCzMub/7wDF6750y1L9rc3UMk4hd+yx+sRxZM1LvL5oq7QJmtuxZMijBjc9iv1v+TVW+UIFclDF9alrNA3SZEoXoyy8+M05j0I+T6Ry3lY3r2VKu7FmYt0UIYYDu9vVPtO/wSYpKm2aeztpHuUzp0/JMvb2q4s8aw5z5K5XGVazgG3zvrFfXF1q6mWbPW6Wen2Z2ou1On7usJnHfD+homJsr1mpnrq604vlLNxCc8O+E4WVVwLRjr38+PgmoNEcD/v73ctXGv9sPqMnSWH7WoHGDgNmmrZbn28QuxpNuLUCCTq+noHP/0bPgJ/T4wi7yvnOeUsIkhYHjCc/0fFORZ2KTas3hux4I4WV6hoitV5wuXblBB3gWiIG4tcn0Y3taJfhmqlujEtWpXpFKv99SDU6nzlpU5Dw88KVKnkw53ALuPaCnT4P591SxCOIZOghhpLZROTCl2OahLAYFUKJECdQ2wj+2gV9jsxUoYUIfggPRkraUh7/h8LEzVLp4AZWPfwXz51IDpf+NO0qAIO/gkVPqYYAZAy2aZ3v2+gWzENqFdlXlIzy8JahRvffIkXD4gyOKoKEgqs3Wz4DZLkxOWsNJmiQxZckUbq5A/0CJ+PzQF0d2cpSBBgWCOU0Pxqs37jA0JXXQ9A+zeQyip85e4FDff2nz1r3UgAd4bUI0FXWYTJ8upTp2jzVLMwWyUAZhVqypUL6cOkm5s2VS987OfcfUPVKpjEUYoECZ4gUNAZIkaSL6/Z/lRuhygvjWA6xmiEAAXO8tOw9Qqfdb6Gy1ReizfQGSySiXL3dWS9mrN6hIwVwutWlU5kRk7aOsWfPEPY/+OqOZf62gMZPmUK1qb9mN8lq6+j9V/a0y4YI/b+5sbM66bbDt3u4TNv09UpOOaT/1p0L5w6+BUSgs4Ur/Tp21TOTKmJ4pCFxMJjFRgtkstij2OMdAjz0ubyOfQ39SouPzKe2TS5QycZjwYN6IrgJ5psxNlLWMStObTSxb/v/shmW2ZGS8golRv85RvYYG4WxNQIE8OVQ53CiJ2X4NgrAA9ft+Es2Yu4RtvNfVzAh+EP2Q6K0qGEP/MDBogjkNszj8dDQTjp1jE4OZsoYNzohm0hTVvrX57EPlZ0F9mGbQZv0Wfahb/9GapdV2yuxFar9zG4uWZT64n4WXFh7I1+YMcxlX0w8fWYR0ujThJrI8uSwDoyMe77PZSBNMfzv3HdW7Lm3z5cqmym3bfciq/J4wM1SBPNmN/Nt3ws1ku3lxKMycKZMlUcdPn79klEMYr6ZBP0xRtvbJP35Fu1ZOo/bN6ulDVtvkYSYeaF5bl01Sv5VzRtOgXm2oeOE8VmX1jr5vsb+F/WKgHKypuNqmqhD2z5X2ERYeFWpQ611lPoLpbwMHt9hSwkQ+Kus8+x41nWdN2Ewz5i6j5Rwl1rZpXSqUz/Lsmo+b0670L3nY9YI2qAnXK43yv8TuEB+73PXZRHPLPnSKH8+DZ8isckDrMJHHxa2WPc94/ISzyaT9AaLiHVTeM359uufl3abSr14SNtLN2/aoB7pTq4+dnoD5QYczFJSIHYKw065jpzIIZqJff+hDWxZP5Js2l8qLjX9pUicz2CJqrFHd6hF+xQvnNcrEVAKawLp5P/MsvwWVLVGY9Kx40/a9VsIL7a3ZuEsJWAQAVGT7vi3179qMpozqZ4TU/jFvJTkK57Sta7ufMGx2bhZIF8Ps87Zl9f4E1n5AGdg5DbPExB9660MubT29PFWEEMyFKzkY4tbtAMJaBPi9EDmE45rgN7qLe40DJrbuOUTZeeaaI2sGZcb5c+EawhsHED79X1hABerhvkrC0WL53shG51jDmvbnEsUOTn84cEFXeDCLF89btbeGNa4Dh8/Q1Wu36IuvfqTBP05lv4l948cO7gP8fjA/Tpm9mHnEU+242iZm3Jow6cL5RqV9XRdaOegcmyfNBHMWQrkzpEujAgPMx5CGSRM0aMQU9kPeYMxXW01GcGz52m1UvlQRtirUcmiWRjlXqXJYZObXP0ymq/63lJ9p1/6jrNUXc5VFtMvZv4rRZhcDFUODmQnUSA+O4rBEDdnj6nlsCd2Ll4KSlGtPHlg4GEZYOxKwqAelYH+JWeg8Y/usomd8g7FJzN3p52l/K02hYuliKtbcWX/hKEZY30Y2d2inNfwd2lSFupl5ll+8SB41EB47cc4hO8xAMfs/dPQMPeEoJWeajz0mePAQtYMonsAHj9i09pZhqkDkymQeFKITdmj2mWCwsx34se4gV85MKroMEWZXWBOq1aSH6uJqFhh6fQUyxk61RE614YV29giaXBG24X/Ba2469v1RFdl94HiENu3Vtc1LxSY4aBFwssPmnSZVMjp5+oJtMWMfZhcdMNC4XjXDpm0UcDExY8wA+qTdAOo7bLxRIyVHPiHfTI/5Glf56AuVheMj2SmOUPDvec1Ll36jqF3P79SxLBnT84BomVV34Oi9L7/9mcp/0EYde6d8Cdq4ZTfVZY1v2eyRLIAy0cy/lqnB/6dvu1KrbkM5YnCYKgtz7JA+7ZXjXWXY/IN9v2nHb1QuJgFDv/pclY1Km6is55uRtR8m71R7uO460KR08fyq/827fEt/TPg2wkK9pGzugtPaTGgTE5m2n9WlX3+bR7Wb9VT8IMQ8jB5BAD+glCkdT+J038HbUf/M7cK8+jlrgeOn/0MffNZdHYL2oQSUuWAspD1CQkKeBbNTFPbwR48eUZq/q3DU06qITc1kJ+4Lokt3LIN9miTeFN8UfmvbfNDTZ3Q7MITNWJnJK0kqeup/mryC7lFqNnWZQ+dQD2VvPAhW0eEZkltmF7b8YnXfHqYOGsTAXal2ezWQLJg+PEIIIartP3TSWC9gjw3MC0ULvUFw4MEvAELY4RU2ZWkhg7xdq6ZjY1D1hl2MiC5k4oGq9793qTc76YeP/Y0QMQUym5j0Q5c7Z1YV8vjXovWGfRxlMRCEcjw9BkaU3cFmD1CJ95qpbe3331areSEEEEEGGj24G8/SCqs0/mEmbR4MwQez3e0rpqoyLboMUf4i+EqS+yVV/hD4OEAaC6QRstyq+1Al5DbOH2f9hKKAibCQ7526Fq32u74djNBoXaR09RaENQgge3iM5xh9mDKG/mQ5X13PvF0/7xcVNqvzMPPWgQyR2cd1HWdbaBeY0RdkMyfCRzVhIdr7jbpyCGhXyslaB6KybH1LCHPef/g05ciWXoVr67rY4nruZUdtITaHYZKBoAdMGrR/BfwhkKDtQCs4cvIc2/2DqFjhXMrnZual05Vqf85rbUqy3+oTfs/alQi+gai0qXli62r75joqzdcWjnV9Tubj/YdP5KCOg7Tmr7HmbCMN3E+cOU+FWduHUNSEiLLy/2tNn3DofRc75lNdLjpbaGkH2PyakSeP2TKljw6LKNcJ12WjXDX2KmTiAR4/Z8IDrSdg81b6ZN6U5ukVSn7rAKWP/5DSJPWOIDx0WfB8KcIjilBNnbNMDbYF8+ayKzxs2cFkowdxHIPZCMIDNILj6BHJAdLhhOb4dXXA9G94vw5K7ddhqxgYH/FAAsIW++bBEvk6T5t5Pqr1DnXksEiYzUDwu+hZdRY7NzbLgTAyElbng4N4YWONKuUN0xTaNAtCOA2BAWzoCOXVwgPhjhoL8BkZ5lf6tN77ToUHyobPY8lKqFqOkWpfn7vOw1bnwaSD4IZKvEhRE3AtWayA3uVt+Dkj8/qNu6Zjz5/ESmkIYrPwsOUKR62t8EAZmGtKvZkvgvDAMQgG+DG0hgoN0TzQIvhBm8ows4efDry0aQg8HBF42XMsR6VNM++otm/U5fvJfE5GPifaflZH+dq6fz3WrnkTuJfi62wWHpc5GODTDoPUpOPT+tXM7GIkjRXxuNYvSnig026pgcQImu7GxFUNhAfGih9+rrQGZzNQswbSp3Mz+h/H5B86fpYQuYLoIFvCKzuucpRS/tzZYjUqw7ZdmJJg88cDBWe5+YGyLfu8+5hpnuaZK2z+wCBn9oxWWMB5D8c6BNumxeNdGsy0lpSHtatB/B4oDLb28I2s75iRwplamCNuMKDZErTOa2y+GsEL8BC1BFr8249W77KyrfM8+9CusHBvWN/2PLhnfx5WMVYXaz4QvdQ4FgbXGOukiREWA/7+90rCu6gcCRpTceVLmrdsE7VrWvuFDvLmPsR02jJFjGmuwi/aCGAh2jvsFEuTMoXdWZgjxpgtOopsQR2s/LW3+tcRv5jKx4BrDkWMKb72+GBghn/FkY8Fq5uhxZQs4tpMGG1AW4Pmdvz0eWrYtp+aVY4b3tNe807zIECT+eV2WGbUxD/pL36HkyYsNjO/CFHnx9QWq80XzfwhptjFCJ9fR0QtWCBGGn0OJniB4aBerVzmAI0Ev7hEIkDc7GoiMuhVeOOpm8HmUnei8wDPHDuAprNJ8ez5y3SXHeHm9SsuNepiocK8FuY4O9cRgICFly3sLFJzkZUUEwReGAJiwnpRULtqwnKxPzBBIDQT9Hb54i9slu9i96SYICAIvAYIiAbyil5kmCAacZinkCAgCAgCLwuBiN68l9UTaVcQEAQEAUHglUJABMgrdbmks4KAICAIuA8CrgsQ7/DFMO7T/VekJ4LdK3KhpJuCgCAQFQRcFyA5K0WFr5Q1IyDYmdGQtCAgCMQRBFx3ope2vFeITm/kd0lZXhERRzCIvdOA5gHhobGLvZaEsyAgCAgCLxwBQ4B4uvIhJgyEMhi+8IskDQoCgoAg4I4IWJmw9KuY3bGj0idBQBAQBAQB90JACRAIDvy8PPFxFbzcjV95LiQICAKCgCAgCDhBgF9g6sFvMeX34PPbNdXbMzPwpxiPzXNSRQ4JAoKAICAICAL8VmaAgG9nKA2EP+8YWKA50Y5JLET+5iOiichNIggIAoKAIGAfAY/QUP56Ab6tEBKifk/42w1e/nvI9zB/BOfKPq71zH5NyRUEBAFBQBB4rRHwgPRgUh850UIEn0JFGl8ACwkNMb669lojJScvCAgCgoAgYIWACuOF+QrkxSYsEPZZM+FPQVoEC/JC8S1xIUFAEBAEBAFBIAwBpYFoNLQmgn0IDwgN5AkJAoKAICAICAK2CFgJEBw0Cwxz2rai7AsCgoAgIAi83ghEECCvNxxy9oKAICAICAKuImC1Et3VSlJOEBAEBAFBQBAQASL3gCAgCAgCgkC0EBABEi3YpJIgIAgIAoKACBC5BwQBQUAQEASihYAIkGjBJpUEAUFAEBAERIDIPSAICAKCgCAQLQSMD0rp2ua1H+a0Pi5bQUAQEAQEAUEACFgJEAgMLTRkJbrcIIKAICAICALOEDAEiBYe6iWK/B4seReWM9jkmCAgCAgCgoASIGbhAQEib+OVG0MQEAQEAUEgMgS8bYWH+h7I3v2UZMYs/rDUfrwcKzIeclwQEAQEAUHgNUTA+KAUtA4ID889+8i3Qy+iDvxlwtq18G731xAWOWVBQBAQBASByBBQAgQfjnoa/JQeP35Mybp9SVTyTaI6H0ZWV44LAoKAICAIvMYIeMKEhe9+QIjgp8xW0DyEBAFBQBAQBAQBJwiohYSGH4Q/X6t8HmK2cgKZHBIEBAFBQBAAAlYr0SFIhAQBQUAQEAQEAVcQMNaBuPTN85/GEq39l+jhY1d4Sxl7CCTyIapcgahLR3tHJU8QEAQEgVcGAUOARNpjCI/FayItJgUiQQDCV+MoQiQSsOSwICAIuDMCViYspx2F5iEUcwgInjGHpXASBASBl4KA6wJEzFYxe4EEz5jFU7gJAoLAC0fAdQHywrsmDQoCgoAgIAi4MwIiQNz56kjfBAFBQBBwYwREgLjxxZGuCQKCgCDgzgiIAHHnqyN9EwQEAUHAjRFwPYzXjU9CuuYeCJy/co22HzisOvNh5YqUIF589+jYS+rFso1b6cGjh5QrcyZ6s0Cel9QLaVYQiD0EXowA8U1I1K6p9VmE8qr3O3eJ1mwkunQt/FiXNkReDhSj02eJFqwkqlaJqGA+rh9ANPWP8LrmVGR88LqWHNnMNazTN28TzZjLC/5c6I91zdd2b/mmbTR57nx1/uWKFaZMaVPHWSx2HDzKr407TLfuBlDqFMmpfaO6Ec7121+mqJeUFsmXh6YM+SrCcXPGDX4Wfv7tb5XV6IP3KE/2LHSN78Hxs+eRT4L4lD51SqpRqRylSZncXE3SgsBLReDFCJC0qYhaNLN/ou1aEQ0cQrRiA1FKP6LWLeyXQ+6u3WECpAoLkapEN27YFyCu8IEAKc5vHXZEly4RLWFh5Up/HPGI5fxrN27R/9p2Y3nrSf/9OZm8vbxipcUvBv2ovlBZ4+1y9L93ysdKG9FheuLcRfpp2hxVtUvzhvRGtszRYWO3zj8r19OwX6dT1owZ6J+xw6zK/DLrH5r2zyIjL1HChHYFiFHAhcTV67do6YbNqmSBN7IrAXLp2nUjDwfGz/6blk/5iVL48XMSRQrhF6V+88tUq1rZMqajiiWLUq4smazyHe1s2rWf9h87SR0/re+oiNvkD/p5Cn1U7R3KnztHrPZp/fY9NI/vlb7tm9Ovc+Y7bHPRun/pFk8SCryRk5Zv3EI9WjQi30Q8sX7FycFUP/bOKuTyFXqyZy+FXvO3NJIkCdEPQ4kypbNqNPTWbXp65Kj179gJVSYk7J1d+G57ZOSIz1Pmpfk/4++gKGK+Ou/JoSNWrB3xsSr0gndGTrNoX+9VKBtrwgOntG3/Adpx8JBhnnJ0mkXy5KQyRQqrX1LfRI6KxVj+hav+ql/o22V/nkzEIGEwALVvXC8C1zX/bVd5CeLHp15tmtDEb/gTCHaoSrlSCot3SjuZqNipp7MK8uA3btCX9GHlt1VWCH9qes3WXfpwlLZPg4OVMFq1eStt3rmH1m3bSb/M+osadulLE8LONTKGm3bupbnLVkdWjCBoKnzShh4+enGvPLJtc/G6TbTv2KlI++qsgC1P27J7j56gnsNHU7KkSQj3u7M21/F1W7hmk9IkN+/aR1WafkHXb92xZfnK7b8YDcQES9CoMfRkyVoKZQUgfutPKXG3zvxKR5ZjDWoTTQ83RwWN/5Uez5pnqkmU0MOT4kXxTcGO+PCL6ymIX2MPSjxlDMUrV5ZCzl+gB/WaqLz45EHxU4ebCxzxiWp/FPMY+Hf/4SPasN0ymHRu2sAhR7wg0yMSzFwp47AB04GyxQoRfq6Qq226Wi4m29ywYy/dDgjggSEpVS5TIgLrgPsPVN6bBfLRx9UrRziuM76F+TMScnZ+MF2VKpRP/Zas30QQIP43n2/Qafzh+/RFmAYRyPdQ0y+/ZbPjAoLJsTBPAGKCHgQ+pMdBQUprjQl+rvCwbfPfPyZR/HjPN7zZ8rTtxwo22aZLnYr0dXalzczp0tCqqaOpfIPW9O/u/VT3vbdt2b5S+8+HcDRONSELi0RhppaQP3iWBwHC9CxvHh6ywylh5XcoYcqU4RlILVhm7S+xPmp3zxmfRB4Wkw+/xF4R2k/uackLyzI2zvgYhV5g4pff/+bvuDxTM9xUyf1UyzDptBvwnUo3+qAa/b1iHd28c4cSJ0rEKnYLqlqupNHDLkN+oj1HjqmPiIFPPC9vKvdmEera4hPlu8Dsqvuw0UZ5JNb8u53+45se9HGNqtSuIQt9pv6jJxr5KoP/zRk1OIK9/ib7rHoMH0PHz5xXvgGfBAmobNHC6gHEYAlq0/87OnX+IuXLmZ2CQ4Jp7+FjSgDWq16FerVqrMpMmLNAzYSf8Fc0NfX/aQIPGPHU7o99OlOxfG+o9JIN/9G8VRvo6Mkz9JT54TwzZ0hH04b1c2hCGDPzT1W3dYMPNXu728R2TBAwKzbqPsCq/Fsli9HAjq2s8g4cP009vhutBFVSX1/6iPF0Rp58X0KABLMmEVMEE8rQbp9To279aPwf/9D4gb3UoD9w7BSloYQEh1Du7Fnpp76dI5jNQrkv9spdZwE3ZPxU1cUabbrRrB+/oYxpUtkta2uKu8uCuX7HPlSxRFHauGMPBT58SPly5aAx/bpR0sS+vP+IujFmh06c5n4+o+yZM9LILzvR3Xv3I7TZss9g6tn6M3XPYzLQbRjfd6fPkTcLlUr8wbxvOrfmeasnte43jFInT0bHzp6ny2wV8WVz5BDGJDlrFbbngcHfTMe5Tub0aY2sWu16GG3iWew1fCz5syUlXaoUVl92Rbt+zP/42QtG3Vc18cJNWGagvPh1HoYpK3n4bF+VKVuG6HOewZl/eXOZq7uWdjc+rvXaaangkBBWhzeqMt1bfmKUhcng3oMH6jeBBwQID9ADfhD7jPiZLrJNXdO/u/eyieGREkKerKFgcN24cze16TdUFQm4H2jw0nVQRvO/ev2mzqaLbErS+Xr7xGagQ98+/LwHP/ynlPBAZcxS12/fyWaUfgavCxzJBR7b9x+k3YeOqv5h4Jy7bJVhEkHbKIP6mpDWbaPvoG37D9HAMRPpAMyVEB7e8dT2zMVLBA3OHh1mQXPhylV2XCdwqF0EhQku84RH83oc9MToh+6PGXeUe/Q4iFr3HayEB/bvBQbSlL8WIOmQPD0trWntx2HBKB6A3wi4nL98VdXs99NEWrHpP3r/rXLU5/PmCouGXfpH4OqoHAbUGpUsfrIuzT5Rg7OjsrZMnzx5ysLgHi1dv5las0Wiw6cf05GTp6lr2EQGfA6wWerzRvWUQMZ1+ubnqWoQt20TQuM6AmGYPu0xUE1K2jSsQy3qfUCr/t1KX44Yp45d9r9Oq/7bRrmzZqGOTRoQru3AsZPs8lQVTP/us6bllzixkWNuE8/RLe5D07o1KQ0LkItXTYFCXAPC+94Dy31qMHgFEy9cA7HFyDPsAoTyLMI89w8+dZpCzpyxKh7v0hXrD5hYHbW/42587PcyarnT5y9Tg3CeHNkoe6YMditjpt2T7fNb9hwwTF2I6BnarZ0qX7ZYEWrON7cOLx08bhotWLOB7bK3CbPocm8WpL/HWLSZ+p0sNv7ybxalrs0aqvopkiU12h3RuxNB3Z+1eCXNX73eyDcnvpv4GwWF+Zo6NWlItTjMd8TkWbRi8xa65O9Pq7fstNKQULdb88ZqBjdr0XLFat223cqJ3521JPQdtuTRM+eoY12bNaLybxZW6QzpOGiDae2WcH/BgvEjlGaFfv7MTvDECX1UGdt/P4b5lT75XzW7pr9zl64a55Ejaybb6pQlQ1oDt0+69lMCy7bQ74tWKm0C+bmzZaEGrH2MmPK7lUC0rZPcLylfl5u0i4VqTBMG/dsB9xTbNTyYlmat8Eu+dzR98/MkOsvPnpkclbt++w4Vy59H3QfvscYLzdJRWfC0d/82qlWdPqlp0cjOXLxMyzb8q5quXrE01XnvbSpdJB+d48jNFIzJCTY7YzC2bVP3ddehY+qehq+qXtV3VPbhU2fVvaPLZE6Xlob3bK92b3D//+D72BlPFJy9eBVdYqHQvO7/NBtje+rCZTVpG96ro2ECrdiorXEcifJvFlKaMZzw0fWRWTF8STsvV4AUy88OCF916s8uX7aCIHjOXHo6a75VXnz4SqJI7sYnit23W3zm/KUqv1vzcO3DtmCJQvmpbtVKVJsH6jIftVAz+VMXLhnFqpQrQd9P/p1u3L7NA9cTy+eMw46e45ldOg4bzZYpvVEeiaRJfCPkIR8mNPxSsinAEe07elwdgrYDjUWZ4Fiz0LTzwBErAQINAOGsMGtoAYIIIESBwZyB3ykeXDRl4JBh2/6WKlLAEGgNOn/F/pnCVI8HoC/bfKarWW0vsSMe2gqi2lp9/IHVMZgken8/lrU4S/AHzqNymeJWZbAD84TRDy5jj46xKUXTDyx8Ee4Mc8hfy9fo7AjbymVLKhwgRMp+3IoH0YJsWuoSoVx0Mm5ydFDe7NlU2DDMmVv37qfSHzW3YnXFpHEivNiVcmAQWVl7AqTgG7mMtnOxkEZb0Bi9vL1pAJsqoVEDf/j2kpg0AKOSKXGUhQXo+4kz1c90yEimT53aSIMf2nNGvy1YriYuH7z7lt2oRC3wKrHpUlNenuzdMDnNuzVvRPcDHykn/NRhA2LM/6Tbe1HbFy5APHhRFRXITQQbdbvWxnmGLltppJFIkCsn+ZQuapVHMB3sC5+BeeDmKWmZdRoFoRaabnZX+Bh1nSRiio+TJlw6tHDtJmV6ypAmNRUvkNdhnQJv5FDHMKAlZhu7MqeEOX+xwA1rFBwRbuyYJj3DxcNpT0u54n/Tqkmt4SRLwtc4jOBwjgpVKVuCJvH9BpMVtB8EHeCXOX06mjL0qwh2/VFha4pqvF0hwiJIDIRaeKAPedhHky6VjY/Oxc7BtAHCIKjXyuBaOhMg8AvM4bBymPOeBj9lTcQ6StDFpiMUg5kP98abhfJScj8L1oj66t32U1X23v2HyhT4JmsVmC2DXC3nSlnF0OYfTEGadh86rnBKGN+bvh79K6VM5kczvv+asrIfq93Xw9k0FT4p0nXMWz2pGflVNypTlCesTNBezFF7Xo7WnZkZmdIfvV+ZzvMkaBFr7G+VKkbvlLKOskvok1CVPnf5GodIZ1RpmAgT+YRrvTPYirCCw3nbNqxHhcKeVVMTr0zyhQsQ6siqIn4merxkGSXYwjdnqvAZrEfDj4nwMxNmrIXKhecgVHT6xPB9pDBD/Dhc/XaJjzUHu3sxxccu8yhk6vDSDo2dx+KfPh8+O4czEpQozGwzctpso0Wo9tUrlKE/l63lOPZ/jPyYTvhy2/BTYHbf8H/vRWBflBfbxTRhhjp39BAO9T1KC1ZvVH4V+BBgj569eLURjYR2oels3rVHDVad2BZuS2+VKELzx/1AePAXsJnu6KkztJZDM6OzLiYJC3QQhCnahZA0a4e2bWN/FEcoQnjAX9GnXTOCcIwOwQSH8NQQ9qPtZ21r9qIVHOyQgprUrk7xmTeiilZv2U413i7LWmUy9hX8QucuXqHqFdknGUZ4w4Czcjr66Qy3hcguZ2U1T/N26l+LWRstTQfZWb5t30HKhkknR2AigCAHp7OwyW3jzn0qwCJxWLi4bZuaXzk2FeGeGzfrb67biQXHddYkf2a/RMpITUeOeMIs1+/zZrT74BFax2ZSWwGCYBU8S4N+nkzDurdX5jIIRbMAWb5pK5UvXpRaf1xLd/WV3L4YAcI3awTiCI+nJ07Qk42b6dmYyeTDF5keP+GnioUE0nYI6zWUUcAev7DyoVzG01U+YXU8ngar1DNTVI/KiCKfMHaxtvmP/RnwUSRlzaua6YG21+A2dkJjUEJIKgYeUMa0adRWR/Lgwfqo2rsqb3XY2ga1Y/MPM2UMdnAwBz19EmF2blPc7m4OXqyGVdvoS36evb9XobQyQeDBGsfh2hmjsWodZixNwOZtng2aQ5YR6fTw8SOOVCuoQmFRFusTIMi27D1oJUB+Dotqq1C8GEfghGs9mj+2iMLpwwIXM0/gsZsjxKIjQHJkTq/MROCJdttyNNsi1iydEYILQG+yplLr3QrOito9xuOvog07WAvjHwhmwmLMb0jXz5XwQN5PfbtSq6+GUNv+w7CrBt8h3dpHWGfkrFwZNh1C0LXo8w3NHjnYZZ6qQf6H61O1WQe1C41jJEfVYZEsIvEQTFGyXjPVr3Lsk4PQ/2rkBPqqbROrNlEZ9wKEc/8OrVjjnky1OYgDhOcHPA3icpq8OI37HWR7HrYLVWHuuhNwX1dVW7QJE2abhnVp4px5qk3wgxANY6vKQetLmZctMa84efBM5BkGlCC+aI84KifNOywR1y6MeFqVnYc0RqxgnXMxJDzkUh9JwOLAl8MTfU3IXmb1HGtE7FE8Lp+OncP3eRC6+8yOUOJKCblMKi7jCh/dxl3md5/5JeKnLKVNGG9U+Gh+Lm/t4eyk8sed+ypzDKJbPmVHoy3tO3qSWnF0jyOaNKSvCm9FqOyewxZTIB7QR+wDQUSWpmE9vrDyR1Rv2cWI6EIZPBB1q1VWvoStPBB3HvyjqopBVZN+CL34WmydO5nwnqyPOn5p2JchvOJx2C0GC9DY/j3UGhLdFnwai9jxDSpRt6na1q7yNvXjFb+aEMVSpWkHg6duc3S/7orX5L8X0wRevZ2QTQeYTSMMVJtHGtd63wgIgFB8u9HnyuENLcM2XFO3p7dvf/q5ssO/V74MDe3+uc5WW1yjc5cs2p89POAgbsQO+hqtHfsvoBXari8p37C1MsOZ+23VcAzuIET36OlzFMjRYkXz5TKEi20TzsrB3OjPNn8VwsoVnZXVfLGwDrjA3ATTD6KyDH9SWCFcc5iGYPbBYI06iXwSsJk2Edm2qfliCz/fAdZofHjxZ1TWuzjj2Z+jwrayhrRm+lhzU0b6zr0HdOLceSrMPp2E3EdNiKIs36AVfcKh9l2aWoJS9LFXbWt/qh8LZ5HZKx7Z/tLw4GIWHmg2I89cbMvpfQgPUBIefHSe7RbCA+QKH1WQ/yUL42crPKLKR/OLjS0cr7DlY/VzIzsmINs2sb5CD6g41pgHLr02YnCXtgRHJY5DK4DwQLy9Jlv5/V2PDmoGhUEfhIFRD/xPWJPEvnmw1GWQF8LhsyDYrMcM6EF+YT4NaCKaB/JSsxkFpMNVPe3F25kmGigLDaRby8ZqnQvORfcDfQJl4FkfotEePX6szFZaeOTikM1On4WbR6f9s1QJD2ASmfAAX43rXR4gbAnnpPthPqbzHrFWi/dZdW/5qfkwm1NKGvteWl0wcojdfxEnYKbDMZqE36wAr4LHIkaYtRyRs3IY3LXwQH1nZe3xz8BrR2yFB8rhmkMAgD8IWGozlm2bqkDYP70oMyrCA1Wd8Wz7SR0Vdtyd15jYW3UPTbZ04QJWwgOBGggrhmDCM/mq04sxYb3qKLlB/3V4KRx4eBgjo3c4QuiH3h3pCEeh5M2R1fB/oB4euunf9acnrO0dPnmW8nGEiF7IZ49v0Xy5acmvFi3D9nglfpfSrnkzbLPt7sOUtHbGL8ruD+cnFv4h7NXsKF82aVSEus74N+QQWPzsUY1KZXlNQlkOE76hQpMx8GdhQaYXXqIOHuRZ7AcAITLGFcKAhbUbh06dVmas3Fkzq4ENdRdNsGhNkfFBmGrd9yrx9TlHeTiUV/unzPUwa8fiy2XsbIUAAkFjjKuEexCaZyq/JK/EKSIAAia63xeu4Pvhod1raHsi8MFky5ievuvRXq2RsT3+qu2LAHlFrlhO9iEgtLZtgzou9xgPpF7nYa8SZpdaK7F3PLbyIDBKFMwbW+wj8MWDrqOdbA/eZA3s7dLFKS1rQK7OThEO/M/KtUpzg68AL1PcNGuCLetI9+GMdob/niMn+M0CFl+EZoaJQVwlaBfabPmqnCP8IljV7ipBI8EvrpAIkFfkSjpau/CKdN9tu4nXWHzbuU2U+teb3+EG88rew8d5tfE9JXyixMDFwtCUCud9Q73TCa+Mb1ijiksmNhfZSzFB4LkReGFO9OfuaVxkEEUnemQQwMG4mF8bDcJMFXZkIUFAEBAEYgsB0UBiC9mXwBcmgMa1qr2ElqVJQUAQeB0RiNwb+zqiIucsCAgCgoAgECkCIkAihUgKCAKCgCAgCNhDwHUBksjHXn3Jiy4Cgmd0kZN6goAg4CYIuC5AKkf99Qluco7u2Q3B0z2vi/RKEBAEXEbAdSd6l44Wpms5yoc/BCUUTQSgeUB4aDyjyUaqCQKCgCDwshEwwnif8ntnAh8GOn4X1svuqbQvCAgCgoAg4FYIWJmw9Ptl3KqH0hlBQBAQBAQBt0RACRAIDvy88CZavKQs7L07btlj6ZQgIAgIAoKAWyDA75fD++/53af8VS78qFQRogWL3KJz0glBQBAQBAQB90XAooF4hmkg/NGWwKaNiX6ZRjSfvwkimoj7XjnpmSAgCAgCLxkBD35lNL/RGt9tCFG/J/xFP6+9+8l3xiyiHftFiLzkCyTNCwKCgCDgrgh4QHowqe8iaCGCj9cgHRoSyp8gDVHH3PUEpF+CgCAgCAgCLwcBtQ5ER195sQkLhH18zOZZqEWwIC/0meW72kgLCQKCgCAgCAgCSgPRMGhNBPsQHhAayBMSBAQBQUAQEARsEbASIDhoFhjmtG1F2RcEBAFBQBB4vRGIIEBebzjk7AUBQUAQEARcRcBqJbqrlaScICAICAKCgCAgAkTuAUFAEBAEBIFoISACJFqwSSVBQBAQBAQBESByDwgCgoAgIAhECwERINGCTSoJAoKAICAIiACRe0AQEAQEAUEgWghE+CKhee2HOR0t7lJJEBAEBAFBIM4iYCVAIDC00JCV6HH2msuJCQKCgCAQIwgYAkQLD/USRX4PlrwLK0bwFSaCgCAgCMRZBJQAMQsPCBB5G2+cvd5yYoKAICAIxBgC3rbCA98DOXbbgxadSkwHrnuSvEoxxrAWRoKAICAIxCkEjA9KQeuA8Dh6i2jwFl9qVMiDquTiLxXGqdOVkxEEBAFBQBCIKQRUGK/+7gfMV4tOJVTCo6oIj5jCWPgIAoKAIBAnEfCECQvf/cDXB/GD2Qqah5AgIAgIAoKAIOAMAYsGoj9pi8/XcmkRH84gk2OCgCAgCAgCQMBqJTq0ESFBQBAQBAQBQcAVBIx1IK5883z6vme09dIzCnrqCmspkyAeUdlMHtSsqOh0cjcIAoJA3EPAECCRnRqEx4azoqFEhpP5OAStxkyEiBkZSQsCgkBcQMDKhOXshKB5CEUPAcEuerhJLUFAEHBvBFwWIGK2iv6FFOyij53UFAQEAfdFwGUB4r6nID0TBAQBQUAQeBkIiAB5GahLm4KAICAIxAEERIDEgYsopyAICAKCwMtAQATIy0Bd2hQEBAFBIA4g4HIYbxw4VzkFQSDKCKxdvY4ePgykrNmyUuEihaNcXyoIAnEZAbcVIPlSE1XM4klZk/FyeV6Hdy2QaO2ZUDrkH345SmYkKpDGsRK14VwovZ3N8XFwWs88zweE84xLqTu379LkSVOsTilv3jfogw8/sMp7GTs3btyk6VNnqKbr1K1NuXLntNuNCeMm0v37941jvr6+1P6LdsZ+bCdG/ThKfR+nQMGCNHL0iNhuTvgLAq8UAm4pQBoX8aSP81sEh0azICeqZPekeceIpu0JVdmlM3pQtVy6RMRtQJAH1csXMd+cc/GuBwsQ91/jsnTxMhrz0xjKnDkLTZ4+0XwKDtO3bt2iNatWWx0/ffK0ywLEUZsrV6ymdWvXkZeXFw39brAVf1d3/K/5G33Lnz+fQwGyeMEiCg4JNth6eXq9UAFiNOxmib/+/Ie2b99B9wMCKC/jV6lSRXqzxJux2ssjR47RsiVLqUev7s/dDiYF//w1jx48CKQvOrV3md+EcZOoWLHCVLps6Qh1tvy7lU6eOElNWzSJcCy2M378YRTV/KAmYYIWG7RsyXKeSD2gBp98FIH91SvX6PffZlGHLz6nRL6JIhyPzQzn0/PYbNkB7yLpiBoWsAgPfjkwrT0RSKuOPSCkQXXzEhVMa0k/Cw1/p8rpG0/I9nf1ToiRd+1eiKUS/78VGJ5/KzB8cDIKuGFi5ozfVK+aReHhSJkyJb1bpbL6YeCNKjlqc++evbSPf7t37ooqyyiXr1nrf6r/SZMmjXLdmKhQsdJbPDCXoHIVysUEu+fm8fRpCLVq1oYmT5xEly9dohB+MFYuX0F9en9FM6dZ7pHIGhn38wRq1bxNZMUiHD96+CgL/TUR8qOTMfiboTRn9hx6/PhRlKqvXL6cduzYbbfO5s3/0sIFC+0eczUzutisWrGSjhw67Gozqhw+o1GrZm3atGFTpPU2cpmV3IY9unT5spqM3X/wwN7hWM1zOw0EH7LSNHDFLdrtzy+UYjpz+x61K2cZRKB5HPIP1xoCHoVSh4XhZg5d39vHjzaftuTnS+NNo2r5qUNTdjykdaefqLS3T1LycDsxqs/Ast3y31a6e+cO+fn5UYW3Klgf5D3ciB6w89mkk6dIRr379FT527ZsZVv+Q5V25V9kbbrCQ5cx90/n2dvaK6fNVb179lFCy1492zx7fGzLYN+Vcho/e/Wjk+dKm874Tpk0lS5evEAtWrU0ZqPBwSHUuOGnNHvWbGrQ6GNKkCCBMxZ0+/ZtusO/l0nQQHPnfiNGtBl9Hl26dabgp5/r3Whto4vNomULydvbMla52nAov7w26PFjpVm4WsfdyrmdAMnJPg/QvstBtO9OMvJKYBkYl5wOpn2XrvFT/4wCQiEIfFQ5/EucwJOalk1p7CNx48EzWn36GcVLlFzle/uECxzP+D6c72tV3p13Jk+0+DEaf9bY6GbfL/vT8WPHKEOGDHTixAlKmyYtFShckNatWcs3sjd9M3jQc5k07LWJQfz0yVP06GH4rLF+bYtK7cVt/vn3H6p/ly5eou+H/0hnT5/hr1wGqTwfn4RUvUZ1HviaRRjgzp49Rw3rf0J3WEjCx9GtR1e7gtI4eQeJhfMX0e8zf6d79+6Rh4cHpUqVijp16UylypQwagQE3KNJv06i3bv20G028aFc4sSJ6aMGHxsDsr//derQtoNRB4ky5cpEGOyGfDuM9u7eY1VO71SuWoU+79BW7d6+dYe++fobOnXqlPKnJPDxoRIlSyjhHtlgr/np7WKeYWfNms3oK/K9vb2o34B+9Ov4X+nsmXOUN18eFhB36esBg+g0m3S848WjsuXLUs/ePdhs9A9t2fwfa/Qh1LRRM5oxe7pmrbbTJk8naJi+SZLQgb37yCueN9WtV4eatWiqjuON3bj3cN7AruLbb1HvL3saExgzMwQg/DL2FwoMDCScc/369ahJ889o6ODv6NrVq3Tdw5+++rJfBDMo7oeBfQeS/3V/9n96MlYlqe/XfYz75uiRI4T77gHPuJOnSEH9+velAoXy05+z/6RdrBWPGTdadQP3w2+suT8MfEgp06SmXr17UqHCbN5gWrl8FU0YN0FNqtKkS0fNWzalm9dvRsBm7OhxtGHdOnUOqdOm5edqIGXPno1sqUnjZsqElIQ15cGDBlPN/9VkbYjNr/yl14JFCvE5DmGTr/VM9dNPPlNsJoz7lUL5elRma8GA/oPo+NFjPMyFUpasWenrbwZQ2rRpVLkHbPZr0aQVXblymbHw4WepOX1Yp5ZtV+jwwSP03dDv6NbNW+Sb2JcnFQ2p/kd1I5SLiQzrM4oJjs/BIwWb7xLEswiMcwG85RsU9M27nvR99fjU6Z101Ond9FSroLWdD9flE74v/t/edcDndL3/b3aQSMwIQew9WltRVaqqqFErRhCzVlFd6q9UjVpFqzVDaatqr7YoP61a1Zq1EyEiQRaJDBn/5zlv7pv7Zr6J9eJ5Pnlzzz37fO+95znPOPfqf+0ejSryAUaXu6Lnzp5Xqgp+ANvrjN/XSWxlPfL58+fpZktGcEgw9uzarcL8eeLly3xz1yCVyqzNoEBDm3qbBPeBfywhacST2PmzZxXz4EmGiVUVmzZsxNzZhodby8vHrZu3KObBYZ5sptADGBQYxKdm07LFy/H1wq8V8+BCjMmtW7fwyccTcPjgYWM9UyZ9hl2/7lLMQ1Prcf+P6tRx8XFxakza2PgYdP2GsQ4twH3U59GHb9AEyRQTHYO+vbxxlvDg68LEq84DpG4ZPCBnq+XI8EhlD2rcpJGqR9VFfeU2ypcriy9mzUC58gaj4PChw3HF3x+9vXujh1d3mgT34vMpn6MxMZKy5cupCX1IBs4INwkzvqduERMd+e5IuNCE+MOaHxBH7Wh0gdL7+fRHlerVsJdsYau/W60lGY+XyNY2c/pM5M/vgvc/fh/NyEazZvUasqHsxFvkNOFMDKqYuzu6de9qLMMBVtGNGj4aEWTb8Rk8EP0HDSCV1WEws9boMjHi2i++gN59e6v75cMPPlLY3ggORiCp9ZhYLcT3MtLkYAAAOhJJREFUQ7kK5TGWbDb58uTFe2PG0XUPp/FdwJxZc1CmbFnVN077cvZ8NKJFgh6bE8dPYtuWLaqd0WNGIy4mBtOmTNe6YXLk+//WrVBEE1NjxrZ1y1YMGjIQNWvXUpLzvt/3meTnk2HvGK5/U8KGmeT0aTNxjphjX2LWY98bq8YyZ9ZcY7lIwsQxjyMGDx1CuDqr8V26cMmYzgEe39h3yUZlbY0RdP3q1a+HJd8sJhXXHpN8D+vEoiQQzc7Bg7NNUclwuDoxYDsdq4uIYbtFagTLFgf8UlfFXOb6Hf7vwP+eavpmkcFg3rHjWxmu8l5+pTmpJMJx6sQJFCSbR6fOnZR+nFd4uaXM2pwzfw5i6SFaRCsmzf6xdMUS1YyBTRhaLFSkMFq+1gpevXqieAl3NSkMHjAY168H4iCp49IST+Q+g32UVPD30aMqeSWtHD+kicccYuPiup/Wqawsdcz4YhpNQHfw4fiPFBObN3c+fmi0RqWfOnlSHWvUrIlZc2eqMDOYIDJEalS8RAlo4xriM9TEiK/l4eMXc2YYdfhx9MIznrR58mBqRRII0wJagWtS2ICBPmjd5jUs+uobNfHeuBGkJrpmtIo3h66lTI56e1DvHn3AE4tGrVq3Um3fvn2bjNPvoE3bN1TS+XMXcPjQYXwyaQJN3MVwIyhITZhaOf2Rmf5X3y6kVa49PDw8MGb0GFw4nzpRsRGdjdhvd+uMzh260Fj+pyZZfR2rV65REsqylUvVyrtFi1dw5NARWixsxaIlX9PK2AmF6T6pVbumvpiSoJnBfkYr9nr16qi0M6fO0CLgkDEfSwwTJn6kzl1dXZVzyWnKoyffFauUZDl12mcqum79uujaqSt2bN+BSxcug++5L+bMVH2rXas2ZtDkzePWY8MSDFMwqdu60lhr1qxB6sNrKi67fx9N/Fj1v227N/BGq7akJbiIV1u1MCmm2dWqVasK9+LF8Ao9y23btlHM8drVa3ChsbEUrxH3by49g3xdWrRojq5dumEn2b8aNk5dUKxZ/YNaPM2isbENtNVrLXGMpMUtW7bRM/mqVtVDO1oUA4mMBaLikpRKqrqbjXGQn/0aBheHZIxpkaKmotWlnu6QDWTqXiqsIysbe9DfU0286j175oy62Xv27pnhWEqWLEFqn7yKgbgVLUrqjdIqX3zKajfDQllEZtVmEXrgmfQTWMlSJdPVVo5WwwULFMBH739MEkEkMZAE+hlsTnFxpteJC9ei1WSnLh3R/q32ePP1N9UDcMXPP129mUWcPnValeH0fPmcsH79RpU1D63WePLW6/uZybLqihlJ/74+5L3UDF26djLx6mFVgzYuZVtKzLhl9njhH9s1hg56x8g8mFE0fdlgqzpFfWPih58Zhu9yX1JXpHiEUPy//56AuQyktGcpVdfRI38rvPhk3oJ5xNQNmA4dbFjRXkhZlS6c/xX4l1PKkyePmqS4nItrflU8NuW68TjqN6hvrNKzbBmwyjItBRGDYpWPXm3j5laMFjuhabOanPv7B6jzF+me0MiT9uD8dYDUbikrzLo6b7M6KUyG1TV64nOWetu2bquPJinhtroOLgVIPZ6iUipYqABmzEqVcLQCrB76Y/+f2Lh+g/qx1OQzyEdLzvJYjqQbjVi9m9F9r6VrR1Y9MyNjKZxxZvWdk7OTlqwkNmYeTC4FXJQUGR4eYUznQECAAb8+PfuYxDvaP5rFtEUxEB7x39fj0bysIzwLWOOjZsDmc0mIiHNGq/KpDMUEGTpxtLVCbU+2i5jSNVqYMVN6WmnxIsPq/tXXWhof6LRjsbGxI2nVcBmtya3Wzs6AE09quSFz2syu3pn0EPxJKpqMKKOvXlapXEllZV0+2yNYFXSHfubS1YBrxqwBAVfoIbpiPOcAt8nqH37oBpDqZc4Xc5QNgL2Y2PC89oe1pDbwNrErmFSQzcmEjybC399P5XqzfXt07d7FWCIywvCAcx92bNthjNcCvLo1l3gCs6eJ4AwtKjRiCY/pH7LpMPHaqmDBAiqst4NdCwikifOGis/uH09emRGPgzdWsgTBxMyjatWq6bLzxJe2PZZA6zdskC6vPsLV1fAcs4TkUdJDJZ0nGx9LltqEH3orzFiEpRMmloh4pa0RLx5cyelk6UrDM8Txf+4/gEp0r7GdbP//9mtZ1b0x/8sFGDBwgDGOA6zK9SEVWhlikiwBLV/qSwx5oZIk7MiulBXZ0L2cE2LmOHP6F3Clazf/qy/V2MeP/UCpIbV62AaiEastWVJr1KihFqWOjB9fv42bN8DW3jAvnD55Wt03Jhkf0kmqHughVfig1Xx76D6i4w2TXyO6f6a3tMaXbe3QhDYVZkZsN5n2qnW6X9tKmZfJrC5LiWdj76FDB9XN4EOT3oMS79lgio42qFgyqu9htMnqJI152NrYYubsmdiyYwuqVKmSUZMq7uq1VAbABk8mXgXryd7esPJi4y97HempiJtBMuK4SpUqoWPnzia/TmS8dcxrqI/F+PWbflYql0rUJ37YuM5VK1YqSUJfrznhL+cuIMOtQe3Gk+OIUcNMiuVNGQerTNL2i8/ffNOgYjIplMVJvwHeauIY9+54+F3yV7aZRV99i/8j46tGrK7h9lYsW4nbpJfnCWQc6f9X+a5SWfheYJuGhrVWztzjVDKC872ycvkqZftq1bpluqJNmr6kpD/et8Ft7d2zT62sW7/+Wrq8+ogmTRur01kzZoOdGZhBnTx+QjkxaPkYb7ZPsJ2FJbqiJHk761bqnK9OvbrKLribDPmxNNEu/PIrZVhmL6v2HTsomwnjxjaDz6dOp2t4DG7FWGJKxWbf3v1kNxlPKq9LSkqsTgb4JJrok3K5ONP6rx2tUxh1UNANJCYkqB9LWyVIhXrwr0N03U4ZJWsuwwurtT+sUxL05MlT1b2bVnplVSEz+a/JQSA2Ng6/0Z4tdvH+888DWrMP9WhgUQ+1ygerLAp5MXxdCD5oVRCVihomDa4x5G4iDly+h061nZGQcgETs1lk349ntYlhiPeTUvuVoAunxlpWaMWyFepGaNCgoVo5P2jvnGj1yjcgG5bPkT48ow1P5rbJKjON2H6g39SVQOoqjUp4eCgdN6+WeINXZsT2FJ4oDh86qiZzzle8RHGT7IULp6gvKXbj+k1K/65l0K+AeWNat+5vk3eOwZ3vj//9SSv2s0YJjvXaLVq2QK8+XurHD+TypcuUnePCxYvEgCpq1WZ7/PH7n9TGOs7IxuvJUyalK1Pa01M5CDCTqli5PF5p3lzZsthLypeYljsZknNCrOq7efM2OSRsgKayYibIevBQYhY8J7m45Me75Mk2lwyw3r29VfUsvUxK6V9TmtzZqN61czds+2Vruub1EgirUTTiujnt3H9nlT2B46tVq4YGGUgV3E/e6Lhx/Xr147y8n+aFF2tzUJG+HS2OpY6+/cg7bIUvNDUMSx9evby0LEqtM37seHXOjPLTzycb07TAyNEjaOK/iHn0JgH+MbF0WL1GNRVuQCt3durgH3sIDqNNeCzh6LFZs3YNOabsUjYg7iu35UX3jaZGUhXp/jE+GlnrbLgcl9FYWT3KHnU/k/3OniSaNzu0w+aNm/B6qzaqrboN6inJZ9rUGVQBkDdvXmLavup+5Tp7ePUw6Qu3wQ4Wr7/RBr/s2EnM41fOhvLlK5B01V+FH/Y/q8TExOQE4n68SoghA+mA3YXh2zH1ptEa9N74+GZddmG7HxUOJ5tYlClsj+DIBNy8ZwXbvK64f+cmHV1gm8cFiXFRlC9VnNX6qh3tnIuQHcSw8uQ648ICVZK9qzusSfXzOCkjTDNrPy4uHp3adVKT2oqVy1Hcw3Qy5XLevfsrQyg/bKGhYcpbhF+30Ztu8A/Gf6hE1q07Nxub4NUWPywa8c3Gq/yNWzeoKHPa1MryapLdBDXiunii2bFru4rq0Laj0bhcooSHctnkCVSjX/f8AjZ6jh09VotKd5w1d7bR5ZITT544qVaDWkbtgVy0ZJFyq2TXUk0S4Dw8KbDemVdj7uTq7PvdclW0XRtefcYrAyO7QrKzAfeNVRI/b1pH5RwxqP8QXL0aoPJzeY20NlmiGTTEBx3pGml7a3hysaYJSKPmLZort19mjD79BhpXkpzP1t5OSRGcV28s1sqac2RvJXbjZrUlqwC1fUD6svxM/8fMk8ZUtWplfZJaTCTRSorVerkhXpWzHUGzi2VWB0sRbM+qULEiOXkYVGuZ5dXHsyR79gy7qbvBIwM7G0tP7O1XiVyWWfXJxBPtUWJaG7asN1YVSMbooKAQWhhUSDdWlqJYIilTxtOYnwO80NJjw/cqzZPpDP4mhR7ghO0yBchmyOPgtq9du268ppzG96QmYbH0fY7cfMuSWi2rXee8QLlI16h4iWJGVeADdDHTohYngXBPrWgysncuhDh6eM/eSYAVAevgYng4bQqVMg7GxsGJ9omkGpmMCRkEuE5HXdkMslhMFPuzs6ssq1gyYh76jvJKR1v5qElEO9FnojD7jPMqZzu9ioKNdDwxxhOj0ignbb7yanMcPXJUGRjZSM11JSanMoj/+/QTzP9yoWJwrPfmSZMZCYc1ol5rQaUX5wdfm6w7kMeZ5q+vZeIXGY56dxR++nGdMoJqeZNTxNCJ1Ca7PPLKmknb4cyTfrXqhlUnx7Oa4trVq2AvJY1Y1cZ184PKFJPCeLR07ai1mZFBlJmQnklG3YlWxXhFzXsAppGahPenqHyxBqzYGaEIra5zQ2zr0lbTmZXnPSb6Fb8+H0skD0LlK5Y3qzjvYdD2MZhVICUTT5j6/Ttpy/LkyXs/NGI3Vb6H8pPdQ0/MfDJiQJyHJTX+paW02GSHc9ryOT3XM2FuW8/s9WlcLzMZc/rDEnhW+OW0j5nlt0gJJLPOPs3x5kogbPx+i1a2PAHOJQ8b/c30qMb/qNrkVVBICO04rljBaADNbAy8R+IsqUbYg0sz0GaWN6t4NkYGkCdPREQ4itDmMXbJ1YyvWjnWiQcEXKUJ/S4KFSiIkqVLGZ0PtDyP4sgrXl6N29HEXoJUdBlNXo+i3eehTra1sNToQzv0y5Yv8zwM2SLGaJESiEUg84Q6ER4ehpfovUus930czIOH+aja5FWQZovIDk5WIT2M16UzszBMIJlPIixp5MTWkV3fzU1nhlHrhVrmZpd8OUBgyLCBOcgtWR8WAiKBPCwks6nHXAkkm2okWRAQBAQBi0Eg1epnMV2SjggCgoAgIAg8DQgIA3karpL0URAQBAQBC0RAGIgFXhTpkiAgCAgCTwMCwkCehqskfRQEBAFBwAIRMJuBODzefXcWCFXuuyTY5R47KSkICAKWi4DZDKSRR+rGL8sdjmX2TLCzzOsivRIEBIEHQ8DsfSDetQ0M5GAgfYbx/oM1+ryUZsmDmYeG3fMybhmnICAIPB8IGBmI/qVpmQ2dJ0KZDDNDR+IFAUFAEHi+EDBRYWkvi3u+IJDRCgKCgCAgCOQGAcVAmHHwj196x4qq1PeP5qZKKSMICAKCgCDwPCBA3zQxvIqbX0XNv5pFk7D7krCQ5+HiyxgFAUFAEHgQBAwSiHolOEkg9G2B9uVj8P2pZOwiJiJs5EGglbKCgCAgCDzbCFgl0fcZ+TsH/MEU/sXTV/zOhVlhy6U8OHnTWpjIs339ZXSCgCAgCOQaASvmHkSGjwKlMBH+NgMzE/7+L38Ah9OFBAFBQBAQBAQBPQLKjVfzvmIVFhOfk2QC/tCQxjyS6JOwQoKAICAICAKCgIaAkkC0E00S4XNmHsw0NAai5ZGjICAICAKCgCDACJgwEI7QMwx9mNOEBAFBQBAQBAQBDYF0DERLkKMgIAgIAoKAIJAVAiY70bPKKGmCgCAgCAgCgoAeAWEgejQkLAgIAoKAIGA2AsJAzIZKMgoCgoAgIAjoERAGokdDwoKAICAICAJmIyAMxGyoJKMgIAgIAoKAHgFhIHo0JCwICAKCgCBgNgLGD0ppJfR7P/RhLV2OgoAgIAgIAoIAI2DCQJhhaExDdqLLDSIICAKCgCCQFQJGBqIxD/USRXoPlrwLKyvYJE0QEAQEAUFAMRA982AGIm/jlRtDEBAEBAFBIDsEbNMyj9TvgTjJ90CyQ0/SBQFBQBB4jhEwflCKpQ5mHmdDgc/+yoeeNazQsjx9K/05BkeGLggIAoKAIJA5AsqNV/vuB6uv+EuEzDxaCfPIHDVJEQQEAUFAEIA1q7D4ux/89UH+8WdsWfIQEgQEAUFAEBAEskLAIIFon7Tlz9dSbmEfWUEmaYKAICAICAKMgMlOdJZGhAQBQUAQEAQEAXMQMO4DMeeb577Hk3EwMBlx982pWvI42AGNPKzgXVtkOrkbBAFB4NlDwMhAshsaM499/iKhZIeTPp0ZrYaZMBE9MhIWBASBZwEBExVWVgNiyUModwgIdrnDTUoJAoKAZSNgNgMRtVXuL6Rgl3vspKQgIAhYLgJmMxDLHYL0TBAQBAQBQeBJICAM5EmgLm0KAoKAIPAMICAM5Bm4iDIEQUAQEASeBALCQJ4E6tKmICAICALPAALCQJ6BiyhDEAQEAUHgSSBg9j6Qx925KkWApqWsUdqVtsvTPrzgaGCPXxJOh6T2pF4JoFrRzHngvitJaO6ZeTrXtJfqDIhMrfNZCoWHRWDpkmUmQ6pcuSLadWhnEmcpJ2GhoVi21Fd1p2Ont1C+Qjmzunbi+En89usuk7wtW72KF16sbRInJ4KAIPBwEbBIBuJVyxpdqxoYhzbc6hRoWcYaG84BK/5JUtENSlihdXktR/pjZJwVOldJH6+PuRZhRQzE8ve4bN+6A/PnzUfJkqWw1HexfgiZhkNpQt79m+nEevniZbMZSG7azLQzZiQEh9wy9pcZnbkM5J+//zGW05pxdXV9bAxk3dr1OHz4CO5GRqJy1Sp4+eWmeLHui1pXHtnxy7nz0ar1ayhAY1393Rq8M3wo8ubL+8ja01d8/vwFbN6wGeM/fE8fnS58Iyj4sfctXSck4pEhkPXy/JE1m3nFtYoB3asZmAe9HBh7LkTjt3NR4DBTp8pAdTdDODmJtnqn0OVb8Uj7uxGeaIwLvpOoZUVodGp8aHSCMd6SA6tWfqe6592/j9ndLFSoEFq0fFX9bKxtzC6nZcxNm1rZx3l8sc4LaoyNXmr8OJulL3cmwsd7EJYuXoLrgYFIpJv0152/4MP3P8KqFYbrlV2HDh88jPZt30JMdEx2WdOl79i2A6dPnkbg9euKgd6NikqX51FFXLpwCXt278m2+ifRt2w7JRkeGgIWJ4Hwt0g0mvRLKI6F0AuliPzC7mBI4/wqzJLH6ZBUqSEyJgnvbL6r0vT/bB1d8MdlQ3yVoraY295FJS87cg+/X45XYVvH/LCyODaqHwXw14GDiAgPh4uLC5o0a2KaSGf8PRcr1vOlCRco6Ir3U1aIh/46iHv37qk85vzLbZsZ1a3vX27S9WUyqqvWC7XAv7DQcBw88Jc+e5bhjOrKskCaxGVLluPatavo7zMA3Xq8rVITEhLh1b0Xvl/zPbr17AoHB4c0pUxPo6KiERcbiwR6E7aQIPC0IWBxDKQc2TyYjl+Pw/FwV9g4GCbGbZcTcDwwmGbLZEQmMSNwVPn4n5ODNfo2KmQ858CtqGTsupwMu7wFVLytYyrDsbZ3pPh8Jvkt+WTpYoMdw6u3l7GbH3/wCc6fO4fixYvjwoULcCvqhmo1q+N3WhXa2tpi8mefPpAaJaM2e3T1go21NWzt7HAjKAi84g8mFYW/vx9cCxTAN4sXgZkW05lT/2H69Jm4FWIwWrFKacSoEXipaaqU8N9/5/DpxE8Vc3RyckL7Du2N49MHmDFM/r/JuHTpEq3678PB0RF169VVzDG7CVpfD4cjI+9gybdLcIzUXmxzsbKyArf9dreuRiaQtkxm51s3bUbp0p4m5WxtbTBh4gR8u+hb+PtdQeUqlZRkMvuLOfjzjz+ReD8B5cqXw6d0fUJv38a8OV+q6vv07IOvFi1EcY/iJs2xGvHH73/ErVu3wBi2eaMN+uZACh377nvIlycfguh6BZGk4lGyJLr36oZFCxYhmphXyVIlMXf+HKX68ve/gkkfT0LIzRCyO1oTxvXw8f99qJjgveh7mPDRRFy8cFHlLUn16Gnzxi34jqRkzleoaBGMf/891KhJqoQ0tODLr7Hv998RHR2NIm5udJ9OQpkynhB6OhGwqLV3QVLfOtgZGMaVSDrSw800uYU1Zr5uj5GvFMPIFu5oX91Uz2tDo+hB96r+167i03lB0vb63NnzSj3Ck2Z7nfH7Ok0Gd+/exfnz54mnJiM4JBh7du1WYZ5kly/zTVuV2eeZtRkeFqYmMmYeTLzaZ+bBxBLSZppQmZgxjBk9BjeDg1V/uH/hlD550mRStRjUHrG06h43aqwqx2WiSP3Cq/a0xKqdvr28cfbsWcU8OJ1X7AdoMh48YGja7NmeT5n0GXaRwZ2Zh6bWYxyPHv0727L6DJHhkUhITEDjJo2M0XFxcUoVVb5cWXwxawYxCoOBbub0LxRjf7VlC4wcMwqBpO4aMmgoipcojpavvarKDxw8EIWKpFkE3bqt7F5uxYrh0ymTULN2LYVRUKABf2PDWQRCbgSTfeYQPEp5oPPbnREQcAUzps5Avfr10LN3T1y5cgU/rV2n1HGjho9GBNlxfKgv/QcNwJEjhzF1yjRV+5TJn+Pcf2fR4tVXUL9BfZw+dcrY6v59+/H1wq9RrkJ5jB0/lhhWXrw3ZpySCI2ZKMDODtu2bEHvvr0xesxoxMXEYNqU6fosEn7KELAoCUSzczCGtikqGQ5XLwrY6VhdRAzbLVIjWLY44GeqQ75+h0tmrT7gHJZO3yxarLrYseNbRjWVvs8vv9IcYWHhOHXiBAqSzaNT505KJx9844Y+W47C2bX5/sfvY8HcBUolpm/fz89ftTNr+ix15NV9rz69SPWWH9989a2acL9a8JWaNNevW092LYPapmzZsmjfsQMWfbVIMQd9ZxdQ/vj4OBU1YKAPWrd5jfJ9g717fseNG0HgyatZ82b6IlmGT508qdJr1KyJWXNnqjDbIYJIksoJXSMmwJQ/v0GtyuHePfqQhJPq0teqdSuMown1f3v3oU7dunhnxDucTdGcL2bjFkkg1atXB9sympLhPa00xQyOJ9u3u3XBnTt3cfPmTVXXmTP/pZNUtHozOvLiY9LkiSpp546dsCEJVTN+b1y/EZcv+ykGx4z5s+lTUa9eHZX3zKkzOHzwkArz/fVyi+Z4d9xodR4SHEIM4bgK+65YpaS4qdM+U+d169dF105dsWP7DlSqUlnF8b8rJOEwBVPZrt06o2bNGqQCvKbi5N/TiYBFMZDIWFqJxiUplVR1Nxsjop/9GgYXh2SMaZGyQqMVrZ7ukA1k6l4qrCMrG3vQ31NNQddv4OyZM2qlzKvFjKhkyRLIR543/IC7FS1KKpXSKls8SSG5IXPaLFumLFxIncI2ldKlSyJPnjyqfVZLMAUFXVdHD4+SxEAMarfDh4/iKHkqcRlevV88f1nl4X8TP50I9+LFcPnSZWzdvMUYz4FTp06rc2ZGzDB8l/siKSnJmOfff0/kiIEwk2XpgxlJ/74+5DHVDF26dkKDRg2MdZoTKO1ZSmU7euRvdOrSUYXnLZiH2BjDfTh0sEE6unnzlpLC/j56FG1btzWpOuTGTZPztCfOxJyO06p99arVqg5Hxzxps5h1XrFiRWM+O3t7eHp6Gs9tbGzAdht//wAV9+KLLxjTPD1Lk/3tAEmUBumvUeOGxrQ6desYGUjo7VDExsakG98tkqAqVTEWQYeO7fHH/j+xcf0G9XN2dobPIJ/UDBJ66hCwKAbC6P19PR7NyzrCs4A1PqKF5eZzSYiIc0ar8qkMJS3KjrZWqO1pMJDr067RYpCZ0tNKixctUV1/9bWWtDrNmBva2NjB2tpwGa1pMrCzM+DEBuLckDltsp7fmmwhTNy+DesQiVi/H02qKO3LlhUrVVDx/I9X2sxAmFhtEhYRrsLMGJh5MNWsVSMdA4mMiFBpXCev1NMSr2ZzQgN8+mMO2SNY+mHPKVabrf1hLdkVvE1sGdnVyZOfvb0DzhCD16h4CXcVZLdiJl7nsOMD0+ttXsfwUQYJ5O6dKPxz7B9SSVUnVdxfKj2jfz/9uFYx5mHDh+GNN9sgIiISvchAn1OyT3vvEOYaadfK1dXQT1ZPepT0UMnnybZWuHBhODs5qfMAum4gSYnpAqlONcqTxxGuNM6lKw33K8f/uf8AKlWuhOsp6k6OY9WoD6nGypQtoySb5Ut9sXD+QrzaqgXdtwZnGc4n9PQgYHEM5NtD91HPwwH57K3oa378RT+enFLVVRlBy3aTaa+mPhRanh/o2f7+ROpqVYt/Go5s7D106KAy8vrQpPegxCtNpujozF09H0ab+VImG27r2tVAPijy8/PTgnBzL2aclHgC43ZZzXXF74oxjxbIS9INq1ZYndOe1HhpqUYNMn6lkAN/AjKFIlIYj3auHdnm8BIZ/9fTKvgISQ8XyBGBmcmqFStJrdIlQzWhVjbtsd8Ab2UsH/fueAx7ZygcaSLdvGmLCaNjxl+UJMP9/9tPrsYtUKhQQUwle8LVgKtg9Z+dvaHP164FomrVVHUPtxUebmCeLB2xzWjGtC9UFxITDao/dfKQ/jUh54YVy5Zj1ozZ+PCTD3E/Ph4nj58glWFreHh4IG/evGBDeU1S/bEEeIQkSo3qkEMD7zfavet3cD1Lv12GX8idefa82VoWddy3dz+2b92G6TOnKanxyJGj+J3KJOVysWNSuZw8EQSynpmfQJeikBfD14Xg/M14k9ZD7iZiw/G7Ki4h5YZLzGaRzQ+BRvd1fCRBF9bSLe24YtkKtZKvX78BXAqkl65y2l8nWjEzsTfPuXMXMiz+sNpkjyymy+Q1dfLESdJ9BxilD2YExYq5kfdPKWMfuF1WK/3262/GOC1Q2tNTBXmSr1i5PAYP8cGQYQPRrfvbiIm5B3d3w6qfMzHzYomG6RgZxVmFkpZ4EmSXWVatzV84F/0GGJgzG8QvXLyYNnuW56y66ti5szIos8qqX59+NMluQh2yIVSsWEnzAcHkzyerfo0fOx4DvH0QcCUAbEdiafEFUhnx6vvdEaPhd8nfpD2vXj3VxN3Xqy+6vPU2qcdiwJLP3NlzlUMBj1UbLxfUh/UVUS79qUnYUAeU1NG3n8FZgT3CuJ8sPXn18lJM9ZP/m4CYezEYP+59fDD+QxQhTyutvZGjR8CTrtM86hf3k5nHm+3bo7qOuXPeHl7d4OjooBwsXm/ZBnt374UXXYfMpGuTjsqJRSJgRauZ5ISEBCgPErpBB+wuDN+O6fmK98bHN+smJyfhflQ4nGxiUaawPYIjE3DznhVs87ri/p2bdHSBbR4XJMZFUb6wTIG1cy5CdhCD3pjrjAszrIjtXd1hTaqXx0kZYZpZ+3Fx8ejUrpMyOq9YuTxDg6l37/7KlZYf+tDQMOXdUo3URL3pgeQHnNUrW3duNjaxiIzYmzZsNJ7zA822i41bN6g4c9rkh54lhmW+SzFxwiSlAuIJ+Ca5fW7fuh1VqlTBPJqU99Cqcia58GZE3bp3Q/+B/dTknpU6ZvjId9SO+UBamfv0G2hUizEDsqVVO0slTHqjL5/79BtEks9VDiricVavUcNoMG/XpgNNvvEkCRSiicsR7GzAzIkn8Z83raMJzlEravaRNxSySzWrEKuQ2kbbk6OvgDcZsgtsDD1jPLHqVTasbmSDelGalDMiVv24kycWLyS4HnbHZffbR0F370aR3Y3dw93Ic8u0DZ4j/jtzVtm92JaUlgKvXiP7Vwgqkeoyq0XPaTLOsxRVq3bNtFXI+VOGgMWpsBg/K/JBt3cuhDiarM7eSYAV6dwdXAxMzaZQ6srVxsGJ9okY9LPZ4c51OurKZpf/Saav/X6tYh6VaEJOuy8gbb+syVuN5khFauLSTtJk7O/TD/Y0SW7ftl354DMjiCdGpVGO2iQseZ8AE0/Q/NMT67TZM2zZkqXGiZ/T29E+D2YeTEWKFCZJYii++XqROud/LzVtotxzOWxNjIKJ9fGfk2fQtKnTyRPpjprsE2MNKhz2gCpCOno9TZ3+GXmhLcNffxxQGPI4Wf2jkRtJP8xgbtOErZGtjS1GvTsqV8yD62BJQr/a1urVH9lOxHtCMiK+bpkxD86vL8f1PCrmwW05OzuhfsO6HExH7CWW1fvFmOGkZTrpKqGI7LDKqIzEWSYCFimBWCZUD9YrcyUQXo2+RdIHe7XMJa+etHrxB+tFxqUfVZtcL7uIsoRbvkJ52uBoYAr6XrDkc+H8RfDeiTz5svYyYlvJFT9/2NFEVoL2ULDdJDfEDCWAbBDsGluoQEGULF1KMYHc1CVlBIHnGQGLlECe5wsSHh6Gl5o0Vt4vj4N5MNaPqk1eWWf3QkTWf2e0Yzmje4AZBr+y5EGJ1VSVKqW6tj5ofVJeEHheERAJ5DFdeXMlkMfUHWlGEBAEBIEHRsCgyH7gaqQCQUAQEAQEgecNAWEgz9sVl/EKAoKAIPCQEBAG8pCAlGoEAUFAEHjeEBAG8rxdcRmvICAICAIPCQGzGYjuLREPqennpxrB7vm51jJSQeB5QsBsBtLIw3Sz2PME0oOOVbB7UASlvCAgCFgiAmbvA/GubWAgBwOTEXffEodieX1iyYOZh4ad5fVQeiQICAKCQO4RMDIQ7dUUWVXFE6FMhlkhJGmCgCAgCDw/CJiosNK+0+j5gUFGKggIAoKAIJBTBBQD0V6Ix286ZUVVNm9Jz2kbkl8QEAQEAUHgGUTAmpkHq6+s6S2f/KtZNAm7LwkLeQavtQxJEBAEBIGHioBBAlGvBLeiT5PSV9/Kx+D7U8nYRUxE2MhDxVoqEwQEAUHgmULAij5PSZ9MSFYfeOGPvMTTV/zOhVlhy6U8OHnTWpjIM3W5ZTCCgCAgCDw8BKyYexCpD/8wA+Hf/fv31TGJvn7GX2vjdCFBQBAQBAQBQUCPgHLj1byvWIXFxOckmYA/CKQxjyT6JKyQICAICAKCgCCgIaAkEO1Ek0T4nJkHMw2NgWh55CgICAKCgCAgCDACJgyEI/QMQx/mNCFBQBAQBAQBQUBDIB0D0RLkKAgIAoKAICAIZIWAyU70rDJKmiAgCAgCgoAgoEdAGIgeDQkLAoKAICAImI2AMBCzoZKMgoAgIAgIAnoEhIHo0ZCwICAICAKCgNkICAMxGyrJKAgIAoKAIKBHQBiIHg0JCwKCgCAgCJiNgPGDUloJ/d4PfVhLl6MgIAgIAoKAIMAImDAQZhga05Cd6HKDCAKCgCAgCGSFgJGBaMyDX6bI78GSd2FlBZukCQKCgCAgCCgGomce8jZeuSkEAUFAEBAEzEHANi3z4O+BnIy+ju/C/8GRuwGQd/CaA6PkEQQEAUHg+UPA+EEp/gYIM48TUYEYcXUjhpZ8Ge2L1KBvpPNX0oUEAUFAEBAEBAFTBBQD4Q9H3U+4j9jYWLwftB11XD3RoUhN05xyJggIAoKAICAI6BCwZhUWf/eDmQj/WG3FkoeQICAICAKCgCCQFQJqI6HRDkKfr2Wbh6itsoJM0gQBQUAQEAQYAZOd6MxIhAQBQUAQEAQEAXMQMO4DMeeb5wuu7sOesHO4l3TfnLqf+zx5re3wasHKGFGq+XOPhQAgCAgCzx4CRgaS3dCYeWy9fSq7bJKuQ4AZrYaZMBEdMBIUBASBZwIBExVWViNiyUModwgIdrnDTUoJAoKAZSNgNgMRtVXuL6Rgl3vspKQgIAhYLgJmMxDLHYL0TBAQBAQBQeBJICAM5EmgLm0KAoKAIPAMICAM5Bm4iDIEQUAQEASeBALCQJ4E6tKmICAICALPAALCQJ6BiyhDEAQEAUHgSSBg9j6QR9W5d0u9YvK+3wQk49871/BHxOV0TXq510Vdp9LwcHRFdGI8rsSGYm3IMZyNDjHJ27ZQVbQsWAXFHFwQn5yAS/duYdWNwwiIDUP9/KXRxLWsSX79Ce/Fn3t1rz7qqQ2Hh0VixTerTfpfsUoFvNnxNZM4SzkJux0O38Xfq+506PIGylUsY1bXTv57Brt37jPJ2+K1ZqhdV97pZgKKnAgCDxmBJ8pA3Oyd4e3eKP2Q3IG7ibGYeHkrfg+/qNJXV/NGDafiJnlfcC6J9oVrYrL/Dmy6dVKlfeDZCj3c6pnkq+3kod4u7HN2Neq7lEbfjNrUlfg++G+ExN/VxTz54I7Nu/DVnMXwKOWBb7+ba1aHwm6HYc+v+0zyXr54xWwGkps2TRrL4cnN4NvG/jKjM5eB/Pv3SWM5rUnXAq6PhYEk3E/AqqU/4fTJ/xAdFY3iHu7w9umB0uVKal15qo5nTpzDr9v3oGz5Mnir6xsmfb90wR9bft6BUqU90MWrg0maOSfLF32PqtUqoGEz0+czbdkFsxaj1euvoHL1CmmT5NzCELAYFVZI7B38E3YFkfExCiJnG0eMKPmKCo8hKUVjHmFx0fj56hH8cdOwsdHGyhrjSrdEIdt8yGdjj+5udVWZ0Li7WBdwGAdunVfndlY2GF2yBYKiwnDuTpD6RcbfU2n8zy/qpoo7ExGIqMQ4Y7ylBNas+El1pc+A7mZ3qWDhgnilVTP1s7G2MbucljE3bWplH+ex9os11RgbNmnwOJtFeGgEvLsOxfofN+JOxB3V9pG/jmJY/zE4fODYQ+/LN1+uwJDe7z70evUVsjTHi47li1YhMSFRn4Tvlq1VaTu2/GYSb+7Jb9t34ejhf7PN/svWXThz8my2+STDk0fgiUog+uF/d/UAVl47iOSEJPzUaBiq5i+Oko4FVJZORV9Qx1hSW3kdXoTApChYJSXjvTKt0LtMEzCz6eFeB39F+BnfJLzm6kEsuf6Xyvdj3cGqPk+HQthw8wR+Djiq6htS5mW8U76lCvc/tgyhiqFYwTq/o4qzlH8H/zyKiPAIuLjkx0vN00+SyYSFlbXhw1/6cIGCLhg3YYQaxqEDfyPmXirDzG5suW0zo3r1fcpNur5MRnXVqlMN/OMJ/dCfh/XZswxnVFeWBdIkzpn+NcLDIvDhpLFo8kpDlRoVGQ2vjj6Y8/kCrN3um6bEg51yW+Fh4Q9WiZmlE+nN3Pt/P4hXXmuiSjBWJ44ZpHwzq5BszwECFsNArO1sYe1kmLiTUz6CaE3soLRjQcUg+FocCb+CIId4eoWwvbo0m8LPKAbCJ2XsC+Ln2H9UPP8bUPZlVCzogUOR/nj/v5/hHx4CK1trYg55YG2XR+WzojY1snbKC+sEtoBYHq1YtFp1qof328bOTXxvGi6cvQD3Eu64eP4SiroVRbWaVbB31/9ga2uL/5v2AV6ol/uPgmXUZu9Og2FNjMrOzh43gm6AV/zBQSG44ncFrDJauHwWmGkxnT11Hl98Nh83Q26pc9cCLhg2ZiAaN62vzvnfudMXMWXCTMUcnZzyoV2nNsY0fYAZw5QJs+B30Q/85UwHR0fUqV8b4z4aDoc8Dvqs2YbvRkRhCa2u/z16AmGhYbCysgK33blHB7zt9Va25bUMrLr658i/qEXSj8Y8OM3JJR+G0jjZJpN4PxE/rdmEw3/9jUIkDR49eAxb9v6osJk55UuE3gpDXrrvunl1RsfubVXVjMmC2Ytx7co12Ds6oDpd00kzPsDPazbj4P7D4Im9f7fhWL52ITGTSEz5aCYuX/CDLd3LDZvUx9iP3oG1TXrFAqsj163ZiFs3b9O1csHrb7ZErwHdtOGkOxYsVBAsaWgM5MjBfxT2Rd2KmORdNHc5ftuxR33NlBc4o94fhgYv1VF5du/Yi+Vkg4uJiSV1ZDkqn2Asm5O+GwtJwOIQSH+nPaEudnOvh2+q9MBvLw5HNWeDreNQ6CXFQLQuHSVmoKdL90PBqiqmgnb5EHw/CrtDzqjzfDYOeJ2M6ZPKtsXWhiPxU7MRaFyyikp7mv6d/+8SrgcGqUnzzbdaG7seFHgDd+9G4cK5i+DX8IcEh+D33/apME+yK1OM0cYCOQhk1iavfm/fClXMg6vj1T4zDyaWkLZu+EWFeRIcN3wC9emm6g/3j1fPUyd8gd9/3a/yxMbEYfyIT1Q5jogi+8EPq35Wafp/MdEx6N/9HZz/77yawDgtjr6c+df+QxjWb5w+q1nhzybOwp5f9irmoan1GMdjR06YVV7LxLYkpoZN0uvzX3+zBWZ9NRk2djYKL2bwx2n13uqNFkpKeo/GzYxr2NhBqNvwRSxd5GvEZdIHnyPqzl2M+XgEvPp2xdFDxHR+3olGzeqTXcJT3QeDR/ZTbY8e+D6u+F+FV7+u6NarE/635w9MmzRPpen/MaNi+1nRYkUx8fMPUKN2dYV1UGCIPptJmFWf589cUEyQE7Zt+lUtElxcDQsEjvvBdz3F70SVGpXxyZTxKFSkMKZ8PAM3rt9UzHHujK/hmCcPevZ9m85vqy+ecjkmc/tuyC3/LRUBi2EgJcizqlH+MnCzy6+wComNxOKr+8kmEm3ErpCjszGsBfLZGaQWtnEwvXvuZ3x8fC12BZ8G20s0qpqvGOZU7KLsJFrc03BcvHCl6iZ7JWlqKn2/m7VooiYEjuNVY/8hvVVy8I3MJwd9+YzC2bX53iejkSdvXlVU377/5QAVN/vzherIk6RXv24YOnogbG0M0t7X85aptI1rt6nVNJ+UKeeJEe8NVZOjStT9+3recrW65aj+g3vjx80r0LxlM5Uj+EawUrPosmcbPH3CsMCoXquakga27fuJpLUPTSSjbCuhDJEpNg9nZydzsmPhitk0xkE0ca9XTHXGl5+SofhlvPv+UDUxb9v4q6qHJaHJX3yMeg1qw5MM8YzbyeNnUKKkO9yKu8HO1kat8E8cO4Pbt0PV9e7coz1JUO2VBHL04N/p+mNtba2uw+QZH6JcBU8lqXKms6fPp8urRXTo0kZdn99/2w9WX508dgov072mp83rt8O9uDs+n/OJMozPnD9JjW3nlt3YuXWPyrrIdzbe7vUWZs6fbCyak74bC0nAIhFI1eE84e6xUfzQ7cu4T69AP3rLDxfjw2BL6ibEgRx7+SuJQGPXcpgbuM/Y02au5eFI39xguhgVgnKOhdC2VA1l95h6aTtCo+6ikmMRjKraGk2LVkY+a3vUcS6F/RGXjHVYcoBXcufOnAOvlLv36ZJhV0uULI68+fLg1PHTKELqhdJlSql88Tp1QYYFM4k0p80yZUvBlVaibFNhj5w8eRxV++yFxMTqLaYSJUugp7eh30cP/YO/aTXNZe6E38UlUrto9PFn79FEVBT+tKrnFa2ezpB3ExMzo6CgYPgu/R5JSfzdTAOd/Pc0mrVopJ1me2Qmy6orZiSDvEZR2cbo2K0d6jd+Mduy+gzlU1yMDx04alTzaOksgW1ctw0jxw1SUaxy4/ExXb0SqI7e3Yaqo/bPwcGgirt75x5G+oxHQmKCYh6sssqILl24rKIXzVsC/mVF+fM7g43j3/v+pCZ4R+pPdlSoSEG4kcSyc+tuMJPk/rQjpvLfaYPzCpe/F3WPcKtrrCoP3Yd2dnYIJcZ2xe8qChcuZFQxFilW2LhAyEnfjZVLwCIRsBgGcuROAL67TZ4rxCmsHW1gQytczSLBnlHVXT1QIZ8bBpRojGVkHGdmMdzjZSOoR+5cAUsxA9wbq7giDvnxTeAfuBQTjsu0X6RpSs67CTHGMpYeWPqVQfpo0fplODgYGGXaPtvSitTGxiB92ZDuWwsn6ybZtGWyOjerTbZXpRjt9e0nkNdONE0q2pctK1QuZ2yqOqk5mIEw+dPkwiotJmYM2uRavXbVdAwkImWlz3Wyd05aCr5xM21Uluf9BnthHhm/eWJm1SCrzX5avRG9fbrnyAZSsHABNVmyLSUtLV7oS7ahYORzzqeSePGjkYtrfjXmddtXws7ecE1PHT8LR0d73CI3ZvboatS0AUaNGwJnVyd0bt1bK2pyZEbIxNLTiym2rqsBQWCpLC2t+36TYvBDRg1Am3YtlfTUp8vgtNnSnbdo3Rw/rlqHjT9vV8xAu05aRlvqf1Bgants12D1aSNS690g29j1a9e1rLhHqkhWPTLlpO/GCiRgkQhYjArLiiY/KwdbWNnbIjllctIQ+/TcFtxPTlJSyEiP5jjR4CNsqDUYlYihMLGr7s7Qs/g7MgA3YgwTU7vCNbC99jAca/ghvEu9pPIdJgnn30jDClBFWPA/NvYeJpdQnmD7D+71wD21TTGs3otOVeulrfRhtJmPjMIaBQakTiB+KeotTivmXhROKaofZgzcLhOvWtNS3ryG1TJLYW+93S7d740OrYxF7B0MzhUcwTaZjKhF62ZYu22FUulUqlJR4cvMZDW5qLKqJifUf2gfRBOeH46ejAv/XaYJ8wbmTPsa58m54W2vThlW9cqrTRSD/XaBL02ocWSA3odP3puCA/uP4EaK2vHFerWQJ58jVi9fp+wGWr94gRAXF68m47rkRMCYrFzyA26RjYOZ0AcjJ6pxpG2YJ3am+g3rIPZeHDk3LFDnCQkJ6pjZv/YdX1d9ZWnt5RS1oT5v5WoVadwX8Ou235GUmESuv6sVno2a1kPTlxspZvLV7KXK7jN3+iJj0Zz03VhIAhaJwBNlIAm0StYe2YTkjEV1Ru1icjjeObIC1+6FmYDIZTddO4YxZ9YB5GF1j3adDzu2CsfC/I35eJ8IE+8xmXJhG2CTuh6MTzI8QDyJxSbfN5axhIDvku/Vw1uPHvr8BdLbfnLaRydnQx3shcOTXUb0sNpkjywmv4v+OH38PwT4XSNjsMFDjic9t+JFULJ0CWMXuF3ehb575+/GOC1QyrOUCvIkzxKNz7DeGDi8D7r07EDqsBhiRsW0rGDmxQyX6Z+jx5Uh15iYEmBDP6vAWLU255up6Duwp0phFY1erZa2XEbn7Tu/jg6d31Sr+3eHfoBBvUYqA/0b7VsTo3sjoyLKVtC6bUvsorF2fdObjNvfqk17/Qb3RM0XqlG4rDJ4d2jZA9s27ECFSuVx6MAR7Nt9AC81a6gm5Z4dBijphD2e2FvLp8c7mDBuspIKP/n8/XTtdu/bWdms+vcYhm7tvYmJxCi11PwvFoG9yTIjvu9KeBgcWjp0eT1dtvfI0O9CHl1cT7sW3ZQTR1+fnrAhqZi9ytjOtGPLr+jVaSA5KfxLUhYtBujysGSVVd/VNUx9TNO1KxGWg4BVYmJiMq9E4uLiyN0uBq38l5In1Ih0PXztH8OqJV3CA0YkBhtWR9YF8ynpI9PqaH9I4p0YlLBzRmmnwrgbH0ub/0Jwz5Fcc/MZ9MeqbGIyEqNiUSDJDp6Uz5oYiN/dmwi3vg9bZ0cT6SY5LgFJ4dFIpknH1s1gvM+0/QdMyAjTzKqMi7uPrm36KL3zkjULaXezQdLS5/fpMVLZGnoP6EE6/XBs3/QLqtaoojxeeDKxt7fHxl1rjEUWz1+JzeuJgaYQP6TsIfPzzpUqxpw232zeVTG1xavn49MPpisVkPdAL3LVva0mikpVK2HOos+w97c/MWvql1pTJkdemXsP6qEm96zUKGx451eu8Kp+cO9Rql2uiBkQq040dcjkmRNQp0EtYxu80e7a1VQpk8dZrWZVzCADL1PHVl5qEi5EKiB7sjuE0KqfmRPr7n/cuoIw0d1LqkT2/xg7P7LpWNG9VqFSWeV9lV0plgou085u9xJuykCuz89j5kWNRynD5B14NQju7m6qXt5nwgxQW1TEkTfbWfKW4sk5u53b7F3H9XBZlhiukyefnpHr+2BumKUjf1ogRJLEV6V6pXT4cd/vRNxFZdqBnta9OCd9N7c/ku/xIvD//Oeouev7zUEAAAAASUVORK5CYII=;imageBorder=#000000;" parent="1" vertex="1">
                    <mxGeometry x="250" y="312.3" width="152.5" height="204.35" as="geometry"/>
                </mxCell>
                <mxCell id="y_bkC_GhIzTOKFM2gDOU-29" value="AutoML / H2O / DataRobot" style="ellipse;shape=cloud;whiteSpace=wrap;html=1;verticalAlign=middle;fillColor=#d0cee2;strokeColor=#56517e;" parent="1" vertex="1">
                    <mxGeometry x="20" y="550" width="210" height="120" as="geometry"/>
                </mxCell>
                <mxCell id="y_bkC_GhIzTOKFM2gDOU-30" style="edgeStyle=orthogonalEdgeStyle;orthogonalLoop=1;jettySize=auto;html=1;exitX=0.5;exitY=1;exitDx=0;exitDy=0;startArrow=classic;startFill=1;curved=1;entryX=0.952;entryY=0.508;entryDx=0;entryDy=0;entryPerimeter=0;" parent="1" source="y_bkC_GhIzTOKFM2gDOU-4" target="y_bkC_GhIzTOKFM2gDOU-29" edge="1">
                    <mxGeometry relative="1" as="geometry">
                        <Array as="points">
                            <mxPoint x="325" y="611"/>
                        </Array>
                        <mxPoint x="150" y="580" as="targetPoint"/>
                    </mxGeometry>
                </mxCell>
                <mxCell id="2" value="&lt;span&gt;http://localhost:52775/csp/sys/%25CSP.Portal.Home.zen?$NAMESPACE=IRISAPP&lt;/span&gt;" style="rounded=1;whiteSpace=wrap;html=1;" parent="1" vertex="1">
                    <mxGeometry x="30" y="170" width="360" height="30" as="geometry"/>
                </mxCell>
                <mxCell id="3" value="http://localhost:8080/" style="rounded=1;whiteSpace=wrap;html=1;" parent="1" vertex="1">
                    <mxGeometry x="501.25" y="240" width="177.5" height="30" as="geometry"/>
                </mxCell>
            </root>
        </mxGraphModel>
    </diagram>
</mxfile>